<mxfile host="Electron" agent="Mozilla/5.0 (Macintosh; Intel Mac OS X 10_15_7) AppleWebKit/537.36 (KHTML, like Gecko) draw.io/25.0.2 Chrome/128.0.6613.186 Electron/32.2.5 Safari/537.36" version="25.0.2" pages="8">
  <diagram name="第 1 页" id="Ffwltd-BkTj_wZPP68Y4">
    <mxGraphModel dx="2389" dy="1037" grid="1" gridSize="10" guides="1" tooltips="1" connect="1" arrows="1" fold="1" page="1" pageScale="1" pageWidth="827" pageHeight="1169" math="0" shadow="0">
      <root>
        <mxCell id="0" />
        <mxCell id="1" parent="0" />
        <mxCell id="ByIDOS2-gOjzDxIdcaOW-25" style="edgeStyle=orthogonalEdgeStyle;rounded=0;orthogonalLoop=1;jettySize=auto;html=1;strokeWidth=3;fillColor=#1ba1e2;strokeColor=#006EAF;" parent="1" source="ByIDOS2-gOjzDxIdcaOW-9" target="ByIDOS2-gOjzDxIdcaOW-24" edge="1">
          <mxGeometry relative="1" as="geometry" />
        </mxCell>
        <mxCell id="ByIDOS2-gOjzDxIdcaOW-9" value="输出数据" style="swimlane;horizontal=0;whiteSpace=wrap;html=1;fillColor=#e1d5e7;strokeColor=#9673a6;" parent="1" vertex="1">
          <mxGeometry x="-760" y="300" width="520" height="460" as="geometry" />
        </mxCell>
        <mxCell id="ByIDOS2-gOjzDxIdcaOW-19" style="edgeStyle=orthogonalEdgeStyle;rounded=0;orthogonalLoop=1;jettySize=auto;html=1;" parent="ByIDOS2-gOjzDxIdcaOW-9" source="ByIDOS2-gOjzDxIdcaOW-1" target="ByIDOS2-gOjzDxIdcaOW-18" edge="1">
          <mxGeometry relative="1" as="geometry" />
        </mxCell>
        <mxCell id="ByIDOS2-gOjzDxIdcaOW-1" value="学习素材" style="swimlane;whiteSpace=wrap;html=1;fillColor=#b0e3e6;strokeColor=#0e8088;" parent="ByIDOS2-gOjzDxIdcaOW-9" vertex="1">
          <mxGeometry x="60" y="40" width="220" height="380" as="geometry" />
        </mxCell>
        <mxCell id="ByIDOS2-gOjzDxIdcaOW-4" value="标签目录" style="swimlane;fontStyle=0;childLayout=stackLayout;horizontal=1;startSize=30;horizontalStack=0;resizeParent=1;resizeParentMax=0;resizeLast=0;collapsible=1;marginBottom=0;whiteSpace=wrap;html=1;fillColor=#cce5ff;strokeColor=#36393d;" parent="ByIDOS2-gOjzDxIdcaOW-1" vertex="1">
          <mxGeometry x="40" y="60" width="140" height="120" as="geometry" />
        </mxCell>
        <mxCell id="ByIDOS2-gOjzDxIdcaOW-5" value="image1.png" style="text;strokeColor=none;fillColor=none;align=left;verticalAlign=middle;spacingLeft=4;spacingRight=4;overflow=hidden;points=[[0,0.5],[1,0.5]];portConstraint=eastwest;rotatable=0;whiteSpace=wrap;html=1;" parent="ByIDOS2-gOjzDxIdcaOW-4" vertex="1">
          <mxGeometry y="30" width="140" height="30" as="geometry" />
        </mxCell>
        <mxCell id="ByIDOS2-gOjzDxIdcaOW-6" value="image2.png" style="text;strokeColor=none;fillColor=none;align=left;verticalAlign=middle;spacingLeft=4;spacingRight=4;overflow=hidden;points=[[0,0.5],[1,0.5]];portConstraint=eastwest;rotatable=0;whiteSpace=wrap;html=1;" parent="ByIDOS2-gOjzDxIdcaOW-4" vertex="1">
          <mxGeometry y="60" width="140" height="30" as="geometry" />
        </mxCell>
        <mxCell id="ByIDOS2-gOjzDxIdcaOW-7" value="image3.png" style="text;strokeColor=none;fillColor=none;align=left;verticalAlign=middle;spacingLeft=4;spacingRight=4;overflow=hidden;points=[[0,0.5],[1,0.5]];portConstraint=eastwest;rotatable=0;whiteSpace=wrap;html=1;" parent="ByIDOS2-gOjzDxIdcaOW-4" vertex="1">
          <mxGeometry y="90" width="140" height="30" as="geometry" />
        </mxCell>
        <mxCell id="ByIDOS2-gOjzDxIdcaOW-14" value="label1" style="swimlane;fontStyle=0;childLayout=stackLayout;horizontal=1;startSize=30;horizontalStack=0;resizeParent=1;resizeParentMax=0;resizeLast=0;collapsible=1;marginBottom=0;whiteSpace=wrap;html=1;fillColor=#cdeb8b;strokeColor=#36393d;" parent="ByIDOS2-gOjzDxIdcaOW-1" vertex="1">
          <mxGeometry x="40" y="220" width="140" height="120" as="geometry" />
        </mxCell>
        <mxCell id="ByIDOS2-gOjzDxIdcaOW-15" value="image1.png" style="text;strokeColor=none;fillColor=none;align=left;verticalAlign=middle;spacingLeft=4;spacingRight=4;overflow=hidden;points=[[0,0.5],[1,0.5]];portConstraint=eastwest;rotatable=0;whiteSpace=wrap;html=1;" parent="ByIDOS2-gOjzDxIdcaOW-14" vertex="1">
          <mxGeometry y="30" width="140" height="30" as="geometry" />
        </mxCell>
        <mxCell id="ByIDOS2-gOjzDxIdcaOW-16" value="image2.png" style="text;strokeColor=none;fillColor=none;align=left;verticalAlign=middle;spacingLeft=4;spacingRight=4;overflow=hidden;points=[[0,0.5],[1,0.5]];portConstraint=eastwest;rotatable=0;whiteSpace=wrap;html=1;" parent="ByIDOS2-gOjzDxIdcaOW-14" vertex="1">
          <mxGeometry y="60" width="140" height="30" as="geometry" />
        </mxCell>
        <mxCell id="ByIDOS2-gOjzDxIdcaOW-17" value="image(n).png" style="text;strokeColor=none;fillColor=none;align=left;verticalAlign=middle;spacingLeft=4;spacingRight=4;overflow=hidden;points=[[0,0.5],[1,0.5]];portConstraint=eastwest;rotatable=0;whiteSpace=wrap;html=1;" parent="ByIDOS2-gOjzDxIdcaOW-14" vertex="1">
          <mxGeometry y="90" width="140" height="30" as="geometry" />
        </mxCell>
        <mxCell id="ByIDOS2-gOjzDxIdcaOW-21" style="edgeStyle=orthogonalEdgeStyle;rounded=0;orthogonalLoop=1;jettySize=auto;html=1;" parent="ByIDOS2-gOjzDxIdcaOW-9" source="ByIDOS2-gOjzDxIdcaOW-18" target="ByIDOS2-gOjzDxIdcaOW-20" edge="1">
          <mxGeometry relative="1" as="geometry" />
        </mxCell>
        <mxCell id="ByIDOS2-gOjzDxIdcaOW-18" value="处理输入数据" style="rounded=1;whiteSpace=wrap;html=1;fillColor=#fad7ac;strokeColor=#b46504;" parent="ByIDOS2-gOjzDxIdcaOW-9" vertex="1">
          <mxGeometry x="360" y="40" width="120" height="60" as="geometry" />
        </mxCell>
        <mxCell id="ByIDOS2-gOjzDxIdcaOW-23" style="edgeStyle=orthogonalEdgeStyle;rounded=0;orthogonalLoop=1;jettySize=auto;html=1;" parent="ByIDOS2-gOjzDxIdcaOW-9" source="ByIDOS2-gOjzDxIdcaOW-20" target="ByIDOS2-gOjzDxIdcaOW-22" edge="1">
          <mxGeometry relative="1" as="geometry" />
        </mxCell>
        <mxCell id="ByIDOS2-gOjzDxIdcaOW-20" value="扫描目录" style="shape=step;perimeter=stepPerimeter;whiteSpace=wrap;html=1;fixedSize=1;fillColor=#fad9d5;strokeColor=#ae4132;" parent="ByIDOS2-gOjzDxIdcaOW-9" vertex="1">
          <mxGeometry x="360" y="160" width="120" height="60" as="geometry" />
        </mxCell>
        <mxCell id="ByIDOS2-gOjzDxIdcaOW-22" value="数据结构" style="shape=step;perimeter=stepPerimeter;whiteSpace=wrap;html=1;fixedSize=1;fillColor=#d0cee2;strokeColor=#56517e;" parent="ByIDOS2-gOjzDxIdcaOW-9" vertex="1">
          <mxGeometry x="360" y="260" width="120" height="60" as="geometry" />
        </mxCell>
        <mxCell id="ByIDOS2-gOjzDxIdcaOW-44" value="Desgin by netkiller - https://www.netkiller.cn" style="text;html=1;align=center;verticalAlign=middle;whiteSpace=wrap;rounded=0;" parent="ByIDOS2-gOjzDxIdcaOW-9" vertex="1">
          <mxGeometry x="60" y="430" width="420" height="30" as="geometry" />
        </mxCell>
        <mxCell id="ByIDOS2-gOjzDxIdcaOW-41" style="edgeStyle=orthogonalEdgeStyle;rounded=0;orthogonalLoop=1;jettySize=auto;html=1;strokeWidth=4;fillColor=#d80073;strokeColor=#A50040;" parent="1" source="ByIDOS2-gOjzDxIdcaOW-24" target="ByIDOS2-gOjzDxIdcaOW-39" edge="1">
          <mxGeometry relative="1" as="geometry" />
        </mxCell>
        <mxCell id="PeB-FGqKaeeglwtafQI2-4" style="edgeStyle=orthogonalEdgeStyle;rounded=0;orthogonalLoop=1;jettySize=auto;html=1;strokeWidth=4;fillColor=#60a917;strokeColor=#2D7600;" edge="1" parent="1" source="ByIDOS2-gOjzDxIdcaOW-24">
          <mxGeometry relative="1" as="geometry">
            <mxPoint x="20" y="260" as="targetPoint" />
          </mxGeometry>
        </mxCell>
        <mxCell id="ByIDOS2-gOjzDxIdcaOW-24" value="数据处理" style="swimlane;horizontal=0;whiteSpace=wrap;html=1;fillColor=#dae8fc;strokeColor=#6c8ebf;" parent="1" vertex="1">
          <mxGeometry x="-200" y="300" width="440" height="460" as="geometry" />
        </mxCell>
        <mxCell id="ByIDOS2-gOjzDxIdcaOW-2" value="train 训练数据" style="swimlane;whiteSpace=wrap;html=1;fillColor=#b1ddf0;strokeColor=#10739e;" parent="ByIDOS2-gOjzDxIdcaOW-24" vertex="1">
          <mxGeometry x="60" y="30" width="340" height="180" as="geometry" />
        </mxCell>
        <mxCell id="ByIDOS2-gOjzDxIdcaOW-10" value="images" style="swimlane;fontStyle=0;childLayout=stackLayout;horizontal=1;startSize=30;horizontalStack=0;resizeParent=1;resizeParentMax=0;resizeLast=0;collapsible=1;marginBottom=0;whiteSpace=wrap;html=1;fillColor=#ffe6cc;strokeColor=#d79b00;" parent="ByIDOS2-gOjzDxIdcaOW-2" vertex="1">
          <mxGeometry x="20" y="40" width="140" height="120" as="geometry" />
        </mxCell>
        <mxCell id="ByIDOS2-gOjzDxIdcaOW-11" value="Item 1.png" style="text;strokeColor=none;fillColor=none;align=left;verticalAlign=middle;spacingLeft=4;spacingRight=4;overflow=hidden;points=[[0,0.5],[1,0.5]];portConstraint=eastwest;rotatable=0;whiteSpace=wrap;html=1;" parent="ByIDOS2-gOjzDxIdcaOW-10" vertex="1">
          <mxGeometry y="30" width="140" height="30" as="geometry" />
        </mxCell>
        <mxCell id="ByIDOS2-gOjzDxIdcaOW-12" value="Item 2.png" style="text;strokeColor=none;fillColor=none;align=left;verticalAlign=middle;spacingLeft=4;spacingRight=4;overflow=hidden;points=[[0,0.5],[1,0.5]];portConstraint=eastwest;rotatable=0;whiteSpace=wrap;html=1;" parent="ByIDOS2-gOjzDxIdcaOW-10" vertex="1">
          <mxGeometry y="60" width="140" height="30" as="geometry" />
        </mxCell>
        <mxCell id="ByIDOS2-gOjzDxIdcaOW-13" value="Item 3.png" style="text;strokeColor=none;fillColor=none;align=left;verticalAlign=middle;spacingLeft=4;spacingRight=4;overflow=hidden;points=[[0,0.5],[1,0.5]];portConstraint=eastwest;rotatable=0;whiteSpace=wrap;html=1;" parent="ByIDOS2-gOjzDxIdcaOW-10" vertex="1">
          <mxGeometry y="90" width="140" height="30" as="geometry" />
        </mxCell>
        <mxCell id="ByIDOS2-gOjzDxIdcaOW-26" value="labels" style="swimlane;fontStyle=0;childLayout=stackLayout;horizontal=1;startSize=30;horizontalStack=0;resizeParent=1;resizeParentMax=0;resizeLast=0;collapsible=1;marginBottom=0;whiteSpace=wrap;html=1;fillColor=#fff2cc;strokeColor=#d6b656;" parent="ByIDOS2-gOjzDxIdcaOW-2" vertex="1">
          <mxGeometry x="180" y="40" width="140" height="120" as="geometry" />
        </mxCell>
        <mxCell id="ByIDOS2-gOjzDxIdcaOW-27" value="Item 1.txt" style="text;strokeColor=none;fillColor=none;align=left;verticalAlign=middle;spacingLeft=4;spacingRight=4;overflow=hidden;points=[[0,0.5],[1,0.5]];portConstraint=eastwest;rotatable=0;whiteSpace=wrap;html=1;" parent="ByIDOS2-gOjzDxIdcaOW-26" vertex="1">
          <mxGeometry y="30" width="140" height="30" as="geometry" />
        </mxCell>
        <mxCell id="ByIDOS2-gOjzDxIdcaOW-28" value="Item 2.txt" style="text;strokeColor=none;fillColor=none;align=left;verticalAlign=middle;spacingLeft=4;spacingRight=4;overflow=hidden;points=[[0,0.5],[1,0.5]];portConstraint=eastwest;rotatable=0;whiteSpace=wrap;html=1;" parent="ByIDOS2-gOjzDxIdcaOW-26" vertex="1">
          <mxGeometry y="60" width="140" height="30" as="geometry" />
        </mxCell>
        <mxCell id="ByIDOS2-gOjzDxIdcaOW-29" value="Item 3.txt" style="text;strokeColor=none;fillColor=none;align=left;verticalAlign=middle;spacingLeft=4;spacingRight=4;overflow=hidden;points=[[0,0.5],[1,0.5]];portConstraint=eastwest;rotatable=0;whiteSpace=wrap;html=1;" parent="ByIDOS2-gOjzDxIdcaOW-26" vertex="1">
          <mxGeometry y="90" width="140" height="30" as="geometry" />
        </mxCell>
        <mxCell id="ByIDOS2-gOjzDxIdcaOW-30" value="val 验证数据" style="swimlane;whiteSpace=wrap;html=1;startSize=23;fillColor=#bac8d3;strokeColor=#23445d;" parent="ByIDOS2-gOjzDxIdcaOW-24" vertex="1">
          <mxGeometry x="60" y="250" width="340" height="180" as="geometry" />
        </mxCell>
        <mxCell id="ByIDOS2-gOjzDxIdcaOW-31" value="images" style="swimlane;fontStyle=0;childLayout=stackLayout;horizontal=1;startSize=30;horizontalStack=0;resizeParent=1;resizeParentMax=0;resizeLast=0;collapsible=1;marginBottom=0;whiteSpace=wrap;html=1;fillColor=#ffe6cc;strokeColor=#d79b00;" parent="ByIDOS2-gOjzDxIdcaOW-30" vertex="1">
          <mxGeometry x="20" y="40" width="140" height="120" as="geometry" />
        </mxCell>
        <mxCell id="ByIDOS2-gOjzDxIdcaOW-32" value="Item 1.png" style="text;strokeColor=none;fillColor=none;align=left;verticalAlign=middle;spacingLeft=4;spacingRight=4;overflow=hidden;points=[[0,0.5],[1,0.5]];portConstraint=eastwest;rotatable=0;whiteSpace=wrap;html=1;" parent="ByIDOS2-gOjzDxIdcaOW-31" vertex="1">
          <mxGeometry y="30" width="140" height="30" as="geometry" />
        </mxCell>
        <mxCell id="ByIDOS2-gOjzDxIdcaOW-33" value="Item 2.png" style="text;strokeColor=none;fillColor=none;align=left;verticalAlign=middle;spacingLeft=4;spacingRight=4;overflow=hidden;points=[[0,0.5],[1,0.5]];portConstraint=eastwest;rotatable=0;whiteSpace=wrap;html=1;" parent="ByIDOS2-gOjzDxIdcaOW-31" vertex="1">
          <mxGeometry y="60" width="140" height="30" as="geometry" />
        </mxCell>
        <mxCell id="ByIDOS2-gOjzDxIdcaOW-34" value="Item 3.png" style="text;strokeColor=none;fillColor=none;align=left;verticalAlign=middle;spacingLeft=4;spacingRight=4;overflow=hidden;points=[[0,0.5],[1,0.5]];portConstraint=eastwest;rotatable=0;whiteSpace=wrap;html=1;" parent="ByIDOS2-gOjzDxIdcaOW-31" vertex="1">
          <mxGeometry y="90" width="140" height="30" as="geometry" />
        </mxCell>
        <mxCell id="ByIDOS2-gOjzDxIdcaOW-35" value="labels" style="swimlane;fontStyle=0;childLayout=stackLayout;horizontal=1;startSize=30;horizontalStack=0;resizeParent=1;resizeParentMax=0;resizeLast=0;collapsible=1;marginBottom=0;whiteSpace=wrap;html=1;fillColor=#fff2cc;strokeColor=#d6b656;" parent="ByIDOS2-gOjzDxIdcaOW-30" vertex="1">
          <mxGeometry x="180" y="40" width="140" height="120" as="geometry" />
        </mxCell>
        <mxCell id="ByIDOS2-gOjzDxIdcaOW-36" value="Item 1.txt" style="text;strokeColor=none;fillColor=none;align=left;verticalAlign=middle;spacingLeft=4;spacingRight=4;overflow=hidden;points=[[0,0.5],[1,0.5]];portConstraint=eastwest;rotatable=0;whiteSpace=wrap;html=1;" parent="ByIDOS2-gOjzDxIdcaOW-35" vertex="1">
          <mxGeometry y="30" width="140" height="30" as="geometry" />
        </mxCell>
        <mxCell id="ByIDOS2-gOjzDxIdcaOW-37" value="Item 2.txt" style="text;strokeColor=none;fillColor=none;align=left;verticalAlign=middle;spacingLeft=4;spacingRight=4;overflow=hidden;points=[[0,0.5],[1,0.5]];portConstraint=eastwest;rotatable=0;whiteSpace=wrap;html=1;" parent="ByIDOS2-gOjzDxIdcaOW-35" vertex="1">
          <mxGeometry y="60" width="140" height="30" as="geometry" />
        </mxCell>
        <mxCell id="ByIDOS2-gOjzDxIdcaOW-38" value="Item 3.txt" style="text;strokeColor=none;fillColor=none;align=left;verticalAlign=middle;spacingLeft=4;spacingRight=4;overflow=hidden;points=[[0,0.5],[1,0.5]];portConstraint=eastwest;rotatable=0;whiteSpace=wrap;html=1;" parent="ByIDOS2-gOjzDxIdcaOW-35" vertex="1">
          <mxGeometry y="90" width="140" height="30" as="geometry" />
        </mxCell>
        <mxCell id="ByIDOS2-gOjzDxIdcaOW-54" value="Desgin by netkiller - https://www.netkiller.cn" style="text;html=1;align=center;verticalAlign=middle;whiteSpace=wrap;rounded=0;" parent="ByIDOS2-gOjzDxIdcaOW-24" vertex="1">
          <mxGeometry x="60" y="215" width="340" height="30" as="geometry" />
        </mxCell>
        <mxCell id="ByIDOS2-gOjzDxIdcaOW-39" value="输出数据" style="swimlane;horizontal=0;whiteSpace=wrap;html=1;fillColor=#d5e8d4;strokeColor=#82b366;" parent="1" vertex="1">
          <mxGeometry x="280" y="300" width="200" height="460" as="geometry" />
        </mxCell>
        <mxCell id="ByIDOS2-gOjzDxIdcaOW-40" value="data.yaml" style="shape=note;whiteSpace=wrap;html=1;backgroundOutline=1;darkOpacity=0.05;fillColor=#d0cee2;strokeColor=#56517e;" parent="ByIDOS2-gOjzDxIdcaOW-39" vertex="1">
          <mxGeometry x="54" y="30" width="106" height="400" as="geometry" />
        </mxCell>
        <mxCell id="ByIDOS2-gOjzDxIdcaOW-43" value="&lt;h1 style=&quot;margin-top: 0px;&quot;&gt;学习数据处理程序&lt;/h1&gt;&lt;p&gt;学习素材转换为 yolo 数据格式&lt;/p&gt;" style="text;html=1;whiteSpace=wrap;overflow=hidden;rounded=0;" parent="1" vertex="1">
          <mxGeometry x="-760" y="40" width="1240" height="120" as="geometry" />
        </mxCell>
        <mxCell id="PeB-FGqKaeeglwtafQI2-1" value="标注模型" style="swimlane;whiteSpace=wrap;html=1;fillColor=#fad9d5;strokeColor=#ae4132;" vertex="1" parent="1">
          <mxGeometry x="-760" y="120" width="1240" height="140" as="geometry" />
        </mxCell>
        <mxCell id="PeB-FGqKaeeglwtafQI2-2" value="best.pt" style="rounded=1;whiteSpace=wrap;html=1;fillColor=#b0e3e6;strokeColor=#0e8088;" vertex="1" parent="PeB-FGqKaeeglwtafQI2-1">
          <mxGeometry x="40" y="50" width="120" height="60" as="geometry" />
        </mxCell>
        <mxCell id="PeB-FGqKaeeglwtafQI2-3" value="last.pt" style="rounded=1;whiteSpace=wrap;html=1;fillColor=#b1ddf0;strokeColor=#10739e;" vertex="1" parent="PeB-FGqKaeeglwtafQI2-1">
          <mxGeometry x="200" y="50" width="120" height="60" as="geometry" />
        </mxCell>
      </root>
    </mxGraphModel>
  </diagram>
  <diagram name="第 1 页 的副本" id="cOLG3Iwond4x4ssMWmET">
    <mxGraphModel dx="2389" dy="1037" grid="1" gridSize="10" guides="1" tooltips="1" connect="1" arrows="1" fold="1" page="1" pageScale="1" pageWidth="827" pageHeight="1169" math="0" shadow="0">
      <root>
        <mxCell id="eR_ALJL87ujzkRqIvzLz-0" />
        <mxCell id="eR_ALJL87ujzkRqIvzLz-1" parent="eR_ALJL87ujzkRqIvzLz-0" />
        <mxCell id="eR_ALJL87ujzkRqIvzLz-2" style="edgeStyle=orthogonalEdgeStyle;rounded=0;orthogonalLoop=1;jettySize=auto;html=1;" parent="eR_ALJL87ujzkRqIvzLz-1" source="eR_ALJL87ujzkRqIvzLz-3" target="eR_ALJL87ujzkRqIvzLz-21" edge="1">
          <mxGeometry relative="1" as="geometry" />
        </mxCell>
        <mxCell id="eR_ALJL87ujzkRqIvzLz-3" value="输出数据" style="swimlane;horizontal=0;whiteSpace=wrap;html=1;fillColor=#e1d5e7;strokeColor=#9673a6;" parent="eR_ALJL87ujzkRqIvzLz-1" vertex="1">
          <mxGeometry x="-760" y="120" width="520" height="460" as="geometry" />
        </mxCell>
        <mxCell id="eR_ALJL87ujzkRqIvzLz-4" style="edgeStyle=orthogonalEdgeStyle;rounded=0;orthogonalLoop=1;jettySize=auto;html=1;" parent="eR_ALJL87ujzkRqIvzLz-3" source="eR_ALJL87ujzkRqIvzLz-5" target="eR_ALJL87ujzkRqIvzLz-15" edge="1">
          <mxGeometry relative="1" as="geometry" />
        </mxCell>
        <mxCell id="eR_ALJL87ujzkRqIvzLz-5" value="学习素材" style="swimlane;whiteSpace=wrap;html=1;fillColor=#b0e3e6;strokeColor=#0e8088;" parent="eR_ALJL87ujzkRqIvzLz-3" vertex="1">
          <mxGeometry x="60" y="40" width="220" height="380" as="geometry" />
        </mxCell>
        <mxCell id="eR_ALJL87ujzkRqIvzLz-6" value="标签目录" style="swimlane;fontStyle=0;childLayout=stackLayout;horizontal=1;startSize=30;horizontalStack=0;resizeParent=1;resizeParentMax=0;resizeLast=0;collapsible=1;marginBottom=0;whiteSpace=wrap;html=1;fillColor=#cce5ff;strokeColor=#36393d;" parent="eR_ALJL87ujzkRqIvzLz-5" vertex="1">
          <mxGeometry x="40" y="60" width="140" height="120" as="geometry" />
        </mxCell>
        <mxCell id="eR_ALJL87ujzkRqIvzLz-7" value="image1.png" style="text;strokeColor=none;fillColor=none;align=left;verticalAlign=middle;spacingLeft=4;spacingRight=4;overflow=hidden;points=[[0,0.5],[1,0.5]];portConstraint=eastwest;rotatable=0;whiteSpace=wrap;html=1;" parent="eR_ALJL87ujzkRqIvzLz-6" vertex="1">
          <mxGeometry y="30" width="140" height="30" as="geometry" />
        </mxCell>
        <mxCell id="eR_ALJL87ujzkRqIvzLz-8" value="image2.png" style="text;strokeColor=none;fillColor=none;align=left;verticalAlign=middle;spacingLeft=4;spacingRight=4;overflow=hidden;points=[[0,0.5],[1,0.5]];portConstraint=eastwest;rotatable=0;whiteSpace=wrap;html=1;" parent="eR_ALJL87ujzkRqIvzLz-6" vertex="1">
          <mxGeometry y="60" width="140" height="30" as="geometry" />
        </mxCell>
        <mxCell id="eR_ALJL87ujzkRqIvzLz-9" value="image3.png" style="text;strokeColor=none;fillColor=none;align=left;verticalAlign=middle;spacingLeft=4;spacingRight=4;overflow=hidden;points=[[0,0.5],[1,0.5]];portConstraint=eastwest;rotatable=0;whiteSpace=wrap;html=1;" parent="eR_ALJL87ujzkRqIvzLz-6" vertex="1">
          <mxGeometry y="90" width="140" height="30" as="geometry" />
        </mxCell>
        <mxCell id="eR_ALJL87ujzkRqIvzLz-10" value="label1" style="swimlane;fontStyle=0;childLayout=stackLayout;horizontal=1;startSize=30;horizontalStack=0;resizeParent=1;resizeParentMax=0;resizeLast=0;collapsible=1;marginBottom=0;whiteSpace=wrap;html=1;fillColor=#cdeb8b;strokeColor=#36393d;" parent="eR_ALJL87ujzkRqIvzLz-5" vertex="1">
          <mxGeometry x="40" y="220" width="140" height="120" as="geometry" />
        </mxCell>
        <mxCell id="eR_ALJL87ujzkRqIvzLz-11" value="image1.png" style="text;strokeColor=none;fillColor=none;align=left;verticalAlign=middle;spacingLeft=4;spacingRight=4;overflow=hidden;points=[[0,0.5],[1,0.5]];portConstraint=eastwest;rotatable=0;whiteSpace=wrap;html=1;" parent="eR_ALJL87ujzkRqIvzLz-10" vertex="1">
          <mxGeometry y="30" width="140" height="30" as="geometry" />
        </mxCell>
        <mxCell id="eR_ALJL87ujzkRqIvzLz-12" value="image2.png" style="text;strokeColor=none;fillColor=none;align=left;verticalAlign=middle;spacingLeft=4;spacingRight=4;overflow=hidden;points=[[0,0.5],[1,0.5]];portConstraint=eastwest;rotatable=0;whiteSpace=wrap;html=1;" parent="eR_ALJL87ujzkRqIvzLz-10" vertex="1">
          <mxGeometry y="60" width="140" height="30" as="geometry" />
        </mxCell>
        <mxCell id="eR_ALJL87ujzkRqIvzLz-13" value="image(n).png" style="text;strokeColor=none;fillColor=none;align=left;verticalAlign=middle;spacingLeft=4;spacingRight=4;overflow=hidden;points=[[0,0.5],[1,0.5]];portConstraint=eastwest;rotatable=0;whiteSpace=wrap;html=1;" parent="eR_ALJL87ujzkRqIvzLz-10" vertex="1">
          <mxGeometry y="90" width="140" height="30" as="geometry" />
        </mxCell>
        <mxCell id="eR_ALJL87ujzkRqIvzLz-14" style="edgeStyle=orthogonalEdgeStyle;rounded=0;orthogonalLoop=1;jettySize=auto;html=1;" parent="eR_ALJL87ujzkRqIvzLz-3" source="eR_ALJL87ujzkRqIvzLz-15" target="eR_ALJL87ujzkRqIvzLz-17" edge="1">
          <mxGeometry relative="1" as="geometry" />
        </mxCell>
        <mxCell id="eR_ALJL87ujzkRqIvzLz-15" value="处理输入数据" style="rounded=1;whiteSpace=wrap;html=1;fillColor=#fad7ac;strokeColor=#b46504;" parent="eR_ALJL87ujzkRqIvzLz-3" vertex="1">
          <mxGeometry x="360" y="40" width="120" height="60" as="geometry" />
        </mxCell>
        <mxCell id="eR_ALJL87ujzkRqIvzLz-16" style="edgeStyle=orthogonalEdgeStyle;rounded=0;orthogonalLoop=1;jettySize=auto;html=1;" parent="eR_ALJL87ujzkRqIvzLz-3" source="eR_ALJL87ujzkRqIvzLz-17" target="eR_ALJL87ujzkRqIvzLz-18" edge="1">
          <mxGeometry relative="1" as="geometry" />
        </mxCell>
        <mxCell id="eR_ALJL87ujzkRqIvzLz-17" value="扫描目录" style="shape=step;perimeter=stepPerimeter;whiteSpace=wrap;html=1;fixedSize=1;fillColor=#fad9d5;strokeColor=#ae4132;" parent="eR_ALJL87ujzkRqIvzLz-3" vertex="1">
          <mxGeometry x="360" y="160" width="120" height="60" as="geometry" />
        </mxCell>
        <mxCell id="eR_ALJL87ujzkRqIvzLz-18" value="数据结构" style="shape=step;perimeter=stepPerimeter;whiteSpace=wrap;html=1;fixedSize=1;fillColor=#d0cee2;strokeColor=#56517e;" parent="eR_ALJL87ujzkRqIvzLz-3" vertex="1">
          <mxGeometry x="360" y="260" width="120" height="60" as="geometry" />
        </mxCell>
        <mxCell id="eR_ALJL87ujzkRqIvzLz-20" style="edgeStyle=orthogonalEdgeStyle;rounded=0;orthogonalLoop=1;jettySize=auto;html=1;" parent="eR_ALJL87ujzkRqIvzLz-1" source="eR_ALJL87ujzkRqIvzLz-21" target="eR_ALJL87ujzkRqIvzLz-41" edge="1">
          <mxGeometry relative="1" as="geometry" />
        </mxCell>
        <mxCell id="eR_ALJL87ujzkRqIvzLz-21" value="数据处理" style="swimlane;horizontal=0;whiteSpace=wrap;html=1;fillColor=#dae8fc;strokeColor=#6c8ebf;" parent="eR_ALJL87ujzkRqIvzLz-1" vertex="1">
          <mxGeometry x="-200" y="120" width="440" height="460" as="geometry" />
        </mxCell>
        <mxCell id="eR_ALJL87ujzkRqIvzLz-22" value="train 训练数据" style="swimlane;whiteSpace=wrap;html=1;fillColor=#b1ddf0;strokeColor=#10739e;" parent="eR_ALJL87ujzkRqIvzLz-21" vertex="1">
          <mxGeometry x="60" y="30" width="340" height="180" as="geometry" />
        </mxCell>
        <mxCell id="eR_ALJL87ujzkRqIvzLz-23" value="images" style="swimlane;fontStyle=0;childLayout=stackLayout;horizontal=1;startSize=30;horizontalStack=0;resizeParent=1;resizeParentMax=0;resizeLast=0;collapsible=1;marginBottom=0;whiteSpace=wrap;html=1;fillColor=#ffe6cc;strokeColor=#d79b00;" parent="eR_ALJL87ujzkRqIvzLz-22" vertex="1">
          <mxGeometry x="20" y="40" width="140" height="120" as="geometry" />
        </mxCell>
        <mxCell id="eR_ALJL87ujzkRqIvzLz-24" value="Item 1.png" style="text;strokeColor=none;fillColor=none;align=left;verticalAlign=middle;spacingLeft=4;spacingRight=4;overflow=hidden;points=[[0,0.5],[1,0.5]];portConstraint=eastwest;rotatable=0;whiteSpace=wrap;html=1;" parent="eR_ALJL87ujzkRqIvzLz-23" vertex="1">
          <mxGeometry y="30" width="140" height="30" as="geometry" />
        </mxCell>
        <mxCell id="eR_ALJL87ujzkRqIvzLz-25" value="Item 2.png" style="text;strokeColor=none;fillColor=none;align=left;verticalAlign=middle;spacingLeft=4;spacingRight=4;overflow=hidden;points=[[0,0.5],[1,0.5]];portConstraint=eastwest;rotatable=0;whiteSpace=wrap;html=1;" parent="eR_ALJL87ujzkRqIvzLz-23" vertex="1">
          <mxGeometry y="60" width="140" height="30" as="geometry" />
        </mxCell>
        <mxCell id="eR_ALJL87ujzkRqIvzLz-26" value="Item 3.png" style="text;strokeColor=none;fillColor=none;align=left;verticalAlign=middle;spacingLeft=4;spacingRight=4;overflow=hidden;points=[[0,0.5],[1,0.5]];portConstraint=eastwest;rotatable=0;whiteSpace=wrap;html=1;" parent="eR_ALJL87ujzkRqIvzLz-23" vertex="1">
          <mxGeometry y="90" width="140" height="30" as="geometry" />
        </mxCell>
        <mxCell id="eR_ALJL87ujzkRqIvzLz-27" value="labels" style="swimlane;fontStyle=0;childLayout=stackLayout;horizontal=1;startSize=30;horizontalStack=0;resizeParent=1;resizeParentMax=0;resizeLast=0;collapsible=1;marginBottom=0;whiteSpace=wrap;html=1;fillColor=#fff2cc;strokeColor=#d6b656;" parent="eR_ALJL87ujzkRqIvzLz-22" vertex="1">
          <mxGeometry x="180" y="40" width="140" height="120" as="geometry" />
        </mxCell>
        <mxCell id="eR_ALJL87ujzkRqIvzLz-28" value="Item 1.txt" style="text;strokeColor=none;fillColor=none;align=left;verticalAlign=middle;spacingLeft=4;spacingRight=4;overflow=hidden;points=[[0,0.5],[1,0.5]];portConstraint=eastwest;rotatable=0;whiteSpace=wrap;html=1;" parent="eR_ALJL87ujzkRqIvzLz-27" vertex="1">
          <mxGeometry y="30" width="140" height="30" as="geometry" />
        </mxCell>
        <mxCell id="eR_ALJL87ujzkRqIvzLz-29" value="Item 2.txt" style="text;strokeColor=none;fillColor=none;align=left;verticalAlign=middle;spacingLeft=4;spacingRight=4;overflow=hidden;points=[[0,0.5],[1,0.5]];portConstraint=eastwest;rotatable=0;whiteSpace=wrap;html=1;" parent="eR_ALJL87ujzkRqIvzLz-27" vertex="1">
          <mxGeometry y="60" width="140" height="30" as="geometry" />
        </mxCell>
        <mxCell id="eR_ALJL87ujzkRqIvzLz-30" value="Item 3.txt" style="text;strokeColor=none;fillColor=none;align=left;verticalAlign=middle;spacingLeft=4;spacingRight=4;overflow=hidden;points=[[0,0.5],[1,0.5]];portConstraint=eastwest;rotatable=0;whiteSpace=wrap;html=1;" parent="eR_ALJL87ujzkRqIvzLz-27" vertex="1">
          <mxGeometry y="90" width="140" height="30" as="geometry" />
        </mxCell>
        <mxCell id="eR_ALJL87ujzkRqIvzLz-31" value="val 验证数据" style="swimlane;whiteSpace=wrap;html=1;startSize=23;fillColor=#bac8d3;strokeColor=#23445d;" parent="eR_ALJL87ujzkRqIvzLz-21" vertex="1">
          <mxGeometry x="60" y="250" width="340" height="180" as="geometry" />
        </mxCell>
        <mxCell id="eR_ALJL87ujzkRqIvzLz-32" value="images" style="swimlane;fontStyle=0;childLayout=stackLayout;horizontal=1;startSize=30;horizontalStack=0;resizeParent=1;resizeParentMax=0;resizeLast=0;collapsible=1;marginBottom=0;whiteSpace=wrap;html=1;fillColor=#ffe6cc;strokeColor=#d79b00;" parent="eR_ALJL87ujzkRqIvzLz-31" vertex="1">
          <mxGeometry x="20" y="40" width="140" height="120" as="geometry" />
        </mxCell>
        <mxCell id="eR_ALJL87ujzkRqIvzLz-33" value="Item 1.png" style="text;strokeColor=none;fillColor=none;align=left;verticalAlign=middle;spacingLeft=4;spacingRight=4;overflow=hidden;points=[[0,0.5],[1,0.5]];portConstraint=eastwest;rotatable=0;whiteSpace=wrap;html=1;" parent="eR_ALJL87ujzkRqIvzLz-32" vertex="1">
          <mxGeometry y="30" width="140" height="30" as="geometry" />
        </mxCell>
        <mxCell id="eR_ALJL87ujzkRqIvzLz-34" value="Item 2.png" style="text;strokeColor=none;fillColor=none;align=left;verticalAlign=middle;spacingLeft=4;spacingRight=4;overflow=hidden;points=[[0,0.5],[1,0.5]];portConstraint=eastwest;rotatable=0;whiteSpace=wrap;html=1;" parent="eR_ALJL87ujzkRqIvzLz-32" vertex="1">
          <mxGeometry y="60" width="140" height="30" as="geometry" />
        </mxCell>
        <mxCell id="eR_ALJL87ujzkRqIvzLz-35" value="Item 3.png" style="text;strokeColor=none;fillColor=none;align=left;verticalAlign=middle;spacingLeft=4;spacingRight=4;overflow=hidden;points=[[0,0.5],[1,0.5]];portConstraint=eastwest;rotatable=0;whiteSpace=wrap;html=1;" parent="eR_ALJL87ujzkRqIvzLz-32" vertex="1">
          <mxGeometry y="90" width="140" height="30" as="geometry" />
        </mxCell>
        <mxCell id="eR_ALJL87ujzkRqIvzLz-36" value="labels" style="swimlane;fontStyle=0;childLayout=stackLayout;horizontal=1;startSize=30;horizontalStack=0;resizeParent=1;resizeParentMax=0;resizeLast=0;collapsible=1;marginBottom=0;whiteSpace=wrap;html=1;fillColor=#fff2cc;strokeColor=#d6b656;" parent="eR_ALJL87ujzkRqIvzLz-31" vertex="1">
          <mxGeometry x="180" y="40" width="140" height="120" as="geometry" />
        </mxCell>
        <mxCell id="eR_ALJL87ujzkRqIvzLz-37" value="Item 1.txt" style="text;strokeColor=none;fillColor=none;align=left;verticalAlign=middle;spacingLeft=4;spacingRight=4;overflow=hidden;points=[[0,0.5],[1,0.5]];portConstraint=eastwest;rotatable=0;whiteSpace=wrap;html=1;" parent="eR_ALJL87ujzkRqIvzLz-36" vertex="1">
          <mxGeometry y="30" width="140" height="30" as="geometry" />
        </mxCell>
        <mxCell id="eR_ALJL87ujzkRqIvzLz-38" value="Item 2.txt" style="text;strokeColor=none;fillColor=none;align=left;verticalAlign=middle;spacingLeft=4;spacingRight=4;overflow=hidden;points=[[0,0.5],[1,0.5]];portConstraint=eastwest;rotatable=0;whiteSpace=wrap;html=1;" parent="eR_ALJL87ujzkRqIvzLz-36" vertex="1">
          <mxGeometry y="60" width="140" height="30" as="geometry" />
        </mxCell>
        <mxCell id="eR_ALJL87ujzkRqIvzLz-39" value="Item 3.txt" style="text;strokeColor=none;fillColor=none;align=left;verticalAlign=middle;spacingLeft=4;spacingRight=4;overflow=hidden;points=[[0,0.5],[1,0.5]];portConstraint=eastwest;rotatable=0;whiteSpace=wrap;html=1;" parent="eR_ALJL87ujzkRqIvzLz-36" vertex="1">
          <mxGeometry y="90" width="140" height="30" as="geometry" />
        </mxCell>
        <mxCell id="eR_ALJL87ujzkRqIvzLz-41" value="输出数据" style="swimlane;horizontal=0;whiteSpace=wrap;html=1;fillColor=#d5e8d4;strokeColor=#82b366;" parent="eR_ALJL87ujzkRqIvzLz-1" vertex="1">
          <mxGeometry x="280" y="120" width="200" height="460" as="geometry" />
        </mxCell>
        <mxCell id="eR_ALJL87ujzkRqIvzLz-42" value="data.yaml" style="shape=note;whiteSpace=wrap;html=1;backgroundOutline=1;darkOpacity=0.05;fillColor=#d0cee2;strokeColor=#56517e;" parent="eR_ALJL87ujzkRqIvzLz-41" vertex="1">
          <mxGeometry x="54" y="30" width="106" height="400" as="geometry" />
        </mxCell>
        <mxCell id="eR_ALJL87ujzkRqIvzLz-43" value="&lt;h1 style=&quot;margin-top: 0px;&quot;&gt;学习数据处理程序&lt;/h1&gt;&lt;p&gt;学习素材转换为 yolo 数据格式&lt;/p&gt;" style="text;html=1;whiteSpace=wrap;overflow=hidden;rounded=0;" parent="eR_ALJL87ujzkRqIvzLz-1" vertex="1">
          <mxGeometry x="-760" y="40" width="1240" height="120" as="geometry" />
        </mxCell>
      </root>
    </mxGraphModel>
  </diagram>
  <diagram id="vuQqh3GSPo777biKYvUQ" name="timeline">
    <mxGraphModel dx="1007" dy="1386" grid="1" gridSize="10" guides="1" tooltips="1" connect="1" arrows="1" fold="1" page="1" pageScale="1" pageWidth="827" pageHeight="1169" math="0" shadow="0">
      <root>
        <mxCell id="0" />
        <mxCell id="1" parent="0" />
        <mxCell id="gbIsVX4wttsSIl1Q2_T3-2" value="" style="endArrow=classic;html=1;rounded=0;strokeWidth=3;" parent="1" edge="1">
          <mxGeometry width="50" height="50" relative="1" as="geometry">
            <mxPoint x="40" y="190" as="sourcePoint" />
            <mxPoint x="1306" y="190" as="targetPoint" />
          </mxGeometry>
        </mxCell>
        <mxCell id="gbIsVX4wttsSIl1Q2_T3-5" value="LeNet" style="shape=callout;whiteSpace=wrap;html=1;perimeter=calloutPerimeter;position2=0.5;base=20;size=40;position=0.38;" parent="1" vertex="1">
          <mxGeometry x="40" y="100" width="80" height="80" as="geometry" />
        </mxCell>
        <mxCell id="gbIsVX4wttsSIl1Q2_T3-6" value="AlexNet" style="shape=callout;whiteSpace=wrap;html=1;perimeter=calloutPerimeter;position2=0.5;base=20;size=40;position=0.38;" parent="1" vertex="1">
          <mxGeometry x="140" y="100" width="80" height="80" as="geometry" />
        </mxCell>
        <mxCell id="gbIsVX4wttsSIl1Q2_T3-7" value="VGG" style="shape=callout;whiteSpace=wrap;html=1;perimeter=calloutPerimeter;position2=0.5;base=20;size=40;position=0.38;" parent="1" vertex="1">
          <mxGeometry x="240" y="100" width="80" height="80" as="geometry" />
        </mxCell>
        <mxCell id="gbIsVX4wttsSIl1Q2_T3-8" value="ResNet" style="shape=callout;whiteSpace=wrap;html=1;perimeter=calloutPerimeter;position2=0.5;base=20;size=40;position=0.38;" parent="1" vertex="1">
          <mxGeometry x="340" y="100" width="80" height="80" as="geometry" />
        </mxCell>
        <mxCell id="gbIsVX4wttsSIl1Q2_T3-9" value="SqueezeNet&lt;div&gt;Yolo v1&lt;/div&gt;" style="shape=callout;whiteSpace=wrap;html=1;perimeter=calloutPerimeter;position2=0.5;base=20;size=40;position=0.38;" parent="1" vertex="1">
          <mxGeometry x="440" y="100" width="80" height="80" as="geometry" />
        </mxCell>
        <mxCell id="gbIsVX4wttsSIl1Q2_T3-10" value="&lt;div&gt;MobileNet v1&lt;/div&gt;SqueezeNet&lt;div&gt;YOLOv2&lt;/div&gt;" style="shape=callout;whiteSpace=wrap;html=1;perimeter=calloutPerimeter;position2=0.5;base=20;size=40;position=0.38;" parent="1" vertex="1">
          <mxGeometry x="540" y="80" width="80" height="100" as="geometry" />
        </mxCell>
        <mxCell id="gbIsVX4wttsSIl1Q2_T3-11" value="1998" style="text;html=1;align=center;verticalAlign=middle;whiteSpace=wrap;rounded=0;" parent="1" vertex="1">
          <mxGeometry x="50" y="200" width="60" height="30" as="geometry" />
        </mxCell>
        <mxCell id="gbIsVX4wttsSIl1Q2_T3-12" value="2012" style="text;html=1;align=center;verticalAlign=middle;whiteSpace=wrap;rounded=0;" parent="1" vertex="1">
          <mxGeometry x="150" y="200" width="60" height="30" as="geometry" />
        </mxCell>
        <mxCell id="gbIsVX4wttsSIl1Q2_T3-13" value="2014" style="text;html=1;align=center;verticalAlign=middle;whiteSpace=wrap;rounded=0;" parent="1" vertex="1">
          <mxGeometry x="250" y="200" width="60" height="30" as="geometry" />
        </mxCell>
        <mxCell id="gbIsVX4wttsSIl1Q2_T3-14" value="2015" style="text;html=1;align=center;verticalAlign=middle;whiteSpace=wrap;rounded=0;" parent="1" vertex="1">
          <mxGeometry x="350" y="200" width="60" height="30" as="geometry" />
        </mxCell>
        <mxCell id="gbIsVX4wttsSIl1Q2_T3-15" value="2016" style="text;html=1;align=center;verticalAlign=middle;whiteSpace=wrap;rounded=0;" parent="1" vertex="1">
          <mxGeometry x="450" y="200" width="60" height="30" as="geometry" />
        </mxCell>
        <mxCell id="gbIsVX4wttsSIl1Q2_T3-16" value="&lt;div&gt;MobileNet v2&lt;/div&gt;NASNet&lt;div&gt;YOLOv3&lt;/div&gt;" style="shape=callout;whiteSpace=wrap;html=1;perimeter=calloutPerimeter;position2=0.5;base=20;size=40;position=0.38;" parent="1" vertex="1">
          <mxGeometry x="640" y="80" width="80" height="100" as="geometry" />
        </mxCell>
        <mxCell id="gbIsVX4wttsSIl1Q2_T3-17" value="&lt;div&gt;MobileNet v3&lt;/div&gt;MnasNet" style="shape=callout;whiteSpace=wrap;html=1;perimeter=calloutPerimeter;position2=0.5;base=20;size=40;position=0.38;" parent="1" vertex="1">
          <mxGeometry x="740" y="100" width="80" height="80" as="geometry" />
        </mxCell>
        <mxCell id="gbIsVX4wttsSIl1Q2_T3-18" value="2017" style="text;html=1;align=center;verticalAlign=middle;whiteSpace=wrap;rounded=0;" parent="1" vertex="1">
          <mxGeometry x="550" y="200" width="60" height="30" as="geometry" />
        </mxCell>
        <mxCell id="gbIsVX4wttsSIl1Q2_T3-19" value="2018" style="text;html=1;align=center;verticalAlign=middle;whiteSpace=wrap;rounded=0;" parent="1" vertex="1">
          <mxGeometry x="650" y="200" width="60" height="30" as="geometry" />
        </mxCell>
        <mxCell id="gbIsVX4wttsSIl1Q2_T3-20" value="2019" style="text;html=1;align=center;verticalAlign=middle;whiteSpace=wrap;rounded=0;" parent="1" vertex="1">
          <mxGeometry x="750" y="200" width="60" height="30" as="geometry" />
        </mxCell>
        <mxCell id="gbIsVX4wttsSIl1Q2_T3-21" value="YOLOv4&lt;div&gt;&lt;/div&gt;&lt;div&gt;YOLOv5&lt;span style=&quot;text-wrap: nowrap; color: rgba(0, 0, 0, 0); font-family: monospace; font-size: 0px; text-align: start;&quot;&gt;%3CmxGraphModel%3E%3Croot%3E%3CmxCell%20id%3D%220%22%2F%3E%3CmxCell%20id%3D%221%22%20parent%3D%220%22%2F%3E%3CmxCell%20id%3D%222%22%20value%3D%22YOLOv4%26lt%3Bdiv%26gt%3B%26lt%3B%2Fdiv%26gt%3B%22%20style%3D%22shape%3Dcallout%3BwhiteSpace%3Dwrap%3Bhtml%3D1%3Bperimeter%3DcalloutPerimeter%3Bposition2%3D0.5%3Bbase%3D20%3Bsize%3D40%3Bposition%3D0.38%3B%22%20vertex%3D%221%22%20parent%3D%221%22%3E%3CmxGeometry%20x%3D%22840%22%20y%3D%2240%22%20width%3D%2280%22%20height%3D%2280%22%20as%3D%22geometry%22%2F%3E%3C%2FmxCell%3E%3C%2Froot%3E%3C%2FmxGraphModel%3E&lt;/span&gt;&lt;br&gt;&lt;/div&gt;" style="shape=callout;whiteSpace=wrap;html=1;perimeter=calloutPerimeter;position2=0.5;base=20;size=40;position=0.38;" parent="1" vertex="1">
          <mxGeometry x="840" y="100" width="80" height="80" as="geometry" />
        </mxCell>
        <mxCell id="gbIsVX4wttsSIl1Q2_T3-22" value="2020" style="text;html=1;align=center;verticalAlign=middle;whiteSpace=wrap;rounded=0;" parent="1" vertex="1">
          <mxGeometry x="850" y="200" width="60" height="30" as="geometry" />
        </mxCell>
        <mxCell id="gbIsVX4wttsSIl1Q2_T3-23" value="YOLOv6&lt;div&gt;&lt;/div&gt;&lt;div&gt;YOLOv7&lt;br&gt;&lt;/div&gt;" style="shape=callout;whiteSpace=wrap;html=1;perimeter=calloutPerimeter;position2=0.5;base=20;size=40;position=0.38;" parent="1" vertex="1">
          <mxGeometry x="940" y="100" width="80" height="80" as="geometry" />
        </mxCell>
        <mxCell id="gbIsVX4wttsSIl1Q2_T3-24" value="2022" style="text;html=1;align=center;verticalAlign=middle;whiteSpace=wrap;rounded=0;" parent="1" vertex="1">
          <mxGeometry x="950" y="200" width="60" height="30" as="geometry" />
        </mxCell>
        <mxCell id="gbIsVX4wttsSIl1Q2_T3-25" value="YOLOv8&lt;div&gt;&lt;/div&gt;" style="shape=callout;whiteSpace=wrap;html=1;perimeter=calloutPerimeter;position2=0.5;base=20;size=40;position=0.38;" parent="1" vertex="1">
          <mxGeometry x="1040" y="100" width="80" height="80" as="geometry" />
        </mxCell>
        <mxCell id="gbIsVX4wttsSIl1Q2_T3-26" value="2023" style="text;html=1;align=center;verticalAlign=middle;whiteSpace=wrap;rounded=0;" parent="1" vertex="1">
          <mxGeometry x="1050" y="200" width="60" height="30" as="geometry" />
        </mxCell>
        <mxCell id="gbIsVX4wttsSIl1Q2_T3-27" value="YOLOv9&lt;div&gt;&lt;/div&gt;&lt;div&gt;YOLOv10&lt;br&gt;&lt;/div&gt;&lt;div&gt;YOLOv11&lt;br&gt;&lt;/div&gt;" style="shape=callout;whiteSpace=wrap;html=1;perimeter=calloutPerimeter;position2=0.5;base=20;size=40;position=0.38;" parent="1" vertex="1">
          <mxGeometry x="1140" y="90" width="80" height="90" as="geometry" />
        </mxCell>
        <mxCell id="gbIsVX4wttsSIl1Q2_T3-28" value="2024" style="text;html=1;align=center;verticalAlign=middle;whiteSpace=wrap;rounded=0;" parent="1" vertex="1">
          <mxGeometry x="1150" y="200" width="60" height="30" as="geometry" />
        </mxCell>
        <mxCell id="gbIsVX4wttsSIl1Q2_T3-29" value="Text" style="text;html=1;align=center;verticalAlign=middle;whiteSpace=wrap;rounded=0;" parent="1" vertex="1">
          <mxGeometry x="190" y="160" width="60" height="30" as="geometry" />
        </mxCell>
        <mxCell id="gbIsVX4wttsSIl1Q2_T3-30" value="&lt;h1 style=&quot;margin-top: 0px;&quot;&gt;卷积神经网络模型·时间线&lt;/h1&gt;&lt;p&gt;Design by netkiller - https://www.netkiller.cn&lt;/p&gt;" style="text;html=1;whiteSpace=wrap;overflow=hidden;rounded=0;" parent="1" vertex="1">
          <mxGeometry x="40" y="20" width="480" height="120" as="geometry" />
        </mxCell>
      </root>
    </mxGraphModel>
  </diagram>
  <diagram id="pwCpA7zWWHpSBpda9vH8" name="第 4 页">
    <mxGraphModel dx="1007" dy="1386" grid="1" gridSize="10" guides="1" tooltips="1" connect="1" arrows="1" fold="1" page="1" pageScale="1" pageWidth="827" pageHeight="1169" math="0" shadow="0">
      <root>
        <mxCell id="0" />
        <mxCell id="1" parent="0" />
        <mxCell id="D0iorIK5OGNQY2wspsCc-3" value="" style="rounded=0;orthogonalLoop=1;jettySize=auto;html=1;" parent="1" source="D0iorIK5OGNQY2wspsCc-1" target="D0iorIK5OGNQY2wspsCc-2" edge="1">
          <mxGeometry relative="1" as="geometry" />
        </mxCell>
        <mxCell id="D0iorIK5OGNQY2wspsCc-25" style="rounded=0;orthogonalLoop=1;jettySize=auto;html=1;" parent="1" source="D0iorIK5OGNQY2wspsCc-1" target="D0iorIK5OGNQY2wspsCc-10" edge="1">
          <mxGeometry relative="1" as="geometry" />
        </mxCell>
        <mxCell id="D0iorIK5OGNQY2wspsCc-28" value="心脑血管" style="edgeLabel;html=1;align=center;verticalAlign=middle;resizable=0;points=[];" parent="D0iorIK5OGNQY2wspsCc-25" vertex="1" connectable="0">
          <mxGeometry x="0.0618" y="3" relative="1" as="geometry">
            <mxPoint as="offset" />
          </mxGeometry>
        </mxCell>
        <mxCell id="D0iorIK5OGNQY2wspsCc-1" value="心脑血管舌头图像 👅" style="rounded=1;whiteSpace=wrap;html=1;" parent="1" vertex="1">
          <mxGeometry x="400" y="360" width="120" height="60" as="geometry" />
        </mxCell>
        <mxCell id="D0iorIK5OGNQY2wspsCc-8" style="edgeStyle=orthogonalEdgeStyle;rounded=0;orthogonalLoop=1;jettySize=auto;html=1;" parent="1" source="D0iorIK5OGNQY2wspsCc-2" edge="1">
          <mxGeometry relative="1" as="geometry">
            <mxPoint x="720" y="530" as="targetPoint" />
          </mxGeometry>
        </mxCell>
        <mxCell id="D0iorIK5OGNQY2wspsCc-2" value="YOLO11" style="rounded=1;whiteSpace=wrap;html=1;" parent="1" vertex="1">
          <mxGeometry x="560" y="500" width="120" height="60" as="geometry" />
        </mxCell>
        <mxCell id="D0iorIK5OGNQY2wspsCc-9" value="多分类" style="swimlane;fontStyle=0;childLayout=stackLayout;horizontal=1;startSize=30;horizontalStack=0;resizeParent=1;resizeParentMax=0;resizeLast=0;collapsible=1;marginBottom=0;whiteSpace=wrap;html=1;" parent="1" vertex="1">
          <mxGeometry x="960" y="470" width="140" height="120" as="geometry" />
        </mxCell>
        <mxCell id="D0iorIK5OGNQY2wspsCc-10" value="抑郁症" style="text;strokeColor=none;fillColor=none;align=left;verticalAlign=middle;spacingLeft=4;spacingRight=4;overflow=hidden;points=[[0,0.5],[1,0.5]];portConstraint=eastwest;rotatable=0;whiteSpace=wrap;html=1;" parent="D0iorIK5OGNQY2wspsCc-9" vertex="1">
          <mxGeometry y="30" width="140" height="30" as="geometry" />
        </mxCell>
        <mxCell id="D0iorIK5OGNQY2wspsCc-11" value="心脑血管" style="text;strokeColor=none;fillColor=none;align=left;verticalAlign=middle;spacingLeft=4;spacingRight=4;overflow=hidden;points=[[0,0.5],[1,0.5]];portConstraint=eastwest;rotatable=0;whiteSpace=wrap;html=1;" parent="D0iorIK5OGNQY2wspsCc-9" vertex="1">
          <mxGeometry y="60" width="140" height="30" as="geometry" />
        </mxCell>
        <mxCell id="D0iorIK5OGNQY2wspsCc-12" value="其他" style="text;strokeColor=none;fillColor=none;align=left;verticalAlign=middle;spacingLeft=4;spacingRight=4;overflow=hidden;points=[[0,0.5],[1,0.5]];portConstraint=eastwest;rotatable=0;whiteSpace=wrap;html=1;" parent="D0iorIK5OGNQY2wspsCc-9" vertex="1">
          <mxGeometry y="90" width="140" height="30" as="geometry" />
        </mxCell>
        <mxCell id="D0iorIK5OGNQY2wspsCc-16" value="0～1 置信度，诊断结果" style="rounded=1;whiteSpace=wrap;html=1;" parent="1" vertex="1">
          <mxGeometry x="1160" y="460" width="160" height="40" as="geometry" />
        </mxCell>
        <mxCell id="D0iorIK5OGNQY2wspsCc-17" style="rounded=0;orthogonalLoop=1;jettySize=auto;html=1;" parent="1" source="D0iorIK5OGNQY2wspsCc-10" target="D0iorIK5OGNQY2wspsCc-16" edge="1">
          <mxGeometry relative="1" as="geometry" />
        </mxCell>
        <mxCell id="D0iorIK5OGNQY2wspsCc-18" value="0～1 置信度，诊断结果" style="rounded=1;whiteSpace=wrap;html=1;" parent="1" vertex="1">
          <mxGeometry x="1160" y="520" width="160" height="40" as="geometry" />
        </mxCell>
        <mxCell id="D0iorIK5OGNQY2wspsCc-19" value="0～1 置信度，诊断结果" style="rounded=1;whiteSpace=wrap;html=1;" parent="1" vertex="1">
          <mxGeometry x="1161" y="580" width="160" height="40" as="geometry" />
        </mxCell>
        <mxCell id="D0iorIK5OGNQY2wspsCc-20" style="rounded=0;orthogonalLoop=1;jettySize=auto;html=1;" parent="1" source="D0iorIK5OGNQY2wspsCc-11" target="D0iorIK5OGNQY2wspsCc-18" edge="1">
          <mxGeometry relative="1" as="geometry" />
        </mxCell>
        <mxCell id="D0iorIK5OGNQY2wspsCc-21" style="rounded=0;orthogonalLoop=1;jettySize=auto;html=1;" parent="1" source="D0iorIK5OGNQY2wspsCc-12" target="D0iorIK5OGNQY2wspsCc-19" edge="1">
          <mxGeometry relative="1" as="geometry" />
        </mxCell>
        <mxCell id="D0iorIK5OGNQY2wspsCc-23" style="rounded=0;orthogonalLoop=1;jettySize=auto;html=1;" parent="1" source="D0iorIK5OGNQY2wspsCc-22" target="D0iorIK5OGNQY2wspsCc-2" edge="1">
          <mxGeometry relative="1" as="geometry" />
        </mxCell>
        <mxCell id="D0iorIK5OGNQY2wspsCc-27" style="rounded=0;orthogonalLoop=1;jettySize=auto;html=1;" parent="1" source="D0iorIK5OGNQY2wspsCc-22" target="D0iorIK5OGNQY2wspsCc-12" edge="1">
          <mxGeometry relative="1" as="geometry" />
        </mxCell>
        <mxCell id="D0iorIK5OGNQY2wspsCc-29" value="抑郁症" style="edgeLabel;html=1;align=center;verticalAlign=middle;resizable=0;points=[];" parent="D0iorIK5OGNQY2wspsCc-27" vertex="1" connectable="0">
          <mxGeometry x="0.0918" y="2" relative="1" as="geometry">
            <mxPoint as="offset" />
          </mxGeometry>
        </mxCell>
        <mxCell id="D0iorIK5OGNQY2wspsCc-22" value="抑郁症舌头图像 👅" style="rounded=1;whiteSpace=wrap;html=1;" parent="1" vertex="1">
          <mxGeometry x="400" y="620" width="120" height="60" as="geometry" />
        </mxCell>
        <mxCell id="D0iorIK5OGNQY2wspsCc-26" style="edgeStyle=orthogonalEdgeStyle;rounded=0;orthogonalLoop=1;jettySize=auto;html=1;" parent="1" source="D0iorIK5OGNQY2wspsCc-24" target="D0iorIK5OGNQY2wspsCc-9" edge="1">
          <mxGeometry relative="1" as="geometry" />
        </mxCell>
        <mxCell id="D0iorIK5OGNQY2wspsCc-24" value="舌头&lt;div&gt;boxes&lt;/div&gt;" style="rounded=1;whiteSpace=wrap;html=1;" parent="1" vertex="1">
          <mxGeometry x="720" y="500" width="120" height="60" as="geometry" />
        </mxCell>
      </root>
    </mxGraphModel>
  </diagram>
  <diagram id="bsprhXmIqBHljDsiIdFf" name="Labelimg2yolo">
    <mxGraphModel dx="2522" dy="1519" grid="1" gridSize="10" guides="1" tooltips="1" connect="1" arrows="1" fold="1" page="1" pageScale="1" pageWidth="827" pageHeight="1169" math="0" shadow="0">
      <root>
        <mxCell id="0" />
        <mxCell id="1" parent="0" />
        <mxCell id="OwOpfyMHlR8jZyyGr9ep-15" style="edgeStyle=orthogonalEdgeStyle;rounded=0;orthogonalLoop=1;jettySize=auto;html=1;" parent="1" source="OwOpfyMHlR8jZyyGr9ep-16" target="OwOpfyMHlR8jZyyGr9ep-24" edge="1">
          <mxGeometry relative="1" as="geometry">
            <mxPoint x="340" y="190" as="targetPoint" />
          </mxGeometry>
        </mxCell>
        <mxCell id="OwOpfyMHlR8jZyyGr9ep-16" value="Labelimg 目录" style="swimlane;fontStyle=0;childLayout=stackLayout;horizontal=1;startSize=30;horizontalStack=0;resizeParent=1;resizeParentMax=0;resizeLast=0;collapsible=1;marginBottom=0;whiteSpace=wrap;html=1;" parent="1" vertex="1">
          <mxGeometry x="40" y="120" width="140" height="120" as="geometry" />
        </mxCell>
        <mxCell id="OwOpfyMHlR8jZyyGr9ep-17" value="*.jpg 图片" style="text;strokeColor=none;fillColor=none;align=left;verticalAlign=middle;spacingLeft=4;spacingRight=4;overflow=hidden;points=[[0,0.5],[1,0.5]];portConstraint=eastwest;rotatable=0;whiteSpace=wrap;html=1;" parent="OwOpfyMHlR8jZyyGr9ep-16" vertex="1">
          <mxGeometry y="30" width="140" height="30" as="geometry" />
        </mxCell>
        <mxCell id="OwOpfyMHlR8jZyyGr9ep-18" value="*.txt 标签" style="text;strokeColor=none;fillColor=none;align=left;verticalAlign=middle;spacingLeft=4;spacingRight=4;overflow=hidden;points=[[0,0.5],[1,0.5]];portConstraint=eastwest;rotatable=0;whiteSpace=wrap;html=1;" parent="OwOpfyMHlR8jZyyGr9ep-16" vertex="1">
          <mxGeometry y="60" width="140" height="30" as="geometry" />
        </mxCell>
        <mxCell id="OwOpfyMHlR8jZyyGr9ep-19" value="classes.txt 表现分类" style="text;strokeColor=none;fillColor=none;align=left;verticalAlign=middle;spacingLeft=4;spacingRight=4;overflow=hidden;points=[[0,0.5],[1,0.5]];portConstraint=eastwest;rotatable=0;whiteSpace=wrap;html=1;" parent="OwOpfyMHlR8jZyyGr9ep-16" vertex="1">
          <mxGeometry y="90" width="140" height="30" as="geometry" />
        </mxCell>
        <mxCell id="OwOpfyMHlR8jZyyGr9ep-21" value="YOLO 数据集" style="rounded=1;whiteSpace=wrap;html=1;" parent="1" vertex="1">
          <mxGeometry x="910" y="150" width="120" height="60" as="geometry" />
        </mxCell>
        <mxCell id="OwOpfyMHlR8jZyyGr9ep-23" value="" style="edgeStyle=orthogonalEdgeStyle;rounded=0;orthogonalLoop=1;jettySize=auto;html=1;" parent="1" source="OwOpfyMHlR8jZyyGr9ep-24" target="OwOpfyMHlR8jZyyGr9ep-26" edge="1">
          <mxGeometry relative="1" as="geometry" />
        </mxCell>
        <mxCell id="OwOpfyMHlR8jZyyGr9ep-24" value="输入&lt;div&gt;初始化操作&lt;/div&gt;" style="shape=step;perimeter=stepPerimeter;whiteSpace=wrap;html=1;fixedSize=1;" parent="1" vertex="1">
          <mxGeometry x="240" y="140" width="120" height="80" as="geometry" />
        </mxCell>
        <mxCell id="OwOpfyMHlR8jZyyGr9ep-25" value="" style="edgeStyle=orthogonalEdgeStyle;rounded=0;orthogonalLoop=1;jettySize=auto;html=1;" parent="1" source="OwOpfyMHlR8jZyyGr9ep-26" target="OwOpfyMHlR8jZyyGr9ep-28" edge="1">
          <mxGeometry relative="1" as="geometry" />
        </mxCell>
        <mxCell id="OwOpfyMHlR8jZyyGr9ep-26" value="&lt;div&gt;处理&lt;/div&gt;&lt;div&gt;&lt;span style=&quot;background-color: initial;&quot;&gt;1.复制 train *.txt&lt;/span&gt;&lt;/div&gt;&lt;div&gt;&lt;span style=&quot;background-color: initial;&quot;&gt;2. 复制 train *.jpg&lt;/span&gt;&lt;/div&gt;&lt;div&gt;&lt;span style=&quot;background-color: initial;&quot;&gt;3. 复制 val *.txt&lt;/span&gt;&lt;/div&gt;&lt;div&gt;&lt;span style=&quot;background-color: initial;&quot;&gt;4. 复制 va *.jpg&lt;/span&gt;&lt;/div&gt;" style="shape=step;perimeter=stepPerimeter;whiteSpace=wrap;html=1;fixedSize=1;" parent="1" vertex="1">
          <mxGeometry x="390" y="120" width="150" height="120" as="geometry" />
        </mxCell>
        <mxCell id="OwOpfyMHlR8jZyyGr9ep-27" style="edgeStyle=orthogonalEdgeStyle;rounded=0;orthogonalLoop=1;jettySize=auto;html=1;" parent="1" source="OwOpfyMHlR8jZyyGr9ep-28" target="OwOpfyMHlR8jZyyGr9ep-21" edge="1">
          <mxGeometry relative="1" as="geometry" />
        </mxCell>
        <mxCell id="OwOpfyMHlR8jZyyGr9ep-54" value="" style="edgeStyle=orthogonalEdgeStyle;rounded=0;orthogonalLoop=1;jettySize=auto;html=1;" parent="1" source="OwOpfyMHlR8jZyyGr9ep-28" target="OwOpfyMHlR8jZyyGr9ep-53" edge="1">
          <mxGeometry relative="1" as="geometry" />
        </mxCell>
        <mxCell id="OwOpfyMHlR8jZyyGr9ep-28" value="&lt;div&gt;输出&lt;/div&gt;&lt;div&gt;&lt;span style=&quot;background-color: initial;&quot;&gt;data.yaml&lt;br&gt;&lt;/span&gt;&lt;/div&gt;" style="shape=step;perimeter=stepPerimeter;whiteSpace=wrap;html=1;fixedSize=1;" parent="1" vertex="1">
          <mxGeometry x="570" y="140" width="130" height="80" as="geometry" />
        </mxCell>
        <mxCell id="OwOpfyMHlR8jZyyGr9ep-53" value="&lt;div&gt;&lt;span style=&quot;background-color: initial;&quot;&gt;打印统计报告&lt;/span&gt;&lt;br&gt;&lt;/div&gt;" style="shape=step;perimeter=stepPerimeter;whiteSpace=wrap;html=1;fixedSize=1;" parent="1" vertex="1">
          <mxGeometry x="740" y="140" width="130" height="80" as="geometry" />
        </mxCell>
        <mxCell id="OwOpfyMHlR8jZyyGr9ep-55" value="&lt;h1 style=&quot;margin-top: 0px;&quot;&gt;YOLO 工具 labelimg2yolo - Design by netkiller - https://www.netkiller.cn&lt;/h1&gt;&lt;p&gt;转换 labelimg 为 yolo 格式，生成 data.yaml 处理 val 所需文件&lt;/p&gt;" style="text;html=1;whiteSpace=wrap;overflow=hidden;rounded=0;" parent="1" vertex="1">
          <mxGeometry x="40" y="40" width="920" height="90" as="geometry" />
        </mxCell>
      </root>
    </mxGraphModel>
  </diagram>
  <diagram id="qxMfhDNXdF4QZNKFWORW" name="中医舌诊- YOLO识别方案">
    <mxGraphModel dx="2193" dy="1321" grid="1" gridSize="10" guides="1" tooltips="1" connect="1" arrows="1" fold="1" page="1" pageScale="1" pageWidth="827" pageHeight="1169" math="0" shadow="0">
      <root>
        <mxCell id="0" />
        <mxCell id="1" parent="0" />
        <mxCell id="UeX4Q0fTjubHwZQXhTWC-22" style="edgeStyle=orthogonalEdgeStyle;rounded=0;orthogonalLoop=1;jettySize=auto;html=1;strokeWidth=3;strokeColor=#FF3333;" parent="1" source="UeX4Q0fTjubHwZQXhTWC-23" target="UeX4Q0fTjubHwZQXhTWC-11" edge="1">
          <mxGeometry relative="1" as="geometry" />
        </mxCell>
        <mxCell id="UeX4Q0fTjubHwZQXhTWC-27" style="edgeStyle=orthogonalEdgeStyle;rounded=0;orthogonalLoop=1;jettySize=auto;html=1;strokeWidth=3;strokeColor=#00CCCC;" parent="1" source="TMg4D6-cgsqkttxTISJO-29" target="UeX4Q0fTjubHwZQXhTWC-20" edge="1">
          <mxGeometry relative="1" as="geometry">
            <Array as="points">
              <mxPoint x="710" y="1140" />
              <mxPoint x="140" y="1140" />
            </Array>
          </mxGeometry>
        </mxCell>
        <mxCell id="UeX4Q0fTjubHwZQXhTWC-37" style="edgeStyle=orthogonalEdgeStyle;rounded=0;orthogonalLoop=1;jettySize=auto;html=1;exitX=0.5;exitY=0;exitDx=0;exitDy=0;entryX=0.5;entryY=1;entryDx=0;entryDy=0;strokeWidth=3;strokeColor=#CCCC00;" parent="1" source="UeX4Q0fTjubHwZQXhTWC-38" target="UeX4Q0fTjubHwZQXhTWC-28" edge="1">
          <mxGeometry relative="1" as="geometry">
            <mxPoint x="550" y="1260" as="targetPoint" />
            <mxPoint x="1160" y="1580" as="sourcePoint" />
            <Array as="points">
              <mxPoint x="700" y="1360" />
              <mxPoint x="350" y="1360" />
            </Array>
          </mxGeometry>
        </mxCell>
        <mxCell id="TMg4D6-cgsqkttxTISJO-3" value="舌头形状模型" style="swimlane;whiteSpace=wrap;html=1;fillColor=#f5f5f5;fontColor=#333333;strokeColor=#666666;" vertex="1" parent="1">
          <mxGeometry x="40" y="120" width="590" height="360" as="geometry" />
        </mxCell>
        <mxCell id="UeX4Q0fTjubHwZQXhTWC-1" value="舌面图片" style="swimlane;fontStyle=0;childLayout=stackLayout;horizontal=1;startSize=30;horizontalStack=0;resizeParent=1;resizeParentMax=0;resizeLast=0;collapsible=1;marginBottom=0;whiteSpace=wrap;html=1;fillColor=#e1d5e7;strokeColor=#9673a6;" parent="TMg4D6-cgsqkttxTISJO-3" vertex="1">
          <mxGeometry x="40" y="50" width="140" height="120" as="geometry" />
        </mxCell>
        <mxCell id="UeX4Q0fTjubHwZQXhTWC-2" value="Item 1" style="text;strokeColor=none;fillColor=none;align=left;verticalAlign=middle;spacingLeft=4;spacingRight=4;overflow=hidden;points=[[0,0.5],[1,0.5]];portConstraint=eastwest;rotatable=0;whiteSpace=wrap;html=1;" parent="UeX4Q0fTjubHwZQXhTWC-1" vertex="1">
          <mxGeometry y="30" width="140" height="30" as="geometry" />
        </mxCell>
        <mxCell id="UeX4Q0fTjubHwZQXhTWC-3" value="Item 2" style="text;strokeColor=none;fillColor=none;align=left;verticalAlign=middle;spacingLeft=4;spacingRight=4;overflow=hidden;points=[[0,0.5],[1,0.5]];portConstraint=eastwest;rotatable=0;whiteSpace=wrap;html=1;" parent="UeX4Q0fTjubHwZQXhTWC-1" vertex="1">
          <mxGeometry y="60" width="140" height="30" as="geometry" />
        </mxCell>
        <mxCell id="UeX4Q0fTjubHwZQXhTWC-4" value="Item 3" style="text;strokeColor=none;fillColor=none;align=left;verticalAlign=middle;spacingLeft=4;spacingRight=4;overflow=hidden;points=[[0,0.5],[1,0.5]];portConstraint=eastwest;rotatable=0;whiteSpace=wrap;html=1;" parent="UeX4Q0fTjubHwZQXhTWC-1" vertex="1">
          <mxGeometry y="90" width="140" height="30" as="geometry" />
        </mxCell>
        <mxCell id="UeX4Q0fTjubHwZQXhTWC-5" value="舌背图片" style="swimlane;fontStyle=0;childLayout=stackLayout;horizontal=1;startSize=30;horizontalStack=0;resizeParent=1;resizeParentMax=0;resizeLast=0;collapsible=1;marginBottom=0;whiteSpace=wrap;html=1;fillColor=#f8cecc;strokeColor=#b85450;" parent="TMg4D6-cgsqkttxTISJO-3" vertex="1">
          <mxGeometry x="40" y="210" width="140" height="120" as="geometry" />
        </mxCell>
        <mxCell id="UeX4Q0fTjubHwZQXhTWC-6" value="Item 1" style="text;strokeColor=none;fillColor=none;align=left;verticalAlign=middle;spacingLeft=4;spacingRight=4;overflow=hidden;points=[[0,0.5],[1,0.5]];portConstraint=eastwest;rotatable=0;whiteSpace=wrap;html=1;" parent="UeX4Q0fTjubHwZQXhTWC-5" vertex="1">
          <mxGeometry y="30" width="140" height="30" as="geometry" />
        </mxCell>
        <mxCell id="UeX4Q0fTjubHwZQXhTWC-7" value="Item 2" style="text;strokeColor=none;fillColor=none;align=left;verticalAlign=middle;spacingLeft=4;spacingRight=4;overflow=hidden;points=[[0,0.5],[1,0.5]];portConstraint=eastwest;rotatable=0;whiteSpace=wrap;html=1;" parent="UeX4Q0fTjubHwZQXhTWC-5" vertex="1">
          <mxGeometry y="60" width="140" height="30" as="geometry" />
        </mxCell>
        <mxCell id="UeX4Q0fTjubHwZQXhTWC-8" value="Item 3" style="text;strokeColor=none;fillColor=none;align=left;verticalAlign=middle;spacingLeft=4;spacingRight=4;overflow=hidden;points=[[0,0.5],[1,0.5]];portConstraint=eastwest;rotatable=0;whiteSpace=wrap;html=1;" parent="UeX4Q0fTjubHwZQXhTWC-5" vertex="1">
          <mxGeometry y="90" width="140" height="30" as="geometry" />
        </mxCell>
        <mxCell id="UeX4Q0fTjubHwZQXhTWC-12" style="edgeStyle=orthogonalEdgeStyle;rounded=0;orthogonalLoop=1;jettySize=auto;html=1;" parent="TMg4D6-cgsqkttxTISJO-3" source="UeX4Q0fTjubHwZQXhTWC-9" target="UeX4Q0fTjubHwZQXhTWC-11" edge="1">
          <mxGeometry relative="1" as="geometry" />
        </mxCell>
        <mxCell id="UeX4Q0fTjubHwZQXhTWC-9" value="YOLO 训练" style="rounded=1;whiteSpace=wrap;html=1;fillColor=#fff2cc;strokeColor=#d6b656;" parent="TMg4D6-cgsqkttxTISJO-3" vertex="1">
          <mxGeometry x="240" y="170" width="120" height="40" as="geometry" />
        </mxCell>
        <mxCell id="UeX4Q0fTjubHwZQXhTWC-10" style="edgeStyle=orthogonalEdgeStyle;rounded=0;orthogonalLoop=1;jettySize=auto;html=1;" parent="TMg4D6-cgsqkttxTISJO-3" source="UeX4Q0fTjubHwZQXhTWC-3" target="UeX4Q0fTjubHwZQXhTWC-9" edge="1">
          <mxGeometry relative="1" as="geometry" />
        </mxCell>
        <mxCell id="UeX4Q0fTjubHwZQXhTWC-11" value="舌头形状模型" style="shape=dataStorage;whiteSpace=wrap;html=1;fixedSize=1;fillColor=#dae8fc;strokeColor=#6c8ebf;" parent="TMg4D6-cgsqkttxTISJO-3" vertex="1">
          <mxGeometry x="400" y="170" width="160" height="40" as="geometry" />
        </mxCell>
        <mxCell id="UeX4Q0fTjubHwZQXhTWC-13" style="edgeStyle=orthogonalEdgeStyle;rounded=0;orthogonalLoop=1;jettySize=auto;html=1;" parent="TMg4D6-cgsqkttxTISJO-3" source="UeX4Q0fTjubHwZQXhTWC-7" target="UeX4Q0fTjubHwZQXhTWC-9" edge="1">
          <mxGeometry relative="1" as="geometry" />
        </mxCell>
        <mxCell id="UeX4Q0fTjubHwZQXhTWC-14" value="第一阶段，得到舌头形状" style="shape=callout;whiteSpace=wrap;html=1;perimeter=calloutPerimeter;fillColor=#ffe6cc;strokeColor=#d79b00;" parent="TMg4D6-cgsqkttxTISJO-3" vertex="1">
          <mxGeometry x="440" y="90" width="120" height="80" as="geometry" />
        </mxCell>
        <mxCell id="TMg4D6-cgsqkttxTISJO-4" value="训练素材预处理" style="swimlane;horizontal=1;whiteSpace=wrap;html=1;direction=east;fillColor=#dae8fc;strokeColor=#6c8ebf;" vertex="1" parent="1">
          <mxGeometry x="40" y="560" width="1000" height="200" as="geometry" />
        </mxCell>
        <mxCell id="TMg4D6-cgsqkttxTISJO-7" style="edgeStyle=orthogonalEdgeStyle;rounded=0;orthogonalLoop=1;jettySize=auto;html=1;entryX=0;entryY=0.5;entryDx=0;entryDy=0;" edge="1" parent="TMg4D6-cgsqkttxTISJO-4" source="TMg4D6-cgsqkttxTISJO-5" target="UeX4Q0fTjubHwZQXhTWC-25">
          <mxGeometry relative="1" as="geometry" />
        </mxCell>
        <mxCell id="TMg4D6-cgsqkttxTISJO-5" value="修改尺寸&lt;div&gt;1024&lt;/div&gt;" style="shape=step;perimeter=stepPerimeter;whiteSpace=wrap;html=1;fixedSize=1;fillColor=#ffe6cc;strokeColor=#d79b00;" vertex="1" parent="TMg4D6-cgsqkttxTISJO-4">
          <mxGeometry x="560" y="60" width="120" height="80" as="geometry" />
        </mxCell>
        <mxCell id="TMg4D6-cgsqkttxTISJO-16" style="edgeStyle=orthogonalEdgeStyle;rounded=0;orthogonalLoop=1;jettySize=auto;html=1;" edge="1" parent="TMg4D6-cgsqkttxTISJO-4" source="UeX4Q0fTjubHwZQXhTWC-25" target="TMg4D6-cgsqkttxTISJO-15">
          <mxGeometry relative="1" as="geometry" />
        </mxCell>
        <mxCell id="UeX4Q0fTjubHwZQXhTWC-25" value="&lt;div&gt;输出&lt;/div&gt;&lt;div&gt;换为YOLO数据&lt;br&gt;格式&lt;/div&gt;" style="shape=step;perimeter=stepPerimeter;whiteSpace=wrap;html=1;fixedSize=1;fillColor=#fff2cc;strokeColor=#d6b656;" parent="TMg4D6-cgsqkttxTISJO-4" vertex="1">
          <mxGeometry x="700" y="60" width="130" height="80" as="geometry" />
        </mxCell>
        <mxCell id="UeX4Q0fTjubHwZQXhTWC-23" value="&lt;div&gt;处理&lt;/div&gt;&lt;div&gt;通过舌头模型&lt;/div&gt;&lt;div&gt;切出舌头部位&lt;/div&gt;" style="shape=step;perimeter=stepPerimeter;whiteSpace=wrap;html=1;fixedSize=1;fillColor=#d5e8d4;strokeColor=#82b366;" parent="TMg4D6-cgsqkttxTISJO-4" vertex="1">
          <mxGeometry x="420" y="60" width="120" height="80" as="geometry" />
        </mxCell>
        <mxCell id="TMg4D6-cgsqkttxTISJO-6" style="edgeStyle=orthogonalEdgeStyle;rounded=0;orthogonalLoop=1;jettySize=auto;html=1;" edge="1" parent="TMg4D6-cgsqkttxTISJO-4" source="UeX4Q0fTjubHwZQXhTWC-23" target="TMg4D6-cgsqkttxTISJO-5">
          <mxGeometry relative="1" as="geometry" />
        </mxCell>
        <mxCell id="UeX4Q0fTjubHwZQXhTWC-21" value="输入&lt;div&gt;初始化操作&lt;/div&gt;" style="shape=step;perimeter=stepPerimeter;whiteSpace=wrap;html=1;fixedSize=1;fillColor=#dae8fc;strokeColor=#6c8ebf;" parent="TMg4D6-cgsqkttxTISJO-4" vertex="1">
          <mxGeometry x="280" y="60" width="120" height="80" as="geometry" />
        </mxCell>
        <mxCell id="UeX4Q0fTjubHwZQXhTWC-24" value="" style="edgeStyle=orthogonalEdgeStyle;rounded=0;orthogonalLoop=1;jettySize=auto;html=1;" parent="TMg4D6-cgsqkttxTISJO-4" source="UeX4Q0fTjubHwZQXhTWC-21" target="UeX4Q0fTjubHwZQXhTWC-23" edge="1">
          <mxGeometry relative="1" as="geometry" />
        </mxCell>
        <mxCell id="UeX4Q0fTjubHwZQXhTWC-15" value="抑郁症图片" style="swimlane;fontStyle=0;childLayout=stackLayout;horizontal=1;startSize=30;horizontalStack=0;resizeParent=1;resizeParentMax=0;resizeLast=0;collapsible=1;marginBottom=0;whiteSpace=wrap;html=1;fillColor=#f5f5f5;fontColor=#333333;strokeColor=#666666;" parent="TMg4D6-cgsqkttxTISJO-4" vertex="1">
          <mxGeometry x="100" y="40" width="140" height="120" as="geometry" />
        </mxCell>
        <mxCell id="UeX4Q0fTjubHwZQXhTWC-16" value="舌面标签" style="text;strokeColor=none;fillColor=none;align=left;verticalAlign=middle;spacingLeft=4;spacingRight=4;overflow=hidden;points=[[0,0.5],[1,0.5]];portConstraint=eastwest;rotatable=0;whiteSpace=wrap;html=1;" parent="UeX4Q0fTjubHwZQXhTWC-15" vertex="1">
          <mxGeometry y="30" width="140" height="30" as="geometry" />
        </mxCell>
        <mxCell id="UeX4Q0fTjubHwZQXhTWC-17" value="舌底标签" style="text;strokeColor=none;fillColor=none;align=left;verticalAlign=middle;spacingLeft=4;spacingRight=4;overflow=hidden;points=[[0,0.5],[1,0.5]];portConstraint=eastwest;rotatable=0;whiteSpace=wrap;html=1;" parent="UeX4Q0fTjubHwZQXhTWC-15" vertex="1">
          <mxGeometry y="60" width="140" height="30" as="geometry" />
        </mxCell>
        <mxCell id="UeX4Q0fTjubHwZQXhTWC-18" value="其他" style="text;strokeColor=none;fillColor=none;align=left;verticalAlign=middle;spacingLeft=4;spacingRight=4;overflow=hidden;points=[[0,0.5],[1,0.5]];portConstraint=eastwest;rotatable=0;whiteSpace=wrap;html=1;" parent="UeX4Q0fTjubHwZQXhTWC-15" vertex="1">
          <mxGeometry y="90" width="140" height="30" as="geometry" />
        </mxCell>
        <mxCell id="UeX4Q0fTjubHwZQXhTWC-19" style="edgeStyle=orthogonalEdgeStyle;rounded=0;orthogonalLoop=1;jettySize=auto;html=1;" parent="TMg4D6-cgsqkttxTISJO-4" source="UeX4Q0fTjubHwZQXhTWC-15" target="UeX4Q0fTjubHwZQXhTWC-21" edge="1">
          <mxGeometry relative="1" as="geometry">
            <mxPoint x="290" y="110" as="targetPoint" />
          </mxGeometry>
        </mxCell>
        <mxCell id="TMg4D6-cgsqkttxTISJO-15" value="输出图片" style="shape=document;whiteSpace=wrap;html=1;boundedLbl=1;fillColor=#f8cecc;strokeColor=#b85450;" vertex="1" parent="TMg4D6-cgsqkttxTISJO-4">
          <mxGeometry x="860" y="60" width="120" height="80" as="geometry" />
        </mxCell>
        <mxCell id="TMg4D6-cgsqkttxTISJO-17" value="自动标注" style="swimlane;horizontal=1;whiteSpace=wrap;html=1;fillColor=#d5e8d4;strokeColor=#82b366;" vertex="1" parent="1">
          <mxGeometry x="40" y="840" width="1000" height="240" as="geometry" />
        </mxCell>
        <mxCell id="TMg4D6-cgsqkttxTISJO-24" style="edgeStyle=orthogonalEdgeStyle;rounded=0;orthogonalLoop=1;jettySize=auto;html=1;entryX=0;entryY=0.5;entryDx=0;entryDy=0;exitX=1;exitY=0.75;exitDx=0;exitDy=0;" edge="1" parent="TMg4D6-cgsqkttxTISJO-17" source="TMg4D6-cgsqkttxTISJO-18" target="TMg4D6-cgsqkttxTISJO-22">
          <mxGeometry relative="1" as="geometry">
            <Array as="points">
              <mxPoint x="360" y="145" />
              <mxPoint x="360" y="200" />
            </Array>
          </mxGeometry>
        </mxCell>
        <mxCell id="TMg4D6-cgsqkttxTISJO-25" style="edgeStyle=orthogonalEdgeStyle;rounded=0;orthogonalLoop=1;jettySize=auto;html=1;" edge="1" parent="TMg4D6-cgsqkttxTISJO-17" source="TMg4D6-cgsqkttxTISJO-18" target="TMg4D6-cgsqkttxTISJO-21">
          <mxGeometry relative="1" as="geometry" />
        </mxCell>
        <mxCell id="TMg4D6-cgsqkttxTISJO-26" style="edgeStyle=orthogonalEdgeStyle;rounded=0;orthogonalLoop=1;jettySize=auto;html=1;entryX=0;entryY=0.5;entryDx=0;entryDy=0;exitX=1;exitY=0.25;exitDx=0;exitDy=0;" edge="1" parent="TMg4D6-cgsqkttxTISJO-17" source="TMg4D6-cgsqkttxTISJO-18" target="TMg4D6-cgsqkttxTISJO-20">
          <mxGeometry relative="1" as="geometry">
            <Array as="points">
              <mxPoint x="360" y="115" />
              <mxPoint x="360" y="60" />
            </Array>
          </mxGeometry>
        </mxCell>
        <mxCell id="TMg4D6-cgsqkttxTISJO-18" value="加载模型" style="rounded=1;whiteSpace=wrap;html=1;fillColor=#f5f5f5;fontColor=#333333;strokeColor=#666666;" vertex="1" parent="TMg4D6-cgsqkttxTISJO-17">
          <mxGeometry x="200" y="100" width="120" height="60" as="geometry" />
        </mxCell>
        <mxCell id="TMg4D6-cgsqkttxTISJO-33" style="edgeStyle=orthogonalEdgeStyle;rounded=0;orthogonalLoop=1;jettySize=auto;html=1;" edge="1" parent="TMg4D6-cgsqkttxTISJO-17" source="TMg4D6-cgsqkttxTISJO-20" target="TMg4D6-cgsqkttxTISJO-29">
          <mxGeometry relative="1" as="geometry" />
        </mxCell>
        <mxCell id="TMg4D6-cgsqkttxTISJO-20" value="舌头整体" style="shape=step;perimeter=stepPerimeter;whiteSpace=wrap;html=1;fixedSize=1;fillColor=#ffe6cc;strokeColor=#d79b00;" vertex="1" parent="TMg4D6-cgsqkttxTISJO-17">
          <mxGeometry x="400" y="40" width="120" height="40" as="geometry" />
        </mxCell>
        <mxCell id="TMg4D6-cgsqkttxTISJO-34" style="edgeStyle=orthogonalEdgeStyle;rounded=0;orthogonalLoop=1;jettySize=auto;html=1;" edge="1" parent="TMg4D6-cgsqkttxTISJO-17" source="TMg4D6-cgsqkttxTISJO-21" target="TMg4D6-cgsqkttxTISJO-29">
          <mxGeometry relative="1" as="geometry" />
        </mxCell>
        <mxCell id="TMg4D6-cgsqkttxTISJO-21" value="W 形状" style="shape=step;perimeter=stepPerimeter;whiteSpace=wrap;html=1;fixedSize=1;fillColor=#fff2cc;strokeColor=#d6b656;" vertex="1" parent="TMg4D6-cgsqkttxTISJO-17">
          <mxGeometry x="400" y="110" width="120" height="40" as="geometry" />
        </mxCell>
        <mxCell id="TMg4D6-cgsqkttxTISJO-35" style="edgeStyle=orthogonalEdgeStyle;rounded=0;orthogonalLoop=1;jettySize=auto;html=1;" edge="1" parent="TMg4D6-cgsqkttxTISJO-17" source="TMg4D6-cgsqkttxTISJO-22" target="TMg4D6-cgsqkttxTISJO-29">
          <mxGeometry relative="1" as="geometry" />
        </mxCell>
        <mxCell id="TMg4D6-cgsqkttxTISJO-22" value="血管" style="shape=step;perimeter=stepPerimeter;whiteSpace=wrap;html=1;fixedSize=1;fillColor=#d5e8d4;strokeColor=#82b366;" vertex="1" parent="TMg4D6-cgsqkttxTISJO-17">
          <mxGeometry x="400" y="180" width="120" height="40" as="geometry" />
        </mxCell>
        <mxCell id="TMg4D6-cgsqkttxTISJO-29" value="yolo dataset" style="swimlane;fontStyle=0;childLayout=stackLayout;horizontal=1;startSize=30;horizontalStack=0;resizeParent=1;resizeParentMax=0;resizeLast=0;collapsible=1;marginBottom=0;whiteSpace=wrap;html=1;fillColor=#e1d5e7;strokeColor=#9673a6;" vertex="1" parent="TMg4D6-cgsqkttxTISJO-17">
          <mxGeometry x="600" y="70" width="140" height="120" as="geometry" />
        </mxCell>
        <mxCell id="TMg4D6-cgsqkttxTISJO-30" value="train/images" style="text;strokeColor=none;fillColor=none;align=left;verticalAlign=middle;spacingLeft=4;spacingRight=4;overflow=hidden;points=[[0,0.5],[1,0.5]];portConstraint=eastwest;rotatable=0;whiteSpace=wrap;html=1;" vertex="1" parent="TMg4D6-cgsqkttxTISJO-29">
          <mxGeometry y="30" width="140" height="30" as="geometry" />
        </mxCell>
        <mxCell id="TMg4D6-cgsqkttxTISJO-31" value="train/labels" style="text;strokeColor=none;fillColor=none;align=left;verticalAlign=middle;spacingLeft=4;spacingRight=4;overflow=hidden;points=[[0,0.5],[1,0.5]];portConstraint=eastwest;rotatable=0;whiteSpace=wrap;html=1;" vertex="1" parent="TMg4D6-cgsqkttxTISJO-29">
          <mxGeometry y="60" width="140" height="30" as="geometry" />
        </mxCell>
        <mxCell id="TMg4D6-cgsqkttxTISJO-32" value="classes.txt" style="text;strokeColor=none;fillColor=none;align=left;verticalAlign=middle;spacingLeft=4;spacingRight=4;overflow=hidden;points=[[0,0.5],[1,0.5]];portConstraint=eastwest;rotatable=0;whiteSpace=wrap;html=1;" vertex="1" parent="TMg4D6-cgsqkttxTISJO-29">
          <mxGeometry y="90" width="140" height="30" as="geometry" />
        </mxCell>
        <mxCell id="N8n0Zz2PSphdHM2fWc54-2" style="edgeStyle=orthogonalEdgeStyle;shape=connector;rounded=0;orthogonalLoop=1;jettySize=auto;html=1;strokeColor=#009999;strokeWidth=3;align=center;verticalAlign=middle;fontFamily=Helvetica;fontSize=11;fontColor=default;labelBackgroundColor=default;endArrow=classic;" edge="1" parent="TMg4D6-cgsqkttxTISJO-17" source="N8n0Zz2PSphdHM2fWc54-1" target="TMg4D6-cgsqkttxTISJO-18">
          <mxGeometry relative="1" as="geometry" />
        </mxCell>
        <mxCell id="N8n0Zz2PSphdHM2fWc54-1" value="X-anylableing" style="rounded=1;whiteSpace=wrap;html=1;fillColor=#f5f5f5;fontColor=#333333;strokeColor=#666666;" vertex="1" parent="TMg4D6-cgsqkttxTISJO-17">
          <mxGeometry x="40" y="100" width="120" height="60" as="geometry" />
        </mxCell>
        <mxCell id="TMg4D6-cgsqkttxTISJO-19" style="edgeStyle=orthogonalEdgeStyle;rounded=0;orthogonalLoop=1;jettySize=auto;html=1;entryX=0.25;entryY=1;entryDx=0;entryDy=0;strokeColor=#00CC00;strokeWidth=3;" edge="1" parent="1" source="TMg4D6-cgsqkttxTISJO-18" target="UeX4Q0fTjubHwZQXhTWC-11">
          <mxGeometry relative="1" as="geometry">
            <Array as="points">
              <mxPoint x="300" y="520" />
              <mxPoint x="480" y="520" />
            </Array>
          </mxGeometry>
        </mxCell>
        <mxCell id="TMg4D6-cgsqkttxTISJO-39" value="自动标注舌头" style="edgeLabel;html=1;align=center;verticalAlign=middle;resizable=0;points=[];fontSize=12;" vertex="1" connectable="0" parent="TMg4D6-cgsqkttxTISJO-19">
          <mxGeometry x="0.2157" y="1" relative="1" as="geometry">
            <mxPoint y="1" as="offset" />
          </mxGeometry>
        </mxCell>
        <mxCell id="TMg4D6-cgsqkttxTISJO-28" style="edgeStyle=orthogonalEdgeStyle;rounded=0;orthogonalLoop=1;jettySize=auto;html=1;strokeWidth=3;strokeColor=#009999;" edge="1" parent="1" source="TMg4D6-cgsqkttxTISJO-15" target="N8n0Zz2PSphdHM2fWc54-1">
          <mxGeometry relative="1" as="geometry">
            <Array as="points">
              <mxPoint x="920" y="800" />
              <mxPoint x="140" y="800" />
            </Array>
          </mxGeometry>
        </mxCell>
        <mxCell id="TMg4D6-cgsqkttxTISJO-36" value="YOLO" style="swimlane;whiteSpace=wrap;html=1;fillColor=#ffe6cc;strokeColor=#d79b00;" vertex="1" parent="1">
          <mxGeometry x="40" y="1160" width="1000" height="160" as="geometry" />
        </mxCell>
        <mxCell id="UeX4Q0fTjubHwZQXhTWC-20" value="YOLO 训练" style="rounded=1;whiteSpace=wrap;html=1;fillColor=#f5f5f5;fontColor=#333333;strokeColor=#666666;" parent="TMg4D6-cgsqkttxTISJO-36" vertex="1">
          <mxGeometry x="40" y="60" width="120" height="60" as="geometry" />
        </mxCell>
        <mxCell id="UeX4Q0fTjubHwZQXhTWC-28" value="诊断模型" style="shape=dataStorage;whiteSpace=wrap;html=1;fixedSize=1;fillColor=#f8cecc;strokeColor=#b85450;" parent="TMg4D6-cgsqkttxTISJO-36" vertex="1">
          <mxGeometry x="240" y="70" width="140" height="40" as="geometry" />
        </mxCell>
        <mxCell id="UeX4Q0fTjubHwZQXhTWC-29" style="edgeStyle=orthogonalEdgeStyle;rounded=0;orthogonalLoop=1;jettySize=auto;html=1;entryX=0;entryY=0.5;entryDx=0;entryDy=0;" parent="TMg4D6-cgsqkttxTISJO-36" source="UeX4Q0fTjubHwZQXhTWC-20" target="UeX4Q0fTjubHwZQXhTWC-28" edge="1">
          <mxGeometry relative="1" as="geometry" />
        </mxCell>
        <mxCell id="TMg4D6-cgsqkttxTISJO-40" value="舌诊终端/App/小程序" style="swimlane;whiteSpace=wrap;html=1;fillColor=#fff2cc;strokeColor=#d6b656;" vertex="1" parent="1">
          <mxGeometry x="40" y="1400" width="1120" height="240" as="geometry" />
        </mxCell>
        <mxCell id="UeX4Q0fTjubHwZQXhTWC-32" value="" style="edgeStyle=orthogonalEdgeStyle;rounded=0;orthogonalLoop=1;jettySize=auto;html=1;" parent="TMg4D6-cgsqkttxTISJO-40" source="UeX4Q0fTjubHwZQXhTWC-30" target="UeX4Q0fTjubHwZQXhTWC-31" edge="1">
          <mxGeometry relative="1" as="geometry" />
        </mxCell>
        <mxCell id="UeX4Q0fTjubHwZQXhTWC-30" value="Actor" style="shape=umlActor;verticalLabelPosition=bottom;verticalAlign=top;html=1;outlineConnect=0;fillColor=#f5f5f5;fontColor=#333333;strokeColor=#666666;" parent="TMg4D6-cgsqkttxTISJO-40" vertex="1">
          <mxGeometry x="30" y="80" width="30" height="60" as="geometry" />
        </mxCell>
        <mxCell id="UeX4Q0fTjubHwZQXhTWC-34" value="" style="edgeStyle=orthogonalEdgeStyle;rounded=0;orthogonalLoop=1;jettySize=auto;html=1;" parent="TMg4D6-cgsqkttxTISJO-40" source="UeX4Q0fTjubHwZQXhTWC-31" target="UeX4Q0fTjubHwZQXhTWC-33" edge="1">
          <mxGeometry relative="1" as="geometry" />
        </mxCell>
        <mxCell id="UeX4Q0fTjubHwZQXhTWC-31" value="云接口" style="ellipse;shape=cloud;whiteSpace=wrap;html=1;verticalAlign=middle;fillColor=#dae8fc;strokeColor=#6c8ebf;" parent="TMg4D6-cgsqkttxTISJO-40" vertex="1">
          <mxGeometry x="120" y="70" width="125" height="80" as="geometry" />
        </mxCell>
        <mxCell id="UeX4Q0fTjubHwZQXhTWC-36" value="" style="edgeStyle=orthogonalEdgeStyle;rounded=0;orthogonalLoop=1;jettySize=auto;html=1;" parent="TMg4D6-cgsqkttxTISJO-40" source="UeX4Q0fTjubHwZQXhTWC-33" target="UeX4Q0fTjubHwZQXhTWC-35" edge="1">
          <mxGeometry relative="1" as="geometry" />
        </mxCell>
        <mxCell id="UeX4Q0fTjubHwZQXhTWC-33" value="上传图像" style="rounded=1;whiteSpace=wrap;html=1;fillColor=#d5e8d4;strokeColor=#82b366;" parent="TMg4D6-cgsqkttxTISJO-40" vertex="1">
          <mxGeometry x="280" y="80" width="120" height="60" as="geometry" />
        </mxCell>
        <mxCell id="UeX4Q0fTjubHwZQXhTWC-39" style="edgeStyle=orthogonalEdgeStyle;rounded=0;orthogonalLoop=1;jettySize=auto;html=1;" parent="TMg4D6-cgsqkttxTISJO-40" source="UeX4Q0fTjubHwZQXhTWC-35" target="UeX4Q0fTjubHwZQXhTWC-38" edge="1">
          <mxGeometry relative="1" as="geometry" />
        </mxCell>
        <mxCell id="UeX4Q0fTjubHwZQXhTWC-35" value="诊断接口" style="rounded=1;whiteSpace=wrap;html=1;fillColor=#ffe6cc;strokeColor=#d79b00;" parent="TMg4D6-cgsqkttxTISJO-40" vertex="1">
          <mxGeometry x="440" y="80" width="120" height="60" as="geometry" />
        </mxCell>
        <mxCell id="UeX4Q0fTjubHwZQXhTWC-41" value="" style="edgeStyle=orthogonalEdgeStyle;rounded=0;orthogonalLoop=1;jettySize=auto;html=1;" parent="TMg4D6-cgsqkttxTISJO-40" source="UeX4Q0fTjubHwZQXhTWC-38" target="UeX4Q0fTjubHwZQXhTWC-40" edge="1">
          <mxGeometry relative="1" as="geometry" />
        </mxCell>
        <mxCell id="TMg4D6-cgsqkttxTISJO-57" style="edgeStyle=orthogonalEdgeStyle;rounded=0;orthogonalLoop=1;jettySize=auto;html=1;" edge="1" parent="TMg4D6-cgsqkttxTISJO-40" source="UeX4Q0fTjubHwZQXhTWC-38" target="TMg4D6-cgsqkttxTISJO-41">
          <mxGeometry relative="1" as="geometry" />
        </mxCell>
        <mxCell id="UeX4Q0fTjubHwZQXhTWC-38" value="载入模型" style="shape=step;perimeter=stepPerimeter;whiteSpace=wrap;html=1;fixedSize=1;fillColor=#fff2cc;strokeColor=#d6b656;" parent="TMg4D6-cgsqkttxTISJO-40" vertex="1">
          <mxGeometry x="600" y="70" width="120" height="80" as="geometry" />
        </mxCell>
        <mxCell id="TMg4D6-cgsqkttxTISJO-62" style="edgeStyle=orthogonalEdgeStyle;rounded=0;orthogonalLoop=1;jettySize=auto;html=1;entryX=0;entryY=0.25;entryDx=0;entryDy=0;" edge="1" parent="TMg4D6-cgsqkttxTISJO-40" source="UeX4Q0fTjubHwZQXhTWC-40" target="TMg4D6-cgsqkttxTISJO-58">
          <mxGeometry relative="1" as="geometry" />
        </mxCell>
        <mxCell id="UeX4Q0fTjubHwZQXhTWC-40" value="&lt;div&gt;舌头&lt;/div&gt;boxes" style="shape=step;perimeter=stepPerimeter;whiteSpace=wrap;html=1;fixedSize=1;fillColor=#f8cecc;strokeColor=#b85450;" parent="TMg4D6-cgsqkttxTISJO-40" vertex="1">
          <mxGeometry x="787" y="50" width="120" height="40" as="geometry" />
        </mxCell>
        <mxCell id="TMg4D6-cgsqkttxTISJO-60" style="edgeStyle=orthogonalEdgeStyle;rounded=0;orthogonalLoop=1;jettySize=auto;html=1;entryX=0;entryY=0.75;entryDx=0;entryDy=0;" edge="1" parent="TMg4D6-cgsqkttxTISJO-40" source="TMg4D6-cgsqkttxTISJO-41" target="TMg4D6-cgsqkttxTISJO-58">
          <mxGeometry relative="1" as="geometry">
            <Array as="points">
              <mxPoint x="930" y="160" />
              <mxPoint x="930" y="118" />
            </Array>
          </mxGeometry>
        </mxCell>
        <mxCell id="TMg4D6-cgsqkttxTISJO-41" value="&lt;div&gt;label&lt;/div&gt;&lt;div&gt;诊断标签&lt;/div&gt;" style="shape=step;perimeter=stepPerimeter;whiteSpace=wrap;html=1;fixedSize=1;fillColor=#e1d5e7;strokeColor=#9673a6;" vertex="1" parent="TMg4D6-cgsqkttxTISJO-40">
          <mxGeometry x="787" y="130" width="120" height="40" as="geometry" />
        </mxCell>
        <mxCell id="TMg4D6-cgsqkttxTISJO-63" style="edgeStyle=orthogonalEdgeStyle;rounded=0;orthogonalLoop=1;jettySize=auto;html=1;strokeWidth=3;strokeColor=#FF0080;" edge="1" parent="TMg4D6-cgsqkttxTISJO-40" source="TMg4D6-cgsqkttxTISJO-58" target="UeX4Q0fTjubHwZQXhTWC-30">
          <mxGeometry relative="1" as="geometry">
            <Array as="points">
              <mxPoint x="1020" y="190" />
              <mxPoint x="45" y="190" />
            </Array>
          </mxGeometry>
        </mxCell>
        <mxCell id="TMg4D6-cgsqkttxTISJO-64" value="返回图像和结论给用户" style="edgeLabel;html=1;align=center;verticalAlign=middle;resizable=0;points=[];" vertex="1" connectable="0" parent="TMg4D6-cgsqkttxTISJO-63">
          <mxGeometry x="0.0378" y="-1" relative="1" as="geometry">
            <mxPoint as="offset" />
          </mxGeometry>
        </mxCell>
        <mxCell id="TMg4D6-cgsqkttxTISJO-58" value="结论" style="shape=step;perimeter=stepPerimeter;whiteSpace=wrap;html=1;fixedSize=1;fillColor=#b0e3e6;strokeColor=#0e8088;" vertex="1" parent="TMg4D6-cgsqkttxTISJO-40">
          <mxGeometry x="960" y="90" width="120" height="40" as="geometry" />
        </mxCell>
        <mxCell id="TMg4D6-cgsqkttxTISJO-1" value="切出舌头区域" style="shape=callout;whiteSpace=wrap;html=1;perimeter=calloutPerimeter;fillColor=#e1d5e7;strokeColor=#9673a6;" vertex="1" parent="1">
          <mxGeometry x="790" y="540" width="120" height="80" as="geometry" />
        </mxCell>
        <mxCell id="TMg4D6-cgsqkttxTISJO-65" value="&lt;h1 style=&quot;margin-top: 0px;&quot;&gt;中医舌诊系统 - 当前架构图&lt;/h1&gt;&lt;p&gt;&lt;font style=&quot;font-size: 15px;&quot;&gt;基于人工智能的中医舌诊系统&lt;/font&gt;&lt;/p&gt;" style="text;html=1;whiteSpace=wrap;overflow=hidden;rounded=0;" vertex="1" parent="1">
          <mxGeometry x="40" y="40" width="670" height="80" as="geometry" />
        </mxCell>
        <mxCell id="TMg4D6-cgsqkttxTISJO-37" style="edgeStyle=orthogonalEdgeStyle;rounded=0;orthogonalLoop=1;jettySize=auto;html=1;entryX=0.5;entryY=0;entryDx=0;entryDy=0;strokeWidth=3;strokeColor=#0000FF;exitX=0.5;exitY=1;exitDx=0;exitDy=0;" edge="1" parent="1" source="TMg4D6-cgsqkttxTISJO-18" target="UeX4Q0fTjubHwZQXhTWC-28">
          <mxGeometry relative="1" as="geometry">
            <mxPoint x="132.5" y="1000" as="sourcePoint" />
            <mxPoint x="947.5" y="990" as="targetPoint" />
            <Array as="points">
              <mxPoint x="300" y="1120" />
              <mxPoint x="350" y="1120" />
            </Array>
          </mxGeometry>
        </mxCell>
        <mxCell id="TMg4D6-cgsqkttxTISJO-38" value="自动标注病区" style="edgeLabel;html=1;align=center;verticalAlign=middle;resizable=0;points=[];fontSize=12;" vertex="1" connectable="0" parent="TMg4D6-cgsqkttxTISJO-37">
          <mxGeometry x="0.0376" y="2" relative="1" as="geometry">
            <mxPoint x="-50" y="1" as="offset" />
          </mxGeometry>
        </mxCell>
      </root>
    </mxGraphModel>
  </diagram>
  <diagram id="ZkMoUFXPZKV3txZrNl77" name="中医舌诊-多分类模型">
    <mxGraphModel dx="2522" dy="1519" grid="1" gridSize="10" guides="1" tooltips="1" connect="1" arrows="1" fold="1" page="1" pageScale="1" pageWidth="827" pageHeight="1169" math="0" shadow="0">
      <root>
        <mxCell id="0" />
        <mxCell id="1" parent="0" />
        <mxCell id="HR8rpeXf6-6Qom_NqcTh-1" style="edgeStyle=orthogonalEdgeStyle;rounded=0;orthogonalLoop=1;jettySize=auto;html=1;strokeWidth=3;strokeColor=#FF3333;" edge="1" parent="1" source="HR8rpeXf6-6Qom_NqcTh-34" target="HR8rpeXf6-6Qom_NqcTh-26">
          <mxGeometry relative="1" as="geometry" />
        </mxCell>
        <mxCell id="HR8rpeXf6-6Qom_NqcTh-2" style="edgeStyle=orthogonalEdgeStyle;rounded=0;orthogonalLoop=1;jettySize=auto;html=1;strokeWidth=3;strokeColor=#00CCCC;" edge="1" parent="1" source="HR8rpeXf6-6Qom_NqcTh-58">
          <mxGeometry relative="1" as="geometry">
            <Array as="points">
              <mxPoint x="710" y="1120" />
              <mxPoint x="160" y="1120" />
            </Array>
            <mxPoint x="536.96" y="1030" as="sourcePoint" />
            <mxPoint x="160" y="1240" as="targetPoint" />
          </mxGeometry>
        </mxCell>
        <mxCell id="HR8rpeXf6-6Qom_NqcTh-3" style="edgeStyle=orthogonalEdgeStyle;rounded=0;orthogonalLoop=1;jettySize=auto;html=1;exitX=0.5;exitY=0;exitDx=0;exitDy=0;strokeWidth=3;strokeColor=#CCCC00;" edge="1" parent="1" source="OdbhRjCbo13elaivIWpb-30" target="OdbhRjCbo13elaivIWpb-4">
          <mxGeometry relative="1" as="geometry">
            <mxPoint x="550" y="1260" as="targetPoint" />
            <mxPoint x="1160" y="1580" as="sourcePoint" />
            <Array as="points">
              <mxPoint x="700" y="1400" />
              <mxPoint x="1050" y="1400" />
            </Array>
          </mxGeometry>
        </mxCell>
        <mxCell id="HR8rpeXf6-6Qom_NqcTh-14" value="舌头形状模型" style="swimlane;whiteSpace=wrap;html=1;fillColor=#f5f5f5;fontColor=#333333;strokeColor=#666666;" vertex="1" parent="1">
          <mxGeometry x="40" y="120" width="590" height="360" as="geometry" />
        </mxCell>
        <mxCell id="HR8rpeXf6-6Qom_NqcTh-15" value="舌面图片" style="swimlane;fontStyle=0;childLayout=stackLayout;horizontal=1;startSize=30;horizontalStack=0;resizeParent=1;resizeParentMax=0;resizeLast=0;collapsible=1;marginBottom=0;whiteSpace=wrap;html=1;fillColor=#e1d5e7;strokeColor=#9673a6;" vertex="1" parent="HR8rpeXf6-6Qom_NqcTh-14">
          <mxGeometry x="40" y="50" width="140" height="120" as="geometry" />
        </mxCell>
        <mxCell id="HR8rpeXf6-6Qom_NqcTh-16" value="Item 1" style="text;strokeColor=none;fillColor=none;align=left;verticalAlign=middle;spacingLeft=4;spacingRight=4;overflow=hidden;points=[[0,0.5],[1,0.5]];portConstraint=eastwest;rotatable=0;whiteSpace=wrap;html=1;" vertex="1" parent="HR8rpeXf6-6Qom_NqcTh-15">
          <mxGeometry y="30" width="140" height="30" as="geometry" />
        </mxCell>
        <mxCell id="HR8rpeXf6-6Qom_NqcTh-17" value="Item 2" style="text;strokeColor=none;fillColor=none;align=left;verticalAlign=middle;spacingLeft=4;spacingRight=4;overflow=hidden;points=[[0,0.5],[1,0.5]];portConstraint=eastwest;rotatable=0;whiteSpace=wrap;html=1;" vertex="1" parent="HR8rpeXf6-6Qom_NqcTh-15">
          <mxGeometry y="60" width="140" height="30" as="geometry" />
        </mxCell>
        <mxCell id="HR8rpeXf6-6Qom_NqcTh-18" value="Item 3" style="text;strokeColor=none;fillColor=none;align=left;verticalAlign=middle;spacingLeft=4;spacingRight=4;overflow=hidden;points=[[0,0.5],[1,0.5]];portConstraint=eastwest;rotatable=0;whiteSpace=wrap;html=1;" vertex="1" parent="HR8rpeXf6-6Qom_NqcTh-15">
          <mxGeometry y="90" width="140" height="30" as="geometry" />
        </mxCell>
        <mxCell id="HR8rpeXf6-6Qom_NqcTh-19" value="舌背图片" style="swimlane;fontStyle=0;childLayout=stackLayout;horizontal=1;startSize=30;horizontalStack=0;resizeParent=1;resizeParentMax=0;resizeLast=0;collapsible=1;marginBottom=0;whiteSpace=wrap;html=1;fillColor=#f8cecc;strokeColor=#b85450;" vertex="1" parent="HR8rpeXf6-6Qom_NqcTh-14">
          <mxGeometry x="40" y="210" width="140" height="120" as="geometry" />
        </mxCell>
        <mxCell id="HR8rpeXf6-6Qom_NqcTh-20" value="Item 1" style="text;strokeColor=none;fillColor=none;align=left;verticalAlign=middle;spacingLeft=4;spacingRight=4;overflow=hidden;points=[[0,0.5],[1,0.5]];portConstraint=eastwest;rotatable=0;whiteSpace=wrap;html=1;" vertex="1" parent="HR8rpeXf6-6Qom_NqcTh-19">
          <mxGeometry y="30" width="140" height="30" as="geometry" />
        </mxCell>
        <mxCell id="HR8rpeXf6-6Qom_NqcTh-21" value="Item 2" style="text;strokeColor=none;fillColor=none;align=left;verticalAlign=middle;spacingLeft=4;spacingRight=4;overflow=hidden;points=[[0,0.5],[1,0.5]];portConstraint=eastwest;rotatable=0;whiteSpace=wrap;html=1;" vertex="1" parent="HR8rpeXf6-6Qom_NqcTh-19">
          <mxGeometry y="60" width="140" height="30" as="geometry" />
        </mxCell>
        <mxCell id="HR8rpeXf6-6Qom_NqcTh-22" value="Item 3" style="text;strokeColor=none;fillColor=none;align=left;verticalAlign=middle;spacingLeft=4;spacingRight=4;overflow=hidden;points=[[0,0.5],[1,0.5]];portConstraint=eastwest;rotatable=0;whiteSpace=wrap;html=1;" vertex="1" parent="HR8rpeXf6-6Qom_NqcTh-19">
          <mxGeometry y="90" width="140" height="30" as="geometry" />
        </mxCell>
        <mxCell id="HR8rpeXf6-6Qom_NqcTh-23" style="edgeStyle=orthogonalEdgeStyle;rounded=0;orthogonalLoop=1;jettySize=auto;html=1;" edge="1" parent="HR8rpeXf6-6Qom_NqcTh-14" source="HR8rpeXf6-6Qom_NqcTh-24" target="HR8rpeXf6-6Qom_NqcTh-26">
          <mxGeometry relative="1" as="geometry" />
        </mxCell>
        <mxCell id="HR8rpeXf6-6Qom_NqcTh-24" value="YOLO 训练" style="rounded=1;whiteSpace=wrap;html=1;fillColor=#fff2cc;strokeColor=#d6b656;" vertex="1" parent="HR8rpeXf6-6Qom_NqcTh-14">
          <mxGeometry x="240" y="170" width="120" height="40" as="geometry" />
        </mxCell>
        <mxCell id="HR8rpeXf6-6Qom_NqcTh-25" style="edgeStyle=orthogonalEdgeStyle;rounded=0;orthogonalLoop=1;jettySize=auto;html=1;" edge="1" parent="HR8rpeXf6-6Qom_NqcTh-14" source="HR8rpeXf6-6Qom_NqcTh-17" target="HR8rpeXf6-6Qom_NqcTh-24">
          <mxGeometry relative="1" as="geometry" />
        </mxCell>
        <mxCell id="HR8rpeXf6-6Qom_NqcTh-26" value="舌头形状模型" style="shape=dataStorage;whiteSpace=wrap;html=1;fixedSize=1;fillColor=#dae8fc;strokeColor=#6c8ebf;" vertex="1" parent="HR8rpeXf6-6Qom_NqcTh-14">
          <mxGeometry x="400" y="170" width="160" height="40" as="geometry" />
        </mxCell>
        <mxCell id="HR8rpeXf6-6Qom_NqcTh-27" style="edgeStyle=orthogonalEdgeStyle;rounded=0;orthogonalLoop=1;jettySize=auto;html=1;" edge="1" parent="HR8rpeXf6-6Qom_NqcTh-14" source="HR8rpeXf6-6Qom_NqcTh-21" target="HR8rpeXf6-6Qom_NqcTh-24">
          <mxGeometry relative="1" as="geometry" />
        </mxCell>
        <mxCell id="HR8rpeXf6-6Qom_NqcTh-28" value="第一阶段，得到舌头形状" style="shape=callout;whiteSpace=wrap;html=1;perimeter=calloutPerimeter;fillColor=#ffe6cc;strokeColor=#d79b00;" vertex="1" parent="HR8rpeXf6-6Qom_NqcTh-14">
          <mxGeometry x="440" y="90" width="120" height="80" as="geometry" />
        </mxCell>
        <mxCell id="HR8rpeXf6-6Qom_NqcTh-29" value="训练素材预处理" style="swimlane;horizontal=1;whiteSpace=wrap;html=1;direction=east;fillColor=#dae8fc;strokeColor=#6c8ebf;" vertex="1" parent="1">
          <mxGeometry x="40" y="560" width="1000" height="200" as="geometry" />
        </mxCell>
        <mxCell id="HR8rpeXf6-6Qom_NqcTh-30" style="edgeStyle=orthogonalEdgeStyle;rounded=0;orthogonalLoop=1;jettySize=auto;html=1;entryX=0;entryY=0.5;entryDx=0;entryDy=0;" edge="1" parent="HR8rpeXf6-6Qom_NqcTh-29" source="HR8rpeXf6-6Qom_NqcTh-31" target="HR8rpeXf6-6Qom_NqcTh-33">
          <mxGeometry relative="1" as="geometry" />
        </mxCell>
        <mxCell id="HR8rpeXf6-6Qom_NqcTh-31" value="修改尺寸&lt;div&gt;1024&lt;/div&gt;" style="shape=step;perimeter=stepPerimeter;whiteSpace=wrap;html=1;fixedSize=1;fillColor=#ffe6cc;strokeColor=#d79b00;" vertex="1" parent="HR8rpeXf6-6Qom_NqcTh-29">
          <mxGeometry x="560" y="60" width="120" height="80" as="geometry" />
        </mxCell>
        <mxCell id="HR8rpeXf6-6Qom_NqcTh-32" style="edgeStyle=orthogonalEdgeStyle;rounded=0;orthogonalLoop=1;jettySize=auto;html=1;" edge="1" parent="HR8rpeXf6-6Qom_NqcTh-29" source="HR8rpeXf6-6Qom_NqcTh-33" target="HR8rpeXf6-6Qom_NqcTh-43">
          <mxGeometry relative="1" as="geometry" />
        </mxCell>
        <mxCell id="HR8rpeXf6-6Qom_NqcTh-33" value="&lt;div&gt;输出&lt;/div&gt;&lt;div&gt;换为YOLO数据&lt;br&gt;格式&lt;/div&gt;" style="shape=step;perimeter=stepPerimeter;whiteSpace=wrap;html=1;fixedSize=1;fillColor=#fff2cc;strokeColor=#d6b656;" vertex="1" parent="HR8rpeXf6-6Qom_NqcTh-29">
          <mxGeometry x="700" y="60" width="130" height="80" as="geometry" />
        </mxCell>
        <mxCell id="HR8rpeXf6-6Qom_NqcTh-34" value="&lt;div&gt;处理&lt;/div&gt;&lt;div&gt;通过舌头模型&lt;/div&gt;&lt;div&gt;切出舌头部位&lt;/div&gt;" style="shape=step;perimeter=stepPerimeter;whiteSpace=wrap;html=1;fixedSize=1;fillColor=#d5e8d4;strokeColor=#82b366;" vertex="1" parent="HR8rpeXf6-6Qom_NqcTh-29">
          <mxGeometry x="420" y="60" width="120" height="80" as="geometry" />
        </mxCell>
        <mxCell id="HR8rpeXf6-6Qom_NqcTh-35" style="edgeStyle=orthogonalEdgeStyle;rounded=0;orthogonalLoop=1;jettySize=auto;html=1;" edge="1" parent="HR8rpeXf6-6Qom_NqcTh-29" source="HR8rpeXf6-6Qom_NqcTh-34" target="HR8rpeXf6-6Qom_NqcTh-31">
          <mxGeometry relative="1" as="geometry" />
        </mxCell>
        <mxCell id="HR8rpeXf6-6Qom_NqcTh-36" value="输入&lt;div&gt;初始化操作&lt;/div&gt;" style="shape=step;perimeter=stepPerimeter;whiteSpace=wrap;html=1;fixedSize=1;fillColor=#dae8fc;strokeColor=#6c8ebf;" vertex="1" parent="HR8rpeXf6-6Qom_NqcTh-29">
          <mxGeometry x="280" y="60" width="120" height="80" as="geometry" />
        </mxCell>
        <mxCell id="HR8rpeXf6-6Qom_NqcTh-37" value="" style="edgeStyle=orthogonalEdgeStyle;rounded=0;orthogonalLoop=1;jettySize=auto;html=1;" edge="1" parent="HR8rpeXf6-6Qom_NqcTh-29" source="HR8rpeXf6-6Qom_NqcTh-36" target="HR8rpeXf6-6Qom_NqcTh-34">
          <mxGeometry relative="1" as="geometry" />
        </mxCell>
        <mxCell id="HR8rpeXf6-6Qom_NqcTh-38" value="抑郁症图片" style="swimlane;fontStyle=0;childLayout=stackLayout;horizontal=1;startSize=30;horizontalStack=0;resizeParent=1;resizeParentMax=0;resizeLast=0;collapsible=1;marginBottom=0;whiteSpace=wrap;html=1;fillColor=#f5f5f5;fontColor=#333333;strokeColor=#666666;" vertex="1" parent="HR8rpeXf6-6Qom_NqcTh-29">
          <mxGeometry x="100" y="40" width="140" height="120" as="geometry" />
        </mxCell>
        <mxCell id="HR8rpeXf6-6Qom_NqcTh-39" value="舌面标签" style="text;strokeColor=none;fillColor=none;align=left;verticalAlign=middle;spacingLeft=4;spacingRight=4;overflow=hidden;points=[[0,0.5],[1,0.5]];portConstraint=eastwest;rotatable=0;whiteSpace=wrap;html=1;" vertex="1" parent="HR8rpeXf6-6Qom_NqcTh-38">
          <mxGeometry y="30" width="140" height="30" as="geometry" />
        </mxCell>
        <mxCell id="HR8rpeXf6-6Qom_NqcTh-40" value="舌底标签" style="text;strokeColor=none;fillColor=none;align=left;verticalAlign=middle;spacingLeft=4;spacingRight=4;overflow=hidden;points=[[0,0.5],[1,0.5]];portConstraint=eastwest;rotatable=0;whiteSpace=wrap;html=1;" vertex="1" parent="HR8rpeXf6-6Qom_NqcTh-38">
          <mxGeometry y="60" width="140" height="30" as="geometry" />
        </mxCell>
        <mxCell id="HR8rpeXf6-6Qom_NqcTh-41" value="其他" style="text;strokeColor=none;fillColor=none;align=left;verticalAlign=middle;spacingLeft=4;spacingRight=4;overflow=hidden;points=[[0,0.5],[1,0.5]];portConstraint=eastwest;rotatable=0;whiteSpace=wrap;html=1;" vertex="1" parent="HR8rpeXf6-6Qom_NqcTh-38">
          <mxGeometry y="90" width="140" height="30" as="geometry" />
        </mxCell>
        <mxCell id="HR8rpeXf6-6Qom_NqcTh-42" style="edgeStyle=orthogonalEdgeStyle;rounded=0;orthogonalLoop=1;jettySize=auto;html=1;" edge="1" parent="HR8rpeXf6-6Qom_NqcTh-29" source="HR8rpeXf6-6Qom_NqcTh-38" target="HR8rpeXf6-6Qom_NqcTh-36">
          <mxGeometry relative="1" as="geometry">
            <mxPoint x="290" y="110" as="targetPoint" />
          </mxGeometry>
        </mxCell>
        <mxCell id="HR8rpeXf6-6Qom_NqcTh-43" value="输出图片" style="shape=document;whiteSpace=wrap;html=1;boundedLbl=1;fillColor=#f8cecc;strokeColor=#b85450;" vertex="1" parent="HR8rpeXf6-6Qom_NqcTh-29">
          <mxGeometry x="860" y="60" width="120" height="80" as="geometry" />
        </mxCell>
        <mxCell id="HR8rpeXf6-6Qom_NqcTh-44" value="自动标注" style="swimlane;horizontal=1;whiteSpace=wrap;html=1;fillColor=#d5e8d4;strokeColor=#82b366;" vertex="1" parent="1">
          <mxGeometry x="40" y="840" width="1000" height="240" as="geometry" />
        </mxCell>
        <mxCell id="HR8rpeXf6-6Qom_NqcTh-45" style="edgeStyle=orthogonalEdgeStyle;rounded=0;orthogonalLoop=1;jettySize=auto;html=1;entryX=0;entryY=0.5;entryDx=0;entryDy=0;exitX=1;exitY=0.75;exitDx=0;exitDy=0;" edge="1" parent="HR8rpeXf6-6Qom_NqcTh-44" source="HR8rpeXf6-6Qom_NqcTh-48" target="HR8rpeXf6-6Qom_NqcTh-54">
          <mxGeometry relative="1" as="geometry">
            <Array as="points">
              <mxPoint x="350" y="145" />
              <mxPoint x="350" y="200" />
            </Array>
          </mxGeometry>
        </mxCell>
        <mxCell id="HR8rpeXf6-6Qom_NqcTh-46" style="edgeStyle=orthogonalEdgeStyle;rounded=0;orthogonalLoop=1;jettySize=auto;html=1;" edge="1" parent="HR8rpeXf6-6Qom_NqcTh-44" source="HR8rpeXf6-6Qom_NqcTh-48" target="HR8rpeXf6-6Qom_NqcTh-52">
          <mxGeometry relative="1" as="geometry" />
        </mxCell>
        <mxCell id="HR8rpeXf6-6Qom_NqcTh-47" style="edgeStyle=orthogonalEdgeStyle;rounded=0;orthogonalLoop=1;jettySize=auto;html=1;entryX=0;entryY=0.5;entryDx=0;entryDy=0;exitX=1;exitY=0.25;exitDx=0;exitDy=0;" edge="1" parent="HR8rpeXf6-6Qom_NqcTh-44" source="HR8rpeXf6-6Qom_NqcTh-48" target="HR8rpeXf6-6Qom_NqcTh-50">
          <mxGeometry relative="1" as="geometry">
            <Array as="points">
              <mxPoint x="350" y="115" />
              <mxPoint x="350" y="60" />
            </Array>
          </mxGeometry>
        </mxCell>
        <mxCell id="HR8rpeXf6-6Qom_NqcTh-48" value="加载模型" style="rounded=1;whiteSpace=wrap;html=1;fillColor=#f5f5f5;fontColor=#333333;strokeColor=#666666;" vertex="1" parent="HR8rpeXf6-6Qom_NqcTh-44">
          <mxGeometry x="200" y="100" width="120" height="60" as="geometry" />
        </mxCell>
        <mxCell id="HR8rpeXf6-6Qom_NqcTh-49" style="edgeStyle=orthogonalEdgeStyle;rounded=0;orthogonalLoop=1;jettySize=auto;html=1;" edge="1" parent="HR8rpeXf6-6Qom_NqcTh-44" source="HR8rpeXf6-6Qom_NqcTh-50" target="HR8rpeXf6-6Qom_NqcTh-55">
          <mxGeometry relative="1" as="geometry" />
        </mxCell>
        <mxCell id="HR8rpeXf6-6Qom_NqcTh-50" value="舌头整体" style="shape=step;perimeter=stepPerimeter;whiteSpace=wrap;html=1;fixedSize=1;fillColor=#ffe6cc;strokeColor=#d79b00;" vertex="1" parent="HR8rpeXf6-6Qom_NqcTh-44">
          <mxGeometry x="390" y="40" width="120" height="40" as="geometry" />
        </mxCell>
        <mxCell id="HR8rpeXf6-6Qom_NqcTh-51" style="edgeStyle=orthogonalEdgeStyle;rounded=0;orthogonalLoop=1;jettySize=auto;html=1;" edge="1" parent="HR8rpeXf6-6Qom_NqcTh-44" source="HR8rpeXf6-6Qom_NqcTh-52" target="HR8rpeXf6-6Qom_NqcTh-55">
          <mxGeometry relative="1" as="geometry" />
        </mxCell>
        <mxCell id="HR8rpeXf6-6Qom_NqcTh-52" value="W 形状" style="shape=step;perimeter=stepPerimeter;whiteSpace=wrap;html=1;fixedSize=1;fillColor=#fff2cc;strokeColor=#d6b656;" vertex="1" parent="HR8rpeXf6-6Qom_NqcTh-44">
          <mxGeometry x="390" y="110" width="120" height="40" as="geometry" />
        </mxCell>
        <mxCell id="HR8rpeXf6-6Qom_NqcTh-53" style="edgeStyle=orthogonalEdgeStyle;rounded=0;orthogonalLoop=1;jettySize=auto;html=1;" edge="1" parent="HR8rpeXf6-6Qom_NqcTh-44" source="HR8rpeXf6-6Qom_NqcTh-54" target="HR8rpeXf6-6Qom_NqcTh-55">
          <mxGeometry relative="1" as="geometry" />
        </mxCell>
        <mxCell id="HR8rpeXf6-6Qom_NqcTh-54" value="血管" style="shape=step;perimeter=stepPerimeter;whiteSpace=wrap;html=1;fixedSize=1;fillColor=#d5e8d4;strokeColor=#82b366;" vertex="1" parent="HR8rpeXf6-6Qom_NqcTh-44">
          <mxGeometry x="390" y="180" width="120" height="40" as="geometry" />
        </mxCell>
        <mxCell id="HR8rpeXf6-6Qom_NqcTh-55" value="yolo dataset" style="swimlane;fontStyle=0;childLayout=stackLayout;horizontal=1;startSize=30;horizontalStack=0;resizeParent=1;resizeParentMax=0;resizeLast=0;collapsible=1;marginBottom=0;whiteSpace=wrap;html=1;fillColor=#e1d5e7;strokeColor=#9673a6;" vertex="1" parent="HR8rpeXf6-6Qom_NqcTh-44">
          <mxGeometry x="600" y="70" width="140" height="120" as="geometry" />
        </mxCell>
        <mxCell id="HR8rpeXf6-6Qom_NqcTh-56" value="train/images" style="text;strokeColor=none;fillColor=none;align=left;verticalAlign=middle;spacingLeft=4;spacingRight=4;overflow=hidden;points=[[0,0.5],[1,0.5]];portConstraint=eastwest;rotatable=0;whiteSpace=wrap;html=1;" vertex="1" parent="HR8rpeXf6-6Qom_NqcTh-55">
          <mxGeometry y="30" width="140" height="30" as="geometry" />
        </mxCell>
        <mxCell id="HR8rpeXf6-6Qom_NqcTh-57" value="train/labels" style="text;strokeColor=none;fillColor=none;align=left;verticalAlign=middle;spacingLeft=4;spacingRight=4;overflow=hidden;points=[[0,0.5],[1,0.5]];portConstraint=eastwest;rotatable=0;whiteSpace=wrap;html=1;" vertex="1" parent="HR8rpeXf6-6Qom_NqcTh-55">
          <mxGeometry y="60" width="140" height="30" as="geometry" />
        </mxCell>
        <mxCell id="HR8rpeXf6-6Qom_NqcTh-58" value="classes.txt" style="text;strokeColor=none;fillColor=none;align=left;verticalAlign=middle;spacingLeft=4;spacingRight=4;overflow=hidden;points=[[0,0.5],[1,0.5]];portConstraint=eastwest;rotatable=0;whiteSpace=wrap;html=1;" vertex="1" parent="HR8rpeXf6-6Qom_NqcTh-55">
          <mxGeometry y="90" width="140" height="30" as="geometry" />
        </mxCell>
        <mxCell id="5rLlMyzRb_051E-A6HwV-1" style="edgeStyle=orthogonalEdgeStyle;shape=connector;rounded=0;orthogonalLoop=1;jettySize=auto;html=1;strokeColor=#009999;strokeWidth=3;align=center;verticalAlign=middle;fontFamily=Helvetica;fontSize=11;fontColor=default;labelBackgroundColor=default;endArrow=classic;" edge="1" parent="HR8rpeXf6-6Qom_NqcTh-44" source="nxVlCAJbgPpnveO0rmDA-1" target="HR8rpeXf6-6Qom_NqcTh-48">
          <mxGeometry relative="1" as="geometry" />
        </mxCell>
        <mxCell id="nxVlCAJbgPpnveO0rmDA-1" value="X-anylableing" style="rounded=1;whiteSpace=wrap;html=1;fillColor=#f5f5f5;fontColor=#333333;strokeColor=#666666;" vertex="1" parent="HR8rpeXf6-6Qom_NqcTh-44">
          <mxGeometry x="40" y="100" width="120" height="60" as="geometry" />
        </mxCell>
        <mxCell id="HR8rpeXf6-6Qom_NqcTh-61" style="edgeStyle=orthogonalEdgeStyle;rounded=0;orthogonalLoop=1;jettySize=auto;html=1;entryX=0.25;entryY=1;entryDx=0;entryDy=0;strokeColor=#00CC00;strokeWidth=3;exitX=0.5;exitY=0;exitDx=0;exitDy=0;" edge="1" parent="1" source="HR8rpeXf6-6Qom_NqcTh-48" target="HR8rpeXf6-6Qom_NqcTh-26">
          <mxGeometry relative="1" as="geometry">
            <Array as="points">
              <mxPoint x="300" y="520" />
              <mxPoint x="480" y="520" />
            </Array>
          </mxGeometry>
        </mxCell>
        <mxCell id="HR8rpeXf6-6Qom_NqcTh-62" value="自动标注舌头" style="edgeLabel;html=1;align=center;verticalAlign=middle;resizable=0;points=[];fontSize=12;" vertex="1" connectable="0" parent="HR8rpeXf6-6Qom_NqcTh-61">
          <mxGeometry x="0.2157" y="1" relative="1" as="geometry">
            <mxPoint y="1" as="offset" />
          </mxGeometry>
        </mxCell>
        <mxCell id="HR8rpeXf6-6Qom_NqcTh-63" style="edgeStyle=orthogonalEdgeStyle;rounded=0;orthogonalLoop=1;jettySize=auto;html=1;strokeWidth=3;strokeColor=#009999;" edge="1" parent="1" source="HR8rpeXf6-6Qom_NqcTh-43" target="nxVlCAJbgPpnveO0rmDA-1">
          <mxGeometry relative="1" as="geometry">
            <Array as="points">
              <mxPoint x="920" y="800" />
              <mxPoint x="140" y="800" />
            </Array>
          </mxGeometry>
        </mxCell>
        <mxCell id="HR8rpeXf6-6Qom_NqcTh-64" value="YOLO + 多分类模型" style="swimlane;whiteSpace=wrap;html=1;fillColor=#ffe6cc;strokeColor=#d79b00;" vertex="1" parent="1">
          <mxGeometry x="40" y="1160" width="1120" height="200" as="geometry" />
        </mxCell>
        <mxCell id="HR8rpeXf6-6Qom_NqcTh-65" value="YOLO 训练" style="rounded=1;whiteSpace=wrap;html=1;fillColor=#f5f5f5;fontColor=#333333;strokeColor=#666666;" vertex="1" parent="HR8rpeXf6-6Qom_NqcTh-64">
          <mxGeometry x="40" y="80" width="120" height="60" as="geometry" />
        </mxCell>
        <mxCell id="Gmn2dvWynWigOjrRq83Q-2" value="" style="edgeStyle=orthogonalEdgeStyle;rounded=0;orthogonalLoop=1;jettySize=auto;html=1;" edge="1" parent="HR8rpeXf6-6Qom_NqcTh-64" source="HR8rpeXf6-6Qom_NqcTh-66" target="OdbhRjCbo13elaivIWpb-1">
          <mxGeometry relative="1" as="geometry">
            <mxPoint x="490" y="110" as="targetPoint" />
          </mxGeometry>
        </mxCell>
        <mxCell id="HR8rpeXf6-6Qom_NqcTh-66" value="病区模型" style="shape=dataStorage;whiteSpace=wrap;html=1;fixedSize=1;fillColor=#f8cecc;strokeColor=#b85450;" vertex="1" parent="HR8rpeXf6-6Qom_NqcTh-64">
          <mxGeometry x="200" y="90" width="140" height="40" as="geometry" />
        </mxCell>
        <mxCell id="HR8rpeXf6-6Qom_NqcTh-67" style="edgeStyle=orthogonalEdgeStyle;rounded=0;orthogonalLoop=1;jettySize=auto;html=1;entryX=0;entryY=0.5;entryDx=0;entryDy=0;" edge="1" parent="HR8rpeXf6-6Qom_NqcTh-64" source="HR8rpeXf6-6Qom_NqcTh-65" target="HR8rpeXf6-6Qom_NqcTh-66">
          <mxGeometry relative="1" as="geometry" />
        </mxCell>
        <mxCell id="OdbhRjCbo13elaivIWpb-2" style="edgeStyle=orthogonalEdgeStyle;rounded=0;orthogonalLoop=1;jettySize=auto;html=1;" edge="1" parent="HR8rpeXf6-6Qom_NqcTh-64" source="OdbhRjCbo13elaivIWpb-1" target="HR8rpeXf6-6Qom_NqcTh-4">
          <mxGeometry relative="1" as="geometry" />
        </mxCell>
        <mxCell id="OdbhRjCbo13elaivIWpb-1" value="YOLO 识别" style="rounded=1;whiteSpace=wrap;html=1;fillColor=#f5f5f5;fontColor=#333333;strokeColor=#666666;" vertex="1" parent="HR8rpeXf6-6Qom_NqcTh-64">
          <mxGeometry x="400" y="80" width="120" height="60" as="geometry" />
        </mxCell>
        <mxCell id="HR8rpeXf6-6Qom_NqcTh-4" value="boxes" style="swimlane;fontStyle=0;childLayout=stackLayout;horizontal=1;startSize=30;horizontalStack=0;resizeParent=1;resizeParentMax=0;resizeLast=0;collapsible=1;marginBottom=0;whiteSpace=wrap;html=1;fillColor=#cce5ff;strokeColor=#36393d;" vertex="1" parent="HR8rpeXf6-6Qom_NqcTh-64">
          <mxGeometry x="560" y="50" width="140" height="120" as="geometry" />
        </mxCell>
        <mxCell id="HR8rpeXf6-6Qom_NqcTh-5" value="抑郁症" style="text;strokeColor=none;fillColor=none;align=left;verticalAlign=middle;spacingLeft=4;spacingRight=4;overflow=hidden;points=[[0,0.5],[1,0.5]];portConstraint=eastwest;rotatable=0;whiteSpace=wrap;html=1;" vertex="1" parent="HR8rpeXf6-6Qom_NqcTh-4">
          <mxGeometry y="30" width="140" height="30" as="geometry" />
        </mxCell>
        <mxCell id="HR8rpeXf6-6Qom_NqcTh-6" value="其他" style="text;strokeColor=none;fillColor=none;align=left;verticalAlign=middle;spacingLeft=4;spacingRight=4;overflow=hidden;points=[[0,0.5],[1,0.5]];portConstraint=eastwest;rotatable=0;whiteSpace=wrap;html=1;" vertex="1" parent="HR8rpeXf6-6Qom_NqcTh-4">
          <mxGeometry y="60" width="140" height="30" as="geometry" />
        </mxCell>
        <mxCell id="HR8rpeXf6-6Qom_NqcTh-7" value="心脑血管" style="text;strokeColor=none;fillColor=none;align=left;verticalAlign=middle;spacingLeft=4;spacingRight=4;overflow=hidden;points=[[0,0.5],[1,0.5]];portConstraint=eastwest;rotatable=0;whiteSpace=wrap;html=1;" vertex="1" parent="HR8rpeXf6-6Qom_NqcTh-4">
          <mxGeometry y="90" width="140" height="30" as="geometry" />
        </mxCell>
        <mxCell id="OdbhRjCbo13elaivIWpb-24" style="edgeStyle=orthogonalEdgeStyle;rounded=0;orthogonalLoop=1;jettySize=auto;html=1;" edge="1" parent="HR8rpeXf6-6Qom_NqcTh-64" source="HzAy3d9V3fzhvw-NYY2O-7" target="OdbhRjCbo13elaivIWpb-4">
          <mxGeometry relative="1" as="geometry" />
        </mxCell>
        <mxCell id="HzAy3d9V3fzhvw-NYY2O-7" value="多分类" style="swimlane;fontStyle=0;childLayout=stackLayout;horizontal=1;startSize=30;horizontalStack=0;resizeParent=1;resizeParentMax=0;resizeLast=0;collapsible=1;marginBottom=0;whiteSpace=wrap;html=1;fillColor=#cdeb8b;strokeColor=#36393d;" vertex="1" parent="HR8rpeXf6-6Qom_NqcTh-64">
          <mxGeometry x="750" y="50" width="140" height="120" as="geometry" />
        </mxCell>
        <mxCell id="HzAy3d9V3fzhvw-NYY2O-8" value="抑郁症" style="text;strokeColor=none;fillColor=none;align=left;verticalAlign=middle;spacingLeft=4;spacingRight=4;overflow=hidden;points=[[0,0.5],[1,0.5]];portConstraint=eastwest;rotatable=0;whiteSpace=wrap;html=1;" vertex="1" parent="HzAy3d9V3fzhvw-NYY2O-7">
          <mxGeometry y="30" width="140" height="30" as="geometry" />
        </mxCell>
        <mxCell id="HzAy3d9V3fzhvw-NYY2O-9" value="心脑血管" style="text;strokeColor=none;fillColor=none;align=left;verticalAlign=middle;spacingLeft=4;spacingRight=4;overflow=hidden;points=[[0,0.5],[1,0.5]];portConstraint=eastwest;rotatable=0;whiteSpace=wrap;html=1;" vertex="1" parent="HzAy3d9V3fzhvw-NYY2O-7">
          <mxGeometry y="60" width="140" height="30" as="geometry" />
        </mxCell>
        <mxCell id="HzAy3d9V3fzhvw-NYY2O-10" value="其他" style="text;strokeColor=none;fillColor=none;align=left;verticalAlign=middle;spacingLeft=4;spacingRight=4;overflow=hidden;points=[[0,0.5],[1,0.5]];portConstraint=eastwest;rotatable=0;whiteSpace=wrap;html=1;" vertex="1" parent="HzAy3d9V3fzhvw-NYY2O-7">
          <mxGeometry y="90" width="140" height="30" as="geometry" />
        </mxCell>
        <mxCell id="OdbhRjCbo13elaivIWpb-3" style="edgeStyle=orthogonalEdgeStyle;rounded=0;orthogonalLoop=1;jettySize=auto;html=1;" edge="1" parent="HR8rpeXf6-6Qom_NqcTh-64" source="HR8rpeXf6-6Qom_NqcTh-6" target="HzAy3d9V3fzhvw-NYY2O-9">
          <mxGeometry relative="1" as="geometry" />
        </mxCell>
        <mxCell id="OdbhRjCbo13elaivIWpb-4" value="多分类诊断模型" style="shape=dataStorage;whiteSpace=wrap;html=1;fixedSize=1;fillColor=#f8cecc;strokeColor=#b85450;" vertex="1" parent="HR8rpeXf6-6Qom_NqcTh-64">
          <mxGeometry x="940" y="90" width="140" height="40" as="geometry" />
        </mxCell>
        <mxCell id="HR8rpeXf6-6Qom_NqcTh-68" value="舌诊终端/App/小程序" style="swimlane;whiteSpace=wrap;html=1;fillColor=#fff2cc;strokeColor=#d6b656;" vertex="1" parent="1">
          <mxGeometry x="40" y="1440" width="1360" height="320" as="geometry" />
        </mxCell>
        <mxCell id="HR8rpeXf6-6Qom_NqcTh-69" value="" style="edgeStyle=orthogonalEdgeStyle;rounded=0;orthogonalLoop=1;jettySize=auto;html=1;" edge="1" parent="HR8rpeXf6-6Qom_NqcTh-68" source="HR8rpeXf6-6Qom_NqcTh-70" target="HR8rpeXf6-6Qom_NqcTh-72">
          <mxGeometry relative="1" as="geometry" />
        </mxCell>
        <mxCell id="HR8rpeXf6-6Qom_NqcTh-70" value="Actor" style="shape=umlActor;verticalLabelPosition=bottom;verticalAlign=top;html=1;outlineConnect=0;fillColor=#f5f5f5;fontColor=#333333;strokeColor=#666666;" vertex="1" parent="HR8rpeXf6-6Qom_NqcTh-68">
          <mxGeometry x="40" y="190" width="30" height="60" as="geometry" />
        </mxCell>
        <mxCell id="HR8rpeXf6-6Qom_NqcTh-71" value="" style="edgeStyle=orthogonalEdgeStyle;rounded=0;orthogonalLoop=1;jettySize=auto;html=1;" edge="1" parent="HR8rpeXf6-6Qom_NqcTh-68" source="HR8rpeXf6-6Qom_NqcTh-72" target="HR8rpeXf6-6Qom_NqcTh-74">
          <mxGeometry relative="1" as="geometry" />
        </mxCell>
        <mxCell id="HR8rpeXf6-6Qom_NqcTh-72" value="云接口" style="ellipse;shape=cloud;whiteSpace=wrap;html=1;verticalAlign=middle;fillColor=#dae8fc;strokeColor=#6c8ebf;" vertex="1" parent="HR8rpeXf6-6Qom_NqcTh-68">
          <mxGeometry x="120" y="180" width="125" height="80" as="geometry" />
        </mxCell>
        <mxCell id="HR8rpeXf6-6Qom_NqcTh-73" value="" style="edgeStyle=orthogonalEdgeStyle;rounded=0;orthogonalLoop=1;jettySize=auto;html=1;" edge="1" parent="HR8rpeXf6-6Qom_NqcTh-68" source="HR8rpeXf6-6Qom_NqcTh-74" target="HR8rpeXf6-6Qom_NqcTh-76">
          <mxGeometry relative="1" as="geometry" />
        </mxCell>
        <mxCell id="HR8rpeXf6-6Qom_NqcTh-74" value="上传图像" style="rounded=1;whiteSpace=wrap;html=1;fillColor=#d5e8d4;strokeColor=#82b366;" vertex="1" parent="HR8rpeXf6-6Qom_NqcTh-68">
          <mxGeometry x="280" y="190" width="120" height="60" as="geometry" />
        </mxCell>
        <mxCell id="HR8rpeXf6-6Qom_NqcTh-75" style="edgeStyle=orthogonalEdgeStyle;rounded=0;orthogonalLoop=1;jettySize=auto;html=1;" edge="1" parent="HR8rpeXf6-6Qom_NqcTh-68" source="HR8rpeXf6-6Qom_NqcTh-76" target="HR8rpeXf6-6Qom_NqcTh-79">
          <mxGeometry relative="1" as="geometry" />
        </mxCell>
        <mxCell id="OdbhRjCbo13elaivIWpb-31" style="edgeStyle=orthogonalEdgeStyle;rounded=0;orthogonalLoop=1;jettySize=auto;html=1;" edge="1" parent="HR8rpeXf6-6Qom_NqcTh-68" source="HR8rpeXf6-6Qom_NqcTh-76" target="OdbhRjCbo13elaivIWpb-30">
          <mxGeometry relative="1" as="geometry" />
        </mxCell>
        <mxCell id="HR8rpeXf6-6Qom_NqcTh-76" value="诊断接口" style="rounded=1;whiteSpace=wrap;html=1;fillColor=#ffe6cc;strokeColor=#d79b00;" vertex="1" parent="HR8rpeXf6-6Qom_NqcTh-68">
          <mxGeometry x="440" y="190" width="120" height="60" as="geometry" />
        </mxCell>
        <mxCell id="HR8rpeXf6-6Qom_NqcTh-77" value="" style="edgeStyle=orthogonalEdgeStyle;rounded=0;orthogonalLoop=1;jettySize=auto;html=1;exitX=1;exitY=0.5;exitDx=0;exitDy=0;" edge="1" parent="HR8rpeXf6-6Qom_NqcTh-68" source="OdbhRjCbo13elaivIWpb-28" target="HR8rpeXf6-6Qom_NqcTh-81">
          <mxGeometry relative="1" as="geometry" />
        </mxCell>
        <mxCell id="HR8rpeXf6-6Qom_NqcTh-78" style="edgeStyle=orthogonalEdgeStyle;rounded=0;orthogonalLoop=1;jettySize=auto;html=1;exitX=1;exitY=0.5;exitDx=0;exitDy=0;" edge="1" parent="HR8rpeXf6-6Qom_NqcTh-68" source="OdbhRjCbo13elaivIWpb-28" target="HR8rpeXf6-6Qom_NqcTh-83">
          <mxGeometry relative="1" as="geometry" />
        </mxCell>
        <mxCell id="OdbhRjCbo13elaivIWpb-29" style="edgeStyle=orthogonalEdgeStyle;rounded=0;orthogonalLoop=1;jettySize=auto;html=1;" edge="1" parent="HR8rpeXf6-6Qom_NqcTh-68" source="HR8rpeXf6-6Qom_NqcTh-79" target="OdbhRjCbo13elaivIWpb-28">
          <mxGeometry relative="1" as="geometry" />
        </mxCell>
        <mxCell id="HR8rpeXf6-6Qom_NqcTh-79" value="载入YOLO模型" style="shape=step;perimeter=stepPerimeter;whiteSpace=wrap;html=1;fixedSize=1;fillColor=#fff2cc;strokeColor=#d6b656;" vertex="1" parent="HR8rpeXf6-6Qom_NqcTh-68">
          <mxGeometry x="440" y="80" width="120" height="40" as="geometry" />
        </mxCell>
        <mxCell id="HR8rpeXf6-6Qom_NqcTh-80" style="edgeStyle=orthogonalEdgeStyle;rounded=0;orthogonalLoop=1;jettySize=auto;html=1;entryX=0;entryY=0.25;entryDx=0;entryDy=0;" edge="1" parent="HR8rpeXf6-6Qom_NqcTh-68" source="HR8rpeXf6-6Qom_NqcTh-81" target="HR8rpeXf6-6Qom_NqcTh-86">
          <mxGeometry relative="1" as="geometry" />
        </mxCell>
        <mxCell id="HR8rpeXf6-6Qom_NqcTh-81" value="&lt;div&gt;舌头&lt;/div&gt;boxes" style="shape=step;perimeter=stepPerimeter;whiteSpace=wrap;html=1;fixedSize=1;fillColor=#f8cecc;strokeColor=#b85450;" vertex="1" parent="HR8rpeXf6-6Qom_NqcTh-68">
          <mxGeometry x="880" y="40" width="120" height="40" as="geometry" />
        </mxCell>
        <mxCell id="HR8rpeXf6-6Qom_NqcTh-82" style="edgeStyle=orthogonalEdgeStyle;rounded=0;orthogonalLoop=1;jettySize=auto;html=1;entryX=0;entryY=0.75;entryDx=0;entryDy=0;" edge="1" parent="HR8rpeXf6-6Qom_NqcTh-68" source="HR8rpeXf6-6Qom_NqcTh-83" target="HR8rpeXf6-6Qom_NqcTh-86">
          <mxGeometry relative="1" as="geometry">
            <Array as="points">
              <mxPoint x="1023" y="150" />
              <mxPoint x="1023" y="108" />
            </Array>
          </mxGeometry>
        </mxCell>
        <mxCell id="HR8rpeXf6-6Qom_NqcTh-83" value="&lt;div&gt;label&lt;/div&gt;&lt;div&gt;诊断标签&lt;/div&gt;" style="shape=step;perimeter=stepPerimeter;whiteSpace=wrap;html=1;fixedSize=1;fillColor=#e1d5e7;strokeColor=#9673a6;" vertex="1" parent="HR8rpeXf6-6Qom_NqcTh-68">
          <mxGeometry x="880" y="120" width="120" height="40" as="geometry" />
        </mxCell>
        <mxCell id="HR8rpeXf6-6Qom_NqcTh-84" style="edgeStyle=orthogonalEdgeStyle;rounded=0;orthogonalLoop=1;jettySize=auto;html=1;strokeWidth=3;strokeColor=#FF0080;" edge="1" parent="HR8rpeXf6-6Qom_NqcTh-68" source="HR8rpeXf6-6Qom_NqcTh-86" target="HR8rpeXf6-6Qom_NqcTh-70">
          <mxGeometry relative="1" as="geometry">
            <Array as="points">
              <mxPoint x="1253" y="100" />
              <mxPoint x="1253" y="280" />
              <mxPoint x="55" y="280" />
            </Array>
          </mxGeometry>
        </mxCell>
        <mxCell id="HR8rpeXf6-6Qom_NqcTh-85" value="返回图像和结论给用户" style="edgeLabel;html=1;align=center;verticalAlign=middle;resizable=0;points=[];" vertex="1" connectable="0" parent="HR8rpeXf6-6Qom_NqcTh-84">
          <mxGeometry x="0.0378" y="-1" relative="1" as="geometry">
            <mxPoint as="offset" />
          </mxGeometry>
        </mxCell>
        <mxCell id="HR8rpeXf6-6Qom_NqcTh-86" value="输出图像" style="shape=step;perimeter=stepPerimeter;whiteSpace=wrap;html=1;fixedSize=1;fillColor=#b0e3e6;strokeColor=#0e8088;" vertex="1" parent="HR8rpeXf6-6Qom_NqcTh-68">
          <mxGeometry x="1053" y="80" width="120" height="40" as="geometry" />
        </mxCell>
        <mxCell id="OdbhRjCbo13elaivIWpb-28" value="YOLO11" style="rounded=1;whiteSpace=wrap;html=1;fillColor=#cdeb8b;strokeColor=#36393d;" vertex="1" parent="HR8rpeXf6-6Qom_NqcTh-68">
          <mxGeometry x="700" y="80" width="120" height="40" as="geometry" />
        </mxCell>
        <mxCell id="OdbhRjCbo13elaivIWpb-32" style="edgeStyle=orthogonalEdgeStyle;rounded=0;orthogonalLoop=1;jettySize=auto;html=1;" edge="1" parent="HR8rpeXf6-6Qom_NqcTh-68" source="OdbhRjCbo13elaivIWpb-30" target="HR8rpeXf6-6Qom_NqcTh-10">
          <mxGeometry relative="1" as="geometry" />
        </mxCell>
        <mxCell id="OdbhRjCbo13elaivIWpb-30" value="载入多分类模型" style="shape=step;perimeter=stepPerimeter;whiteSpace=wrap;html=1;fixedSize=1;fillColor=#fff2cc;strokeColor=#d6b656;" vertex="1" parent="HR8rpeXf6-6Qom_NqcTh-68">
          <mxGeometry x="600" y="200" width="120" height="40" as="geometry" />
        </mxCell>
        <mxCell id="HzAy3d9V3fzhvw-NYY2O-22" value="JSON 结果" style="rounded=1;whiteSpace=wrap;html=1;fillColor=#cce5ff;strokeColor=#36393d;" vertex="1" parent="HR8rpeXf6-6Qom_NqcTh-68">
          <mxGeometry x="1201" y="190" width="120" height="60" as="geometry" />
        </mxCell>
        <mxCell id="OdbhRjCbo13elaivIWpb-33" style="edgeStyle=orthogonalEdgeStyle;rounded=0;orthogonalLoop=1;jettySize=auto;html=1;" edge="1" parent="HR8rpeXf6-6Qom_NqcTh-68" source="HR8rpeXf6-6Qom_NqcTh-10" target="HzAy3d9V3fzhvw-NYY2O-22">
          <mxGeometry relative="1" as="geometry" />
        </mxCell>
        <mxCell id="HR8rpeXf6-6Qom_NqcTh-10" value="0～1 置信度，诊断结果" style="rounded=1;whiteSpace=wrap;html=1;fillColor=#ffff88;strokeColor=#36393d;" vertex="1" parent="HR8rpeXf6-6Qom_NqcTh-68">
          <mxGeometry x="860" y="200" width="160" height="40" as="geometry" />
        </mxCell>
        <mxCell id="HR8rpeXf6-6Qom_NqcTh-87" value="切出舌头区域" style="shape=callout;whiteSpace=wrap;html=1;perimeter=calloutPerimeter;fillColor=#e1d5e7;strokeColor=#9673a6;" vertex="1" parent="1">
          <mxGeometry x="790" y="540" width="120" height="80" as="geometry" />
        </mxCell>
        <mxCell id="HR8rpeXf6-6Qom_NqcTh-88" value="&lt;h1 style=&quot;margin-top: 0px;&quot;&gt;中医舌诊系统 - 多分类方案架构图&lt;/h1&gt;&lt;p&gt;&lt;font style=&quot;font-size: 15px;&quot;&gt;基于人工智能的中医舌诊系统&lt;/font&gt;&lt;/p&gt;" style="text;html=1;whiteSpace=wrap;overflow=hidden;rounded=0;" vertex="1" parent="1">
          <mxGeometry x="40" y="40" width="670" height="80" as="geometry" />
        </mxCell>
        <mxCell id="OdbhRjCbo13elaivIWpb-26" style="edgeStyle=orthogonalEdgeStyle;rounded=0;orthogonalLoop=1;jettySize=auto;html=1;strokeWidth=3;strokeColor=#7F00FF;" edge="1" parent="1" source="HR8rpeXf6-6Qom_NqcTh-79" target="HR8rpeXf6-6Qom_NqcTh-66">
          <mxGeometry relative="1" as="geometry">
            <Array as="points">
              <mxPoint x="550" y="1400" />
              <mxPoint x="310" y="1400" />
            </Array>
          </mxGeometry>
        </mxCell>
        <mxCell id="HR8rpeXf6-6Qom_NqcTh-59" style="edgeStyle=orthogonalEdgeStyle;rounded=0;orthogonalLoop=1;jettySize=auto;html=1;entryX=0.5;entryY=0;entryDx=0;entryDy=0;strokeWidth=3;strokeColor=#0000FF;exitX=0.5;exitY=1;exitDx=0;exitDy=0;" edge="1" parent="1" target="HR8rpeXf6-6Qom_NqcTh-66" source="HR8rpeXf6-6Qom_NqcTh-48">
          <mxGeometry relative="1" as="geometry">
            <mxPoint x="132.5" y="1000" as="sourcePoint" />
            <mxPoint x="947.5" y="990" as="targetPoint" />
            <Array as="points">
              <mxPoint x="300" y="1120" />
              <mxPoint x="310" y="1120" />
            </Array>
          </mxGeometry>
        </mxCell>
        <mxCell id="HR8rpeXf6-6Qom_NqcTh-60" value="自动标注病区" style="edgeLabel;html=1;align=center;verticalAlign=middle;resizable=0;points=[];fontSize=12;" vertex="1" connectable="0" parent="HR8rpeXf6-6Qom_NqcTh-59">
          <mxGeometry x="0.0376" y="2" relative="1" as="geometry">
            <mxPoint x="-2" y="15" as="offset" />
          </mxGeometry>
        </mxCell>
      </root>
    </mxGraphModel>
  </diagram>
  <diagram id="WqTLqbkAlp7Rgayndh-S" name="中医舌诊-视觉语言模型">
    <mxGraphModel dx="2522" dy="1519" grid="1" gridSize="10" guides="1" tooltips="1" connect="1" arrows="1" fold="1" page="1" pageScale="1" pageWidth="827" pageHeight="1169" math="0" shadow="0">
      <root>
        <mxCell id="0" />
        <mxCell id="1" parent="0" />
        <mxCell id="ddOFDk4EkhnSvFDgT97D-1" style="edgeStyle=orthogonalEdgeStyle;rounded=0;orthogonalLoop=1;jettySize=auto;html=1;strokeWidth=3;strokeColor=#FF3333;" edge="1" parent="1" source="ddOFDk4EkhnSvFDgT97D-24" target="ddOFDk4EkhnSvFDgT97D-16">
          <mxGeometry relative="1" as="geometry" />
        </mxCell>
        <mxCell id="ddOFDk4EkhnSvFDgT97D-3" style="edgeStyle=orthogonalEdgeStyle;rounded=0;orthogonalLoop=1;jettySize=auto;html=1;exitX=0.5;exitY=0;exitDx=0;exitDy=0;strokeWidth=3;strokeColor=#CCCC00;entryX=0.5;entryY=1;entryDx=0;entryDy=0;" edge="1" parent="1" source="ddOFDk4EkhnSvFDgT97D-95" target="ddOFDk4EkhnSvFDgT97D-71">
          <mxGeometry relative="1" as="geometry">
            <mxPoint x="550" y="1220" as="targetPoint" />
            <mxPoint x="1160" y="1540" as="sourcePoint" />
            <Array as="points">
              <mxPoint x="700" y="1360" />
              <mxPoint x="790" y="1360" />
            </Array>
          </mxGeometry>
        </mxCell>
        <mxCell id="ddOFDk4EkhnSvFDgT97D-4" value="舌头形状模型" style="swimlane;whiteSpace=wrap;html=1;fillColor=#dae8fc;strokeColor=#6c8ebf;" vertex="1" parent="1">
          <mxGeometry x="40" y="120" width="590" height="360" as="geometry" />
        </mxCell>
        <mxCell id="ddOFDk4EkhnSvFDgT97D-5" value="舌面图片" style="swimlane;fontStyle=0;childLayout=stackLayout;horizontal=1;startSize=30;horizontalStack=0;resizeParent=1;resizeParentMax=0;resizeLast=0;collapsible=1;marginBottom=0;whiteSpace=wrap;html=1;fillColor=#e1d5e7;strokeColor=#9673a6;" vertex="1" parent="ddOFDk4EkhnSvFDgT97D-4">
          <mxGeometry x="40" y="50" width="140" height="120" as="geometry" />
        </mxCell>
        <mxCell id="ddOFDk4EkhnSvFDgT97D-6" value="Item 1" style="text;strokeColor=none;fillColor=none;align=left;verticalAlign=middle;spacingLeft=4;spacingRight=4;overflow=hidden;points=[[0,0.5],[1,0.5]];portConstraint=eastwest;rotatable=0;whiteSpace=wrap;html=1;" vertex="1" parent="ddOFDk4EkhnSvFDgT97D-5">
          <mxGeometry y="30" width="140" height="30" as="geometry" />
        </mxCell>
        <mxCell id="ddOFDk4EkhnSvFDgT97D-7" value="Item 2" style="text;strokeColor=none;fillColor=none;align=left;verticalAlign=middle;spacingLeft=4;spacingRight=4;overflow=hidden;points=[[0,0.5],[1,0.5]];portConstraint=eastwest;rotatable=0;whiteSpace=wrap;html=1;" vertex="1" parent="ddOFDk4EkhnSvFDgT97D-5">
          <mxGeometry y="60" width="140" height="30" as="geometry" />
        </mxCell>
        <mxCell id="ddOFDk4EkhnSvFDgT97D-8" value="Item 3" style="text;strokeColor=none;fillColor=none;align=left;verticalAlign=middle;spacingLeft=4;spacingRight=4;overflow=hidden;points=[[0,0.5],[1,0.5]];portConstraint=eastwest;rotatable=0;whiteSpace=wrap;html=1;" vertex="1" parent="ddOFDk4EkhnSvFDgT97D-5">
          <mxGeometry y="90" width="140" height="30" as="geometry" />
        </mxCell>
        <mxCell id="ddOFDk4EkhnSvFDgT97D-9" value="舌背图片" style="swimlane;fontStyle=0;childLayout=stackLayout;horizontal=1;startSize=30;horizontalStack=0;resizeParent=1;resizeParentMax=0;resizeLast=0;collapsible=1;marginBottom=0;whiteSpace=wrap;html=1;fillColor=#f8cecc;strokeColor=#b85450;" vertex="1" parent="ddOFDk4EkhnSvFDgT97D-4">
          <mxGeometry x="40" y="210" width="140" height="120" as="geometry" />
        </mxCell>
        <mxCell id="ddOFDk4EkhnSvFDgT97D-10" value="Item 1" style="text;strokeColor=none;fillColor=none;align=left;verticalAlign=middle;spacingLeft=4;spacingRight=4;overflow=hidden;points=[[0,0.5],[1,0.5]];portConstraint=eastwest;rotatable=0;whiteSpace=wrap;html=1;" vertex="1" parent="ddOFDk4EkhnSvFDgT97D-9">
          <mxGeometry y="30" width="140" height="30" as="geometry" />
        </mxCell>
        <mxCell id="ddOFDk4EkhnSvFDgT97D-11" value="Item 2" style="text;strokeColor=none;fillColor=none;align=left;verticalAlign=middle;spacingLeft=4;spacingRight=4;overflow=hidden;points=[[0,0.5],[1,0.5]];portConstraint=eastwest;rotatable=0;whiteSpace=wrap;html=1;" vertex="1" parent="ddOFDk4EkhnSvFDgT97D-9">
          <mxGeometry y="60" width="140" height="30" as="geometry" />
        </mxCell>
        <mxCell id="ddOFDk4EkhnSvFDgT97D-12" value="Item 3" style="text;strokeColor=none;fillColor=none;align=left;verticalAlign=middle;spacingLeft=4;spacingRight=4;overflow=hidden;points=[[0,0.5],[1,0.5]];portConstraint=eastwest;rotatable=0;whiteSpace=wrap;html=1;" vertex="1" parent="ddOFDk4EkhnSvFDgT97D-9">
          <mxGeometry y="90" width="140" height="30" as="geometry" />
        </mxCell>
        <mxCell id="ddOFDk4EkhnSvFDgT97D-13" style="edgeStyle=orthogonalEdgeStyle;rounded=0;orthogonalLoop=1;jettySize=auto;html=1;" edge="1" parent="ddOFDk4EkhnSvFDgT97D-4" source="ddOFDk4EkhnSvFDgT97D-14" target="ddOFDk4EkhnSvFDgT97D-16">
          <mxGeometry relative="1" as="geometry" />
        </mxCell>
        <mxCell id="ddOFDk4EkhnSvFDgT97D-14" value="YOLO 训练" style="rounded=1;whiteSpace=wrap;html=1;fillColor=#fff2cc;strokeColor=#d6b656;" vertex="1" parent="ddOFDk4EkhnSvFDgT97D-4">
          <mxGeometry x="240" y="170" width="120" height="40" as="geometry" />
        </mxCell>
        <mxCell id="ddOFDk4EkhnSvFDgT97D-15" style="edgeStyle=orthogonalEdgeStyle;rounded=0;orthogonalLoop=1;jettySize=auto;html=1;" edge="1" parent="ddOFDk4EkhnSvFDgT97D-4" source="ddOFDk4EkhnSvFDgT97D-7" target="ddOFDk4EkhnSvFDgT97D-14">
          <mxGeometry relative="1" as="geometry" />
        </mxCell>
        <mxCell id="ddOFDk4EkhnSvFDgT97D-16" value="舌头形状模型" style="shape=dataStorage;whiteSpace=wrap;html=1;fixedSize=1;fillColor=#dae8fc;strokeColor=#6c8ebf;" vertex="1" parent="ddOFDk4EkhnSvFDgT97D-4">
          <mxGeometry x="400" y="170" width="160" height="40" as="geometry" />
        </mxCell>
        <mxCell id="ddOFDk4EkhnSvFDgT97D-17" style="edgeStyle=orthogonalEdgeStyle;rounded=0;orthogonalLoop=1;jettySize=auto;html=1;" edge="1" parent="ddOFDk4EkhnSvFDgT97D-4" source="ddOFDk4EkhnSvFDgT97D-11" target="ddOFDk4EkhnSvFDgT97D-14">
          <mxGeometry relative="1" as="geometry" />
        </mxCell>
        <mxCell id="ddOFDk4EkhnSvFDgT97D-18" value="第一阶段，得到舌头形状" style="shape=callout;whiteSpace=wrap;html=1;perimeter=calloutPerimeter;fillColor=#ffe6cc;strokeColor=#d79b00;" vertex="1" parent="ddOFDk4EkhnSvFDgT97D-4">
          <mxGeometry x="440" y="90" width="120" height="80" as="geometry" />
        </mxCell>
        <mxCell id="ddOFDk4EkhnSvFDgT97D-19" value="YOLO 预处理训练素材" style="swimlane;horizontal=1;whiteSpace=wrap;html=1;direction=east;fillColor=#d5e8d4;strokeColor=#82b366;" vertex="1" parent="1">
          <mxGeometry x="40" y="560" width="840" height="280" as="geometry" />
        </mxCell>
        <mxCell id="zzhu0czMKqy3ecCgwcXk-4" style="edgeStyle=orthogonalEdgeStyle;rounded=0;orthogonalLoop=1;jettySize=auto;html=1;" edge="1" parent="ddOFDk4EkhnSvFDgT97D-19" source="ddOFDk4EkhnSvFDgT97D-21" target="ddOFDk4EkhnSvFDgT97D-23">
          <mxGeometry relative="1" as="geometry" />
        </mxCell>
        <mxCell id="ddOFDk4EkhnSvFDgT97D-21" value="修改尺寸&lt;div&gt;1024&lt;/div&gt;" style="shape=step;perimeter=stepPerimeter;whiteSpace=wrap;html=1;fixedSize=1;fillColor=#ffe6cc;strokeColor=#d79b00;" vertex="1" parent="ddOFDk4EkhnSvFDgT97D-19">
          <mxGeometry x="500" y="80" width="120" height="80" as="geometry" />
        </mxCell>
        <mxCell id="ddOFDk4EkhnSvFDgT97D-22" style="edgeStyle=orthogonalEdgeStyle;rounded=0;orthogonalLoop=1;jettySize=auto;html=1;" edge="1" parent="ddOFDk4EkhnSvFDgT97D-19" source="ddOFDk4EkhnSvFDgT97D-23" target="ddOFDk4EkhnSvFDgT97D-33">
          <mxGeometry relative="1" as="geometry" />
        </mxCell>
        <mxCell id="ddOFDk4EkhnSvFDgT97D-23" value="&lt;div&gt;输出图像&lt;/div&gt;" style="shape=step;perimeter=stepPerimeter;whiteSpace=wrap;html=1;fixedSize=1;fillColor=#fff2cc;strokeColor=#d6b656;" vertex="1" parent="ddOFDk4EkhnSvFDgT97D-19">
          <mxGeometry x="500" y="200" width="120" height="40" as="geometry" />
        </mxCell>
        <mxCell id="ddOFDk4EkhnSvFDgT97D-24" value="&lt;div&gt;处理&lt;/div&gt;&lt;div&gt;通过舌头模型&lt;/div&gt;&lt;div&gt;切出舌头部位&lt;/div&gt;" style="shape=step;perimeter=stepPerimeter;whiteSpace=wrap;html=1;fixedSize=1;fillColor=#d5e8d4;strokeColor=#82b366;" vertex="1" parent="ddOFDk4EkhnSvFDgT97D-19">
          <mxGeometry x="360" y="80" width="120" height="80" as="geometry" />
        </mxCell>
        <mxCell id="ddOFDk4EkhnSvFDgT97D-25" style="edgeStyle=orthogonalEdgeStyle;rounded=0;orthogonalLoop=1;jettySize=auto;html=1;" edge="1" parent="ddOFDk4EkhnSvFDgT97D-19" source="ddOFDk4EkhnSvFDgT97D-24" target="ddOFDk4EkhnSvFDgT97D-21">
          <mxGeometry relative="1" as="geometry" />
        </mxCell>
        <mxCell id="ddOFDk4EkhnSvFDgT97D-26" value="输入&lt;div&gt;初始化操作&lt;/div&gt;" style="shape=step;perimeter=stepPerimeter;whiteSpace=wrap;html=1;fixedSize=1;fillColor=#dae8fc;strokeColor=#6c8ebf;" vertex="1" parent="ddOFDk4EkhnSvFDgT97D-19">
          <mxGeometry x="220" y="80" width="120" height="80" as="geometry" />
        </mxCell>
        <mxCell id="ddOFDk4EkhnSvFDgT97D-27" value="" style="edgeStyle=orthogonalEdgeStyle;rounded=0;orthogonalLoop=1;jettySize=auto;html=1;" edge="1" parent="ddOFDk4EkhnSvFDgT97D-19" source="ddOFDk4EkhnSvFDgT97D-26" target="ddOFDk4EkhnSvFDgT97D-24">
          <mxGeometry relative="1" as="geometry" />
        </mxCell>
        <mxCell id="ddOFDk4EkhnSvFDgT97D-28" value="抑郁症图片" style="swimlane;fontStyle=0;childLayout=stackLayout;horizontal=1;startSize=30;horizontalStack=0;resizeParent=1;resizeParentMax=0;resizeLast=0;collapsible=1;marginBottom=0;whiteSpace=wrap;html=1;fillColor=#f5f5f5;fontColor=#333333;strokeColor=#666666;" vertex="1" parent="ddOFDk4EkhnSvFDgT97D-19">
          <mxGeometry x="40" y="60" width="140" height="120" as="geometry" />
        </mxCell>
        <mxCell id="ddOFDk4EkhnSvFDgT97D-29" value="舌面标签" style="text;strokeColor=none;fillColor=none;align=left;verticalAlign=middle;spacingLeft=4;spacingRight=4;overflow=hidden;points=[[0,0.5],[1,0.5]];portConstraint=eastwest;rotatable=0;whiteSpace=wrap;html=1;" vertex="1" parent="ddOFDk4EkhnSvFDgT97D-28">
          <mxGeometry y="30" width="140" height="30" as="geometry" />
        </mxCell>
        <mxCell id="ddOFDk4EkhnSvFDgT97D-30" value="舌底标签" style="text;strokeColor=none;fillColor=none;align=left;verticalAlign=middle;spacingLeft=4;spacingRight=4;overflow=hidden;points=[[0,0.5],[1,0.5]];portConstraint=eastwest;rotatable=0;whiteSpace=wrap;html=1;" vertex="1" parent="ddOFDk4EkhnSvFDgT97D-28">
          <mxGeometry y="60" width="140" height="30" as="geometry" />
        </mxCell>
        <mxCell id="ddOFDk4EkhnSvFDgT97D-31" value="其他" style="text;strokeColor=none;fillColor=none;align=left;verticalAlign=middle;spacingLeft=4;spacingRight=4;overflow=hidden;points=[[0,0.5],[1,0.5]];portConstraint=eastwest;rotatable=0;whiteSpace=wrap;html=1;" vertex="1" parent="ddOFDk4EkhnSvFDgT97D-28">
          <mxGeometry y="90" width="140" height="30" as="geometry" />
        </mxCell>
        <mxCell id="ddOFDk4EkhnSvFDgT97D-32" style="edgeStyle=orthogonalEdgeStyle;rounded=0;orthogonalLoop=1;jettySize=auto;html=1;" edge="1" parent="ddOFDk4EkhnSvFDgT97D-19" source="ddOFDk4EkhnSvFDgT97D-28" target="ddOFDk4EkhnSvFDgT97D-26">
          <mxGeometry relative="1" as="geometry">
            <mxPoint x="230" y="130" as="targetPoint" />
          </mxGeometry>
        </mxCell>
        <mxCell id="ddOFDk4EkhnSvFDgT97D-33" value="&lt;div&gt;提示词&lt;br&gt;&lt;/div&gt;为图像补充描述提示词" style="shape=document;whiteSpace=wrap;html=1;boundedLbl=1;fillColor=#f8cecc;strokeColor=#b85450;" vertex="1" parent="ddOFDk4EkhnSvFDgT97D-19">
          <mxGeometry x="660" y="180" width="120" height="80" as="geometry" />
        </mxCell>
        <mxCell id="zzhu0czMKqy3ecCgwcXk-1" value="&lt;div&gt;输出&lt;/div&gt;&lt;div&gt;换为YOLO数据&lt;br&gt;格式&lt;/div&gt;" style="shape=step;perimeter=stepPerimeter;whiteSpace=wrap;html=1;fixedSize=1;fillColor=#fff2cc;strokeColor=#d6b656;" vertex="1" parent="ddOFDk4EkhnSvFDgT97D-19">
          <mxGeometry x="660" y="80" width="130" height="80" as="geometry" />
        </mxCell>
        <mxCell id="ddOFDk4EkhnSvFDgT97D-20" style="edgeStyle=orthogonalEdgeStyle;rounded=0;orthogonalLoop=1;jettySize=auto;html=1;" edge="1" parent="ddOFDk4EkhnSvFDgT97D-19" source="ddOFDk4EkhnSvFDgT97D-21" target="zzhu0czMKqy3ecCgwcXk-1">
          <mxGeometry relative="1" as="geometry" />
        </mxCell>
        <mxCell id="ddOFDk4EkhnSvFDgT97D-99" value="切出舌头区域" style="shape=callout;whiteSpace=wrap;html=1;perimeter=calloutPerimeter;fillColor=#e1d5e7;strokeColor=#9673a6;" vertex="1" parent="ddOFDk4EkhnSvFDgT97D-19">
          <mxGeometry x="690" width="120" height="80" as="geometry" />
        </mxCell>
        <mxCell id="ddOFDk4EkhnSvFDgT97D-53" style="edgeStyle=orthogonalEdgeStyle;rounded=0;orthogonalLoop=1;jettySize=auto;html=1;strokeWidth=3;strokeColor=#009999;exitX=0.5;exitY=0;exitDx=0;exitDy=0;" edge="1" parent="1" source="fzZAQI13CPTshMijxA6r-4" target="ddOFDk4EkhnSvFDgT97D-33">
          <mxGeometry relative="1" as="geometry">
            <mxPoint x="960" y="800" as="sourcePoint" />
            <mxPoint x="550" y="990" as="targetPoint" />
          </mxGeometry>
        </mxCell>
        <mxCell id="ddOFDk4EkhnSvFDgT97D-54" value="YOLO + 多分类模型" style="swimlane;whiteSpace=wrap;html=1;fillColor=#ffe6cc;strokeColor=#d79b00;" vertex="1" parent="1">
          <mxGeometry x="40" y="1120" width="880" height="200" as="geometry" />
        </mxCell>
        <mxCell id="ddOFDk4EkhnSvFDgT97D-55" value="视觉语言模型" style="rounded=1;whiteSpace=wrap;html=1;fillColor=#f5f5f5;fontColor=#333333;strokeColor=#666666;" vertex="1" parent="ddOFDk4EkhnSvFDgT97D-54">
          <mxGeometry x="40" y="80" width="120" height="60" as="geometry" />
        </mxCell>
        <mxCell id="ddOFDk4EkhnSvFDgT97D-56" value="" style="edgeStyle=orthogonalEdgeStyle;rounded=0;orthogonalLoop=1;jettySize=auto;html=1;" edge="1" parent="ddOFDk4EkhnSvFDgT97D-54" target="ddOFDk4EkhnSvFDgT97D-60">
          <mxGeometry relative="1" as="geometry">
            <mxPoint x="490" y="110" as="targetPoint" />
            <mxPoint x="340" y="110" as="sourcePoint" />
          </mxGeometry>
        </mxCell>
        <mxCell id="fzZAQI13CPTshMijxA6r-4" value="加载提示词" style="shape=step;perimeter=stepPerimeter;whiteSpace=wrap;html=1;fixedSize=1;" vertex="1" parent="ddOFDk4EkhnSvFDgT97D-54">
          <mxGeometry x="350" y="90" width="120" height="40" as="geometry" />
        </mxCell>
        <mxCell id="zzhu0czMKqy3ecCgwcXk-8" style="edgeStyle=orthogonalEdgeStyle;rounded=0;orthogonalLoop=1;jettySize=auto;html=1;" edge="1" parent="ddOFDk4EkhnSvFDgT97D-54" source="ddOFDk4EkhnSvFDgT97D-60" target="ddOFDk4EkhnSvFDgT97D-71">
          <mxGeometry relative="1" as="geometry" />
        </mxCell>
        <mxCell id="ddOFDk4EkhnSvFDgT97D-60" value="训练" style="rounded=1;whiteSpace=wrap;html=1;fillColor=#f5f5f5;fontColor=#333333;strokeColor=#666666;" vertex="1" parent="ddOFDk4EkhnSvFDgT97D-54">
          <mxGeometry x="520" y="80" width="120" height="60" as="geometry" />
        </mxCell>
        <mxCell id="ddOFDk4EkhnSvFDgT97D-71" value="视觉大语言模型" style="shape=dataStorage;whiteSpace=wrap;html=1;fixedSize=1;fillColor=#f8cecc;strokeColor=#b85450;" vertex="1" parent="ddOFDk4EkhnSvFDgT97D-54">
          <mxGeometry x="680" y="90" width="140" height="40" as="geometry" />
        </mxCell>
        <mxCell id="ddOFDk4EkhnSvFDgT97D-72" value="舌诊终端/App/小程序" style="swimlane;whiteSpace=wrap;html=1;fillColor=#fff2cc;strokeColor=#d6b656;" vertex="1" parent="1">
          <mxGeometry x="40" y="1400" width="1360" height="320" as="geometry" />
        </mxCell>
        <mxCell id="ddOFDk4EkhnSvFDgT97D-73" value="" style="edgeStyle=orthogonalEdgeStyle;rounded=0;orthogonalLoop=1;jettySize=auto;html=1;" edge="1" parent="ddOFDk4EkhnSvFDgT97D-72" source="ddOFDk4EkhnSvFDgT97D-74" target="ddOFDk4EkhnSvFDgT97D-76">
          <mxGeometry relative="1" as="geometry" />
        </mxCell>
        <mxCell id="ddOFDk4EkhnSvFDgT97D-74" value="Actor" style="shape=umlActor;verticalLabelPosition=bottom;verticalAlign=top;html=1;outlineConnect=0;fillColor=#f5f5f5;fontColor=#333333;strokeColor=#666666;" vertex="1" parent="ddOFDk4EkhnSvFDgT97D-72">
          <mxGeometry x="40" y="190" width="30" height="60" as="geometry" />
        </mxCell>
        <mxCell id="ddOFDk4EkhnSvFDgT97D-75" value="" style="edgeStyle=orthogonalEdgeStyle;rounded=0;orthogonalLoop=1;jettySize=auto;html=1;" edge="1" parent="ddOFDk4EkhnSvFDgT97D-72" source="ddOFDk4EkhnSvFDgT97D-76" target="ddOFDk4EkhnSvFDgT97D-78">
          <mxGeometry relative="1" as="geometry" />
        </mxCell>
        <mxCell id="ddOFDk4EkhnSvFDgT97D-76" value="云接口" style="ellipse;shape=cloud;whiteSpace=wrap;html=1;verticalAlign=middle;fillColor=#dae8fc;strokeColor=#6c8ebf;" vertex="1" parent="ddOFDk4EkhnSvFDgT97D-72">
          <mxGeometry x="120" y="180" width="125" height="80" as="geometry" />
        </mxCell>
        <mxCell id="ddOFDk4EkhnSvFDgT97D-77" value="" style="edgeStyle=orthogonalEdgeStyle;rounded=0;orthogonalLoop=1;jettySize=auto;html=1;" edge="1" parent="ddOFDk4EkhnSvFDgT97D-72" source="ddOFDk4EkhnSvFDgT97D-78" target="ddOFDk4EkhnSvFDgT97D-81">
          <mxGeometry relative="1" as="geometry" />
        </mxCell>
        <mxCell id="ddOFDk4EkhnSvFDgT97D-78" value="上传图像" style="rounded=1;whiteSpace=wrap;html=1;fillColor=#d5e8d4;strokeColor=#82b366;" vertex="1" parent="ddOFDk4EkhnSvFDgT97D-72">
          <mxGeometry x="280" y="190" width="120" height="60" as="geometry" />
        </mxCell>
        <mxCell id="ddOFDk4EkhnSvFDgT97D-79" style="edgeStyle=orthogonalEdgeStyle;rounded=0;orthogonalLoop=1;jettySize=auto;html=1;" edge="1" parent="ddOFDk4EkhnSvFDgT97D-72" source="ddOFDk4EkhnSvFDgT97D-81" target="ddOFDk4EkhnSvFDgT97D-85">
          <mxGeometry relative="1" as="geometry" />
        </mxCell>
        <mxCell id="ddOFDk4EkhnSvFDgT97D-80" style="edgeStyle=orthogonalEdgeStyle;rounded=0;orthogonalLoop=1;jettySize=auto;html=1;" edge="1" parent="ddOFDk4EkhnSvFDgT97D-72" source="ddOFDk4EkhnSvFDgT97D-81" target="ddOFDk4EkhnSvFDgT97D-95">
          <mxGeometry relative="1" as="geometry" />
        </mxCell>
        <mxCell id="ddOFDk4EkhnSvFDgT97D-81" value="诊断接口" style="rounded=1;whiteSpace=wrap;html=1;fillColor=#ffe6cc;strokeColor=#d79b00;" vertex="1" parent="ddOFDk4EkhnSvFDgT97D-72">
          <mxGeometry x="440" y="190" width="120" height="60" as="geometry" />
        </mxCell>
        <mxCell id="ddOFDk4EkhnSvFDgT97D-82" value="" style="edgeStyle=orthogonalEdgeStyle;rounded=0;orthogonalLoop=1;jettySize=auto;html=1;exitX=1;exitY=0.5;exitDx=0;exitDy=0;" edge="1" parent="ddOFDk4EkhnSvFDgT97D-72" source="ddOFDk4EkhnSvFDgT97D-93" target="ddOFDk4EkhnSvFDgT97D-87">
          <mxGeometry relative="1" as="geometry" />
        </mxCell>
        <mxCell id="ddOFDk4EkhnSvFDgT97D-83" style="edgeStyle=orthogonalEdgeStyle;rounded=0;orthogonalLoop=1;jettySize=auto;html=1;exitX=1;exitY=0.5;exitDx=0;exitDy=0;" edge="1" parent="ddOFDk4EkhnSvFDgT97D-72" source="ddOFDk4EkhnSvFDgT97D-93" target="ddOFDk4EkhnSvFDgT97D-89">
          <mxGeometry relative="1" as="geometry" />
        </mxCell>
        <mxCell id="ddOFDk4EkhnSvFDgT97D-84" style="edgeStyle=orthogonalEdgeStyle;rounded=0;orthogonalLoop=1;jettySize=auto;html=1;" edge="1" parent="ddOFDk4EkhnSvFDgT97D-72" source="ddOFDk4EkhnSvFDgT97D-85" target="ddOFDk4EkhnSvFDgT97D-93">
          <mxGeometry relative="1" as="geometry" />
        </mxCell>
        <mxCell id="ddOFDk4EkhnSvFDgT97D-85" value="载入YOLO模型" style="shape=step;perimeter=stepPerimeter;whiteSpace=wrap;html=1;fixedSize=1;fillColor=#fff2cc;strokeColor=#d6b656;" vertex="1" parent="ddOFDk4EkhnSvFDgT97D-72">
          <mxGeometry x="440" y="80" width="120" height="40" as="geometry" />
        </mxCell>
        <mxCell id="ddOFDk4EkhnSvFDgT97D-86" style="edgeStyle=orthogonalEdgeStyle;rounded=0;orthogonalLoop=1;jettySize=auto;html=1;entryX=0;entryY=0.25;entryDx=0;entryDy=0;" edge="1" parent="ddOFDk4EkhnSvFDgT97D-72" source="ddOFDk4EkhnSvFDgT97D-87" target="ddOFDk4EkhnSvFDgT97D-92">
          <mxGeometry relative="1" as="geometry" />
        </mxCell>
        <mxCell id="ddOFDk4EkhnSvFDgT97D-87" value="&lt;div&gt;舌头&lt;/div&gt;boxes" style="shape=step;perimeter=stepPerimeter;whiteSpace=wrap;html=1;fixedSize=1;fillColor=#f8cecc;strokeColor=#b85450;" vertex="1" parent="ddOFDk4EkhnSvFDgT97D-72">
          <mxGeometry x="880" y="40" width="120" height="40" as="geometry" />
        </mxCell>
        <mxCell id="ddOFDk4EkhnSvFDgT97D-88" style="edgeStyle=orthogonalEdgeStyle;rounded=0;orthogonalLoop=1;jettySize=auto;html=1;entryX=0;entryY=0.75;entryDx=0;entryDy=0;" edge="1" parent="ddOFDk4EkhnSvFDgT97D-72" source="ddOFDk4EkhnSvFDgT97D-89" target="ddOFDk4EkhnSvFDgT97D-92">
          <mxGeometry relative="1" as="geometry">
            <Array as="points">
              <mxPoint x="1023" y="150" />
              <mxPoint x="1023" y="108" />
            </Array>
          </mxGeometry>
        </mxCell>
        <mxCell id="ddOFDk4EkhnSvFDgT97D-89" value="&lt;div&gt;label&lt;/div&gt;&lt;div&gt;诊断标签&lt;/div&gt;" style="shape=step;perimeter=stepPerimeter;whiteSpace=wrap;html=1;fixedSize=1;fillColor=#e1d5e7;strokeColor=#9673a6;" vertex="1" parent="ddOFDk4EkhnSvFDgT97D-72">
          <mxGeometry x="880" y="120" width="120" height="40" as="geometry" />
        </mxCell>
        <mxCell id="ddOFDk4EkhnSvFDgT97D-90" style="edgeStyle=orthogonalEdgeStyle;rounded=0;orthogonalLoop=1;jettySize=auto;html=1;strokeWidth=3;strokeColor=#FF0080;" edge="1" parent="ddOFDk4EkhnSvFDgT97D-72" source="ddOFDk4EkhnSvFDgT97D-92" target="ddOFDk4EkhnSvFDgT97D-74">
          <mxGeometry relative="1" as="geometry">
            <Array as="points">
              <mxPoint x="1253" y="100" />
              <mxPoint x="1253" y="300" />
              <mxPoint x="55" y="300" />
            </Array>
          </mxGeometry>
        </mxCell>
        <mxCell id="ddOFDk4EkhnSvFDgT97D-91" value="返回图像和结论给用户" style="edgeLabel;html=1;align=center;verticalAlign=middle;resizable=0;points=[];" vertex="1" connectable="0" parent="ddOFDk4EkhnSvFDgT97D-90">
          <mxGeometry x="0.0378" y="-1" relative="1" as="geometry">
            <mxPoint as="offset" />
          </mxGeometry>
        </mxCell>
        <mxCell id="ddOFDk4EkhnSvFDgT97D-92" value="输出图像" style="shape=step;perimeter=stepPerimeter;whiteSpace=wrap;html=1;fixedSize=1;fillColor=#b0e3e6;strokeColor=#0e8088;" vertex="1" parent="ddOFDk4EkhnSvFDgT97D-72">
          <mxGeometry x="1053" y="80" width="120" height="40" as="geometry" />
        </mxCell>
        <mxCell id="ddOFDk4EkhnSvFDgT97D-93" value="YOLO11" style="rounded=1;whiteSpace=wrap;html=1;fillColor=#cdeb8b;strokeColor=#36393d;" vertex="1" parent="ddOFDk4EkhnSvFDgT97D-72">
          <mxGeometry x="700" y="80" width="120" height="40" as="geometry" />
        </mxCell>
        <mxCell id="ddOFDk4EkhnSvFDgT97D-94" style="edgeStyle=orthogonalEdgeStyle;rounded=0;orthogonalLoop=1;jettySize=auto;html=1;" edge="1" parent="ddOFDk4EkhnSvFDgT97D-72" source="ddOFDk4EkhnSvFDgT97D-95" target="ddOFDk4EkhnSvFDgT97D-98">
          <mxGeometry relative="1" as="geometry" />
        </mxCell>
        <mxCell id="ddOFDk4EkhnSvFDgT97D-95" value="视觉语言模型" style="shape=step;perimeter=stepPerimeter;whiteSpace=wrap;html=1;fixedSize=1;fillColor=#fff2cc;strokeColor=#d6b656;" vertex="1" parent="ddOFDk4EkhnSvFDgT97D-72">
          <mxGeometry x="600" y="200" width="120" height="40" as="geometry" />
        </mxCell>
        <mxCell id="ddOFDk4EkhnSvFDgT97D-96" value="JSON 结果" style="rounded=1;whiteSpace=wrap;html=1;fillColor=#cce5ff;strokeColor=#36393d;" vertex="1" parent="ddOFDk4EkhnSvFDgT97D-72">
          <mxGeometry x="1201" y="190" width="120" height="60" as="geometry" />
        </mxCell>
        <mxCell id="ddOFDk4EkhnSvFDgT97D-97" style="edgeStyle=orthogonalEdgeStyle;rounded=0;orthogonalLoop=1;jettySize=auto;html=1;" edge="1" parent="ddOFDk4EkhnSvFDgT97D-72" source="ddOFDk4EkhnSvFDgT97D-98" target="ddOFDk4EkhnSvFDgT97D-96">
          <mxGeometry relative="1" as="geometry" />
        </mxCell>
        <mxCell id="ddOFDk4EkhnSvFDgT97D-98" value="0～1 置信度，诊断结果" style="rounded=1;whiteSpace=wrap;html=1;fillColor=#ffff88;strokeColor=#36393d;" vertex="1" parent="ddOFDk4EkhnSvFDgT97D-72">
          <mxGeometry x="860" y="200" width="160" height="40" as="geometry" />
        </mxCell>
        <mxCell id="ddOFDk4EkhnSvFDgT97D-100" value="&lt;h1 style=&quot;margin-top: 0px;&quot;&gt;中医舌诊系统 - 视觉语言模型方案架构图&lt;/h1&gt;&lt;p&gt;&lt;font style=&quot;font-size: 15px;&quot;&gt;基于人工智能的中医舌诊系统&lt;/font&gt;&lt;/p&gt;" style="text;html=1;whiteSpace=wrap;overflow=hidden;rounded=0;" vertex="1" parent="1">
          <mxGeometry x="40" y="40" width="670" height="80" as="geometry" />
        </mxCell>
        <mxCell id="ddOFDk4EkhnSvFDgT97D-49" style="edgeStyle=orthogonalEdgeStyle;rounded=0;orthogonalLoop=1;jettySize=auto;html=1;strokeWidth=3;strokeColor=#0000FF;entryX=0;entryY=0.5;entryDx=0;entryDy=0;" edge="1" parent="1" target="ddOFDk4EkhnSvFDgT97D-23" source="fzZAQI13CPTshMijxA6r-3">
          <mxGeometry relative="1" as="geometry">
            <mxPoint x="300" y="990" as="sourcePoint" />
            <mxPoint x="947.5" y="990" as="targetPoint" />
            <Array as="points">
              <mxPoint x="300" y="780" />
            </Array>
          </mxGeometry>
        </mxCell>
        <mxCell id="fzZAQI13CPTshMijxA6r-5" value="" style="edgeStyle=orthogonalEdgeStyle;rounded=0;orthogonalLoop=1;jettySize=auto;html=1;strokeWidth=3;strokeColor=#7F00FF;entryX=0.5;entryY=1;entryDx=0;entryDy=0;" edge="1" parent="1" source="ddOFDk4EkhnSvFDgT97D-85" target="fwZ3h_DbhHZ9tD9oGg5x-22">
          <mxGeometry relative="1" as="geometry">
            <Array as="points">
              <mxPoint x="540" y="1100" />
              <mxPoint x="1190" y="1100" />
            </Array>
            <mxPoint x="550" y="1520" as="sourcePoint" />
            <mxPoint x="1710" y="950" as="targetPoint" />
          </mxGeometry>
        </mxCell>
        <mxCell id="fzZAQI13CPTshMijxA6r-8" style="edgeStyle=orthogonalEdgeStyle;rounded=0;orthogonalLoop=1;jettySize=auto;html=1;" edge="1" parent="1" source="fzZAQI13CPTshMijxA6r-3" target="fzZAQI13CPTshMijxA6r-4">
          <mxGeometry relative="1" as="geometry" />
        </mxCell>
        <mxCell id="fzZAQI13CPTshMijxA6r-3" value="加载图像" style="shape=step;perimeter=stepPerimeter;whiteSpace=wrap;html=1;fixedSize=1;" vertex="1" parent="1">
          <mxGeometry x="240" y="1210" width="120" height="40" as="geometry" />
        </mxCell>
        <mxCell id="fzZAQI13CPTshMijxA6r-6" style="edgeStyle=orthogonalEdgeStyle;rounded=0;orthogonalLoop=1;jettySize=auto;html=1;entryX=0;entryY=0.5;entryDx=0;entryDy=0;" edge="1" parent="1" source="ddOFDk4EkhnSvFDgT97D-55" target="fzZAQI13CPTshMijxA6r-3">
          <mxGeometry relative="1" as="geometry" />
        </mxCell>
        <mxCell id="fwZ3h_DbhHZ9tD9oGg5x-1" style="edgeStyle=orthogonalEdgeStyle;rounded=0;orthogonalLoop=1;jettySize=auto;html=1;strokeWidth=3;strokeColor=#00CCCC;entryX=0.5;entryY=0;entryDx=0;entryDy=0;" edge="1" parent="1" source="fwZ3h_DbhHZ9tD9oGg5x-16" target="fwZ3h_DbhHZ9tD9oGg5x-20">
          <mxGeometry relative="1" as="geometry">
            <Array as="points">
              <mxPoint x="1430" y="850" />
              <mxPoint x="1020" y="850" />
            </Array>
            <mxPoint x="1540" y="825" as="sourcePoint" />
            <mxPoint x="1173.5" y="1120" as="targetPoint" />
          </mxGeometry>
        </mxCell>
        <mxCell id="fwZ3h_DbhHZ9tD9oGg5x-2" value="自动标注" style="swimlane;horizontal=1;whiteSpace=wrap;html=1;fillColor=#cce5ff;strokeColor=#36393d;" vertex="1" parent="1">
          <mxGeometry x="920" y="560" width="600" height="240" as="geometry" />
        </mxCell>
        <mxCell id="fwZ3h_DbhHZ9tD9oGg5x-3" style="edgeStyle=orthogonalEdgeStyle;rounded=0;orthogonalLoop=1;jettySize=auto;html=1;entryX=0;entryY=0.5;entryDx=0;entryDy=0;exitX=1;exitY=0.75;exitDx=0;exitDy=0;" edge="1" parent="fwZ3h_DbhHZ9tD9oGg5x-2" source="fwZ3h_DbhHZ9tD9oGg5x-6" target="fwZ3h_DbhHZ9tD9oGg5x-12">
          <mxGeometry relative="1" as="geometry">
            <Array as="points">
              <mxPoint x="190" y="145" />
              <mxPoint x="190" y="200" />
            </Array>
          </mxGeometry>
        </mxCell>
        <mxCell id="fwZ3h_DbhHZ9tD9oGg5x-4" style="edgeStyle=orthogonalEdgeStyle;rounded=0;orthogonalLoop=1;jettySize=auto;html=1;" edge="1" parent="fwZ3h_DbhHZ9tD9oGg5x-2" source="fwZ3h_DbhHZ9tD9oGg5x-6" target="fwZ3h_DbhHZ9tD9oGg5x-10">
          <mxGeometry relative="1" as="geometry" />
        </mxCell>
        <mxCell id="fwZ3h_DbhHZ9tD9oGg5x-5" style="edgeStyle=orthogonalEdgeStyle;rounded=0;orthogonalLoop=1;jettySize=auto;html=1;entryX=0;entryY=0.5;entryDx=0;entryDy=0;exitX=1;exitY=0.25;exitDx=0;exitDy=0;" edge="1" parent="fwZ3h_DbhHZ9tD9oGg5x-2" source="fwZ3h_DbhHZ9tD9oGg5x-6" target="fwZ3h_DbhHZ9tD9oGg5x-8">
          <mxGeometry relative="1" as="geometry">
            <Array as="points">
              <mxPoint x="190" y="115" />
              <mxPoint x="190" y="60" />
            </Array>
          </mxGeometry>
        </mxCell>
        <mxCell id="fwZ3h_DbhHZ9tD9oGg5x-6" value="X-anylableing" style="rounded=1;whiteSpace=wrap;html=1;fillColor=#f5f5f5;fontColor=#333333;strokeColor=#666666;" vertex="1" parent="fwZ3h_DbhHZ9tD9oGg5x-2">
          <mxGeometry x="40" y="100" width="120" height="60" as="geometry" />
        </mxCell>
        <mxCell id="fwZ3h_DbhHZ9tD9oGg5x-7" style="edgeStyle=orthogonalEdgeStyle;rounded=0;orthogonalLoop=1;jettySize=auto;html=1;" edge="1" parent="fwZ3h_DbhHZ9tD9oGg5x-2" source="fwZ3h_DbhHZ9tD9oGg5x-8" target="fwZ3h_DbhHZ9tD9oGg5x-13">
          <mxGeometry relative="1" as="geometry" />
        </mxCell>
        <mxCell id="fwZ3h_DbhHZ9tD9oGg5x-8" value="舌头整体" style="shape=step;perimeter=stepPerimeter;whiteSpace=wrap;html=1;fixedSize=1;fillColor=#ffe6cc;strokeColor=#d79b00;" vertex="1" parent="fwZ3h_DbhHZ9tD9oGg5x-2">
          <mxGeometry x="230" y="40" width="120" height="40" as="geometry" />
        </mxCell>
        <mxCell id="fwZ3h_DbhHZ9tD9oGg5x-9" style="edgeStyle=orthogonalEdgeStyle;rounded=0;orthogonalLoop=1;jettySize=auto;html=1;" edge="1" parent="fwZ3h_DbhHZ9tD9oGg5x-2" source="fwZ3h_DbhHZ9tD9oGg5x-10" target="fwZ3h_DbhHZ9tD9oGg5x-13">
          <mxGeometry relative="1" as="geometry" />
        </mxCell>
        <mxCell id="fwZ3h_DbhHZ9tD9oGg5x-10" value="W 形状" style="shape=step;perimeter=stepPerimeter;whiteSpace=wrap;html=1;fixedSize=1;fillColor=#fff2cc;strokeColor=#d6b656;" vertex="1" parent="fwZ3h_DbhHZ9tD9oGg5x-2">
          <mxGeometry x="230" y="110" width="120" height="40" as="geometry" />
        </mxCell>
        <mxCell id="fwZ3h_DbhHZ9tD9oGg5x-11" style="edgeStyle=orthogonalEdgeStyle;rounded=0;orthogonalLoop=1;jettySize=auto;html=1;" edge="1" parent="fwZ3h_DbhHZ9tD9oGg5x-2" source="fwZ3h_DbhHZ9tD9oGg5x-12" target="fwZ3h_DbhHZ9tD9oGg5x-13">
          <mxGeometry relative="1" as="geometry" />
        </mxCell>
        <mxCell id="fwZ3h_DbhHZ9tD9oGg5x-12" value="血管" style="shape=step;perimeter=stepPerimeter;whiteSpace=wrap;html=1;fixedSize=1;fillColor=#d5e8d4;strokeColor=#82b366;" vertex="1" parent="fwZ3h_DbhHZ9tD9oGg5x-2">
          <mxGeometry x="230" y="180" width="120" height="40" as="geometry" />
        </mxCell>
        <mxCell id="fwZ3h_DbhHZ9tD9oGg5x-13" value="yolo dataset" style="swimlane;fontStyle=0;childLayout=stackLayout;horizontal=1;startSize=30;horizontalStack=0;resizeParent=1;resizeParentMax=0;resizeLast=0;collapsible=1;marginBottom=0;whiteSpace=wrap;html=1;fillColor=#e1d5e7;strokeColor=#9673a6;" vertex="1" parent="fwZ3h_DbhHZ9tD9oGg5x-2">
          <mxGeometry x="420" y="70" width="140" height="120" as="geometry" />
        </mxCell>
        <mxCell id="fwZ3h_DbhHZ9tD9oGg5x-14" value="train/images" style="text;strokeColor=none;fillColor=none;align=left;verticalAlign=middle;spacingLeft=4;spacingRight=4;overflow=hidden;points=[[0,0.5],[1,0.5]];portConstraint=eastwest;rotatable=0;whiteSpace=wrap;html=1;" vertex="1" parent="fwZ3h_DbhHZ9tD9oGg5x-13">
          <mxGeometry y="30" width="140" height="30" as="geometry" />
        </mxCell>
        <mxCell id="fwZ3h_DbhHZ9tD9oGg5x-15" value="train/labels" style="text;strokeColor=none;fillColor=none;align=left;verticalAlign=middle;spacingLeft=4;spacingRight=4;overflow=hidden;points=[[0,0.5],[1,0.5]];portConstraint=eastwest;rotatable=0;whiteSpace=wrap;html=1;" vertex="1" parent="fwZ3h_DbhHZ9tD9oGg5x-13">
          <mxGeometry y="60" width="140" height="30" as="geometry" />
        </mxCell>
        <mxCell id="fwZ3h_DbhHZ9tD9oGg5x-16" value="classes.txt" style="text;strokeColor=none;fillColor=none;align=left;verticalAlign=middle;spacingLeft=4;spacingRight=4;overflow=hidden;points=[[0,0.5],[1,0.5]];portConstraint=eastwest;rotatable=0;whiteSpace=wrap;html=1;" vertex="1" parent="fwZ3h_DbhHZ9tD9oGg5x-13">
          <mxGeometry y="90" width="140" height="30" as="geometry" />
        </mxCell>
        <mxCell id="fwZ3h_DbhHZ9tD9oGg5x-17" style="edgeStyle=orthogonalEdgeStyle;rounded=0;orthogonalLoop=1;jettySize=auto;html=1;strokeWidth=3;strokeColor=#0000FF;entryX=0.5;entryY=0;entryDx=0;entryDy=0;" edge="1" parent="fwZ3h_DbhHZ9tD9oGg5x-2" target="fwZ3h_DbhHZ9tD9oGg5x-22">
          <mxGeometry relative="1" as="geometry">
            <mxPoint x="92.5" y="160" as="sourcePoint" />
            <mxPoint x="907.5" y="150" as="targetPoint" />
            <Array as="points">
              <mxPoint x="93" y="270" />
              <mxPoint x="270" y="270" />
            </Array>
          </mxGeometry>
        </mxCell>
        <mxCell id="fwZ3h_DbhHZ9tD9oGg5x-19" value="YOLO 病区模型，提供 Boxes + label 服务，用于后期配方开药" style="swimlane;whiteSpace=wrap;html=1;fillColor=#cdeb8b;strokeColor=#36393d;" vertex="1" parent="1">
          <mxGeometry x="920" y="880" width="600" height="200" as="geometry" />
        </mxCell>
        <mxCell id="fwZ3h_DbhHZ9tD9oGg5x-20" value="YOLO 训练" style="rounded=1;whiteSpace=wrap;html=1;fillColor=#f5f5f5;fontColor=#333333;strokeColor=#666666;" vertex="1" parent="fwZ3h_DbhHZ9tD9oGg5x-19">
          <mxGeometry x="40" y="80" width="120" height="60" as="geometry" />
        </mxCell>
        <mxCell id="fwZ3h_DbhHZ9tD9oGg5x-22" value="病区模型" style="shape=dataStorage;whiteSpace=wrap;html=1;fixedSize=1;fillColor=#f8cecc;strokeColor=#b85450;" vertex="1" parent="fwZ3h_DbhHZ9tD9oGg5x-19">
          <mxGeometry x="200" y="90" width="140" height="40" as="geometry" />
        </mxCell>
        <mxCell id="fwZ3h_DbhHZ9tD9oGg5x-23" style="edgeStyle=orthogonalEdgeStyle;rounded=0;orthogonalLoop=1;jettySize=auto;html=1;entryX=0;entryY=0.5;entryDx=0;entryDy=0;" edge="1" parent="fwZ3h_DbhHZ9tD9oGg5x-19" source="fwZ3h_DbhHZ9tD9oGg5x-20" target="fwZ3h_DbhHZ9tD9oGg5x-22">
          <mxGeometry relative="1" as="geometry" />
        </mxCell>
        <mxCell id="zzhu0czMKqy3ecCgwcXk-5" style="edgeStyle=orthogonalEdgeStyle;rounded=0;orthogonalLoop=1;jettySize=auto;html=1;entryX=0;entryY=0.5;entryDx=0;entryDy=0;strokeWidth=3;fillColor=#d80073;strokeColor=#A50040;" edge="1" parent="1" source="zzhu0czMKqy3ecCgwcXk-1" target="fwZ3h_DbhHZ9tD9oGg5x-6">
          <mxGeometry relative="1" as="geometry">
            <Array as="points">
              <mxPoint x="900" y="680" />
              <mxPoint x="900" y="690" />
            </Array>
          </mxGeometry>
        </mxCell>
      </root>
    </mxGraphModel>
  </diagram>
</mxfile>
